<?xml version="1.0" encoding="UTF-8"?>
<!DOCTYPE svg PUBLIC "-//W3C//DTD SVG 1.1//EN" "http://www.w3.org/Graphics/SVG/1.1/DTD/svg11.dtd">
<svg xmlns="http://www.w3.org/2000/svg" version="1.1" width="256px" height="256px" style="shape-rendering:geometricPrecision; text-rendering:geometricPrecision; image-rendering:optimizeQuality; fill-rule:evenodd; clip-rule:evenodd" xmlns:xlink="http://www.w3.org/1999/xlink">
<g><path style="opacity:0.02" fill="#3b3b3b" d="M -0.5,-0.5 C 0.166667,-0.5 0.833333,-0.5 1.5,-0.5C 1.16667,0.5 0.5,1.16667 -0.5,1.5C -0.5,0.833333 -0.5,0.166667 -0.5,-0.5 Z"/></g>
<g><path style="opacity:0.024" fill="#474747" d="M 16.5,-0.5 C 18.1667,-0.5 19.8333,-0.5 21.5,-0.5C 14.5,7.16667 7.16667,14.5 -0.5,21.5C -0.5,19.8333 -0.5,18.1667 -0.5,16.5C 5.5,11.1667 11.1667,5.5 16.5,-0.5 Z"/></g>
<g><path style="opacity:0.024" fill="#474747" d="M 36.5,-0.5 C 38.1667,-0.5 39.8333,-0.5 41.5,-0.5C 27.8333,13.8333 13.8333,27.8333 -0.5,41.5C -0.5,39.8333 -0.5,38.1667 -0.5,36.5C 12.1667,24.5 24.5,12.1667 36.5,-0.5 Z"/></g>
<g><path style="opacity:0.024" fill="#474747" d="M 56.5,-0.5 C 58.1667,-0.5 59.8333,-0.5 61.5,-0.5C 41.1667,20.5 20.5,41.1667 -0.5,61.5C -0.5,59.8333 -0.5,58.1667 -0.5,56.5C 18.8333,37.8333 37.8333,18.8333 56.5,-0.5 Z"/></g>
<g><path style="opacity:0.024" fill="#474747" d="M 76.5,-0.5 C 78.1667,-0.5 79.8333,-0.5 81.5,-0.5C 54.5,27.1667 27.1667,54.5 -0.5,81.5C -0.5,79.8333 -0.5,78.1667 -0.5,76.5C 25.5,51.1667 51.1667,25.5 76.5,-0.5 Z"/></g>
<g><path style="opacity:0.024" fill="#474747" d="M 96.5,-0.5 C 98.1667,-0.5 99.8333,-0.5 101.5,-0.5C 92.5,8.83333 83.5,18.1667 74.5,27.5C 73.8333,27.5 73.5,27.8333 73.5,28.5C 69.4828,30.8609 65.4828,33.1942 61.5,35.5C 73.1667,23.5 84.8333,11.5 96.5,-0.5 Z"/></g>
<g><path style="opacity:0.024" fill="#474747" d="M 116.5,-0.5 C 118.167,-0.5 119.833,-0.5 121.5,-0.5C 115.833,5.5 110.167,11.5 104.5,17.5C 104.167,17.5 103.833,17.5 103.5,17.5C 101.883,18.038 100.216,18.3713 98.5,18.5C 104.5,12.1667 110.5,5.83333 116.5,-0.5 Z"/></g>
<g><path style="opacity:0.024" fill="#474747" d="M 136.5,-0.5 C 138.167,-0.5 139.833,-0.5 141.5,-0.5C 136.5,4.83333 131.5,10.1667 126.5,15.5C 124.833,15.5 123.167,15.5 121.5,15.5C 126.5,10.1667 131.5,4.83333 136.5,-0.5 Z"/></g>
<g><path style="opacity:0.024" fill="#474747" d="M 156.5,-0.5 C 158.167,-0.5 159.833,-0.5 161.5,-0.5C 156.167,5.16667 150.833,10.8333 145.5,16.5C 145.167,16.5 144.833,16.5 144.5,16.5C 143.391,16.4431 142.391,16.1098 141.5,15.5C 146.5,10.1667 151.5,4.83333 156.5,-0.5 Z"/></g>
<g><path style="opacity:0.024" fill="#474747" d="M 176.5,-0.5 C 178.167,-0.5 179.833,-0.5 181.5,-0.5C 175.167,6.5 168.5,13.1667 161.5,19.5C 159.901,19.7678 158.568,19.4345 157.5,18.5C 164.167,12.5 170.5,6.16667 176.5,-0.5 Z"/></g>
<g><path style="opacity:0.024" fill="#474747" d="M 196.5,-0.5 C 198.167,-0.5 199.833,-0.5 201.5,-0.5C 193.167,8.16667 184.833,16.8333 176.5,25.5C 175.167,25.1667 173.833,24.8333 172.5,24.5C 172.5,24.1667 172.5,23.8333 172.5,23.5C 180.833,15.8333 188.833,7.83333 196.5,-0.5 Z"/></g>
<g><path style="opacity:0.024" fill="#474747" d="M 216.5,-0.5 C 218.167,-0.5 219.833,-0.5 221.5,-0.5C 210.833,10.8333 199.833,21.8333 188.5,32.5C 187.29,32.0679 186.29,31.4013 185.5,30.5C 196.167,20.5 206.5,10.1667 216.5,-0.5 Z"/></g>
<g><path style="opacity:0.024" fill="#474747" d="M 236.5,-0.5 C 238.167,-0.5 239.833,-0.5 241.5,-0.5C 227.833,13.5 214.167,27.5 200.5,41.5C 199.167,40.8333 198.167,39.8333 197.5,38.5C 210.833,25.8333 223.833,12.8333 236.5,-0.5 Z"/></g>
<g><path style="opacity:0.024" fill="#474747" d="M 255.5,1.5 C 255.5,3.16667 255.5,4.83333 255.5,6.5C 240.5,21.1667 225.5,35.8333 210.5,50.5C 209.5,50.1667 208.833,49.5 208.5,48.5C 223.833,32.5 239.5,16.8333 255.5,1.5 Z"/></g>
<g><path style="opacity:0.979" fill="#0c49d8" d="M 121.5,15.5 C 123.167,15.5 124.833,15.5 126.5,15.5C 131.5,15.5 136.5,15.5 141.5,15.5C 142.391,16.1098 143.391,16.4431 144.5,16.5C 139.438,21.5569 134.772,26.8902 130.5,32.5C 129.833,32.5 129.167,32.5 128.5,32.5C 127.065,31.9035 125.398,31.9035 123.5,32.5C 117.714,32.3116 112.047,32.9783 106.5,34.5C 104.035,34.767 101.701,35.4336 99.5,36.5C 91.4786,39.0105 83.8119,42.3439 76.5,46.5C 76.0618,46.5654 75.7284,46.3988 75.5,46C 85.0356,36.6317 94.3689,27.1317 103.5,17.5C 103.833,17.5 104.167,17.5 104.5,17.5C 110.064,16.1039 115.731,15.4372 121.5,15.5 Z"/></g>
<g><path style="opacity:0.981" fill="#0c49d9" d="M 144.5,16.5 C 144.833,16.5 145.167,16.5 145.5,16.5C 149.476,17.2952 153.476,17.9619 157.5,18.5C 158.568,19.4345 159.901,19.7678 161.5,19.5C 164.95,21.2078 168.617,22.5412 172.5,23.5C 172.5,23.8333 172.5,24.1667 172.5,24.5C 167.833,28.8333 163.167,33.1667 158.5,37.5C 155.014,35.8944 151.347,34.8944 147.5,34.5C 146.081,33.5489 144.415,33.2155 142.5,33.5C 138.6,32.5701 134.6,32.2367 130.5,32.5C 134.772,26.8902 139.438,21.5569 144.5,16.5 Z"/></g>
<g><path style="opacity:0.989" fill="#0f49d6" d="M 103.5,17.5 C 94.3689,27.1317 85.0356,36.6317 75.5,46C 75.7284,46.3988 76.0618,46.5654 76.5,46.5C 71.8983,49.7617 67.565,53.4283 63.5,57.5C 60.5,58.5 58.5,60.5 57.5,63.5C 54.1383,67.1925 50.8049,70.8592 47.5,74.5C 38.2016,83.2977 29.035,92.2977 20,101.5C 19.6174,100.944 19.1174,100.611 18.5,100.5C 18.5,99.8333 18.5,99.1667 18.5,98.5C 20.9351,90.295 23.9351,82.295 27.5,74.5C 28.1667,74.5 28.5,74.1667 28.5,73.5C 30.8609,69.4828 33.1942,65.4828 35.5,61.5C 43.1667,51.8333 51.8333,43.1667 61.5,35.5C 65.4828,33.1942 69.4828,30.8609 73.5,28.5C 74.1667,28.5 74.5,28.1667 74.5,27.5C 82.295,23.9351 90.295,20.9351 98.5,18.5C 100.216,18.3713 101.883,18.038 103.5,17.5 Z"/></g>
<g><path style="opacity:0.024" fill="#474747" d="M 255.5,21.5 C 255.5,23.1667 255.5,24.8333 255.5,26.5C 243.5,38.1667 231.5,49.8333 219.5,61.5C 218.5,61.1667 217.833,60.5 217.5,59.5C 217.5,59.1667 217.5,58.8333 217.5,58.5C 230.167,46.1667 242.833,33.8333 255.5,21.5 Z"/></g>
<g><path style="opacity:0.024" fill="#474747" d="M 128.5,32.5 C 96.8333,64.8333 64.8333,96.8333 32.5,128.5C 31.506,127.001 31.506,125.334 32.5,123.5C 63.1667,93.5 93.5,63.1667 123.5,32.5C 125.398,31.9035 127.065,31.9035 128.5,32.5 Z"/></g>
<g><path style="opacity:0.024" fill="#474747" d="M 142.5,33.5 C 144.415,33.2155 146.081,33.5489 147.5,34.5C 124.167,57.1667 101.167,80.1667 78.5,103.5C 74.5,104.167 72.1667,106.5 71.5,110.5C 59.1667,122.5 46.8333,134.5 34.5,146.5C 33.5655,145.432 33.2322,144.099 33.5,142.5C 70.1667,106.5 106.5,70.1667 142.5,33.5 Z"/></g>
<g><path style="opacity:0.024" fill="#474747" d="M 106.5,34.5 C 82.8333,58.8333 58.8333,82.8333 34.5,106.5C 34.767,104.035 35.4336,101.701 36.5,99.5C 57.8333,78.8333 78.8333,57.8333 99.5,36.5C 101.701,35.4336 104.035,34.767 106.5,34.5 Z"/></g>
<g><path style="opacity:0.024" fill="#474747" d="M 158.5,37.5 C 159.833,37.8333 161.167,38.1667 162.5,38.5C 141.167,60.1667 119.833,81.8333 98.5,103.5C 96.8333,103.5 95.1667,103.5 93.5,103.5C 115.167,81.5 136.833,59.5 158.5,37.5 Z"/></g>
<g><path style="opacity:0.981" fill="#0c49d8" d="M 172.5,24.5 C 173.833,24.8333 175.167,25.1667 176.5,25.5C 179.304,27.4046 182.304,29.0713 185.5,30.5C 186.29,31.4013 187.29,32.0679 188.5,32.5C 191.291,34.7349 194.291,36.7349 197.5,38.5C 198.167,39.8333 199.167,40.8333 200.5,41.5C 203.141,43.8044 205.808,46.1377 208.5,48.5C 208.833,49.5 209.5,50.1667 210.5,50.5C 212.117,53.7843 214.45,56.4509 217.5,58.5C 217.5,58.8333 217.5,59.1667 217.5,59.5C 213.441,63.5651 209.107,67.2317 204.5,70.5C 202.527,67.8605 200.194,65.5272 197.5,63.5C 197.573,61.9731 196.906,60.9731 195.5,60.5C 192.833,58.1667 190.167,55.8333 187.5,53.5C 187.027,52.0937 186.027,51.427 184.5,51.5C 182.025,48.7589 179.025,46.7589 175.5,45.5C 174.71,44.5987 173.71,43.9321 172.5,43.5C 169.167,41.8333 165.833,40.1667 162.5,38.5C 161.167,38.1667 159.833,37.8333 158.5,37.5C 163.167,33.1667 167.833,28.8333 172.5,24.5 Z"/></g>
<g><path style="opacity:0.024" fill="#474747" d="M 255.5,41.5 C 255.5,43.1667 255.5,44.8333 255.5,46.5C 245.833,55.5 236.5,64.8333 227.5,74.5C 226.326,73.4863 225.66,72.153 225.5,70.5C 235.5,60.8333 245.5,51.1667 255.5,41.5 Z"/></g>
<g><path style="opacity:0.024" fill="#474747" d="M 172.5,43.5 C 173.71,43.9321 174.71,44.5987 175.5,45.5C 162.833,58.5 150.167,71.5 137.5,84.5C 136.833,84.5 136.5,84.8333 136.5,85.5C 130.167,91.1667 124.167,97.1667 118.5,103.5C 116.833,103.5 115.167,103.5 113.5,103.5C 133.167,83.5 152.833,63.5 172.5,43.5 Z"/></g>
<g><path style="opacity:0.024" fill="#474747" d="M 184.5,51.5 C 186.027,51.427 187.027,52.0937 187.5,53.5C 175.833,65.8333 163.833,77.8333 151.5,89.5C 151.167,88.1667 150.833,86.8333 150.5,85.5C 162.167,74.5 173.5,63.1667 184.5,51.5 Z"/></g>
<g><path style="opacity:0.02" fill="#353b44" d="M 63.5,57.5 C 61.8333,59.8333 59.8333,61.8333 57.5,63.5C 58.5,60.5 60.5,58.5 63.5,57.5 Z"/></g>
<g><path style="opacity:0.024" fill="#474747" d="M 195.5,60.5 C 196.906,60.9731 197.573,61.9731 197.5,63.5C 184.5,76.8333 171.5,90.1667 158.5,103.5C 158.167,103.5 157.833,103.5 157.5,103.5C 156.167,103.5 154.833,103.5 153.5,103.5C 167.5,89.1667 181.5,74.8333 195.5,60.5 Z"/></g>
<g><path style="opacity:0.024" fill="#464647" d="M 255.5,61.5 C 255.5,63.1667 255.5,64.8333 255.5,66.5C 247.833,73.5 240.5,80.8333 233.5,88.5C 232.655,87.3285 231.989,85.9952 231.5,84.5C 239.5,76.8333 247.5,69.1667 255.5,61.5 Z"/></g>
<g><path style="opacity:0.024" fill="#474747" d="M 35.5,61.5 C 33.1942,65.4828 30.8609,69.4828 28.5,73.5C 27.8333,73.5 27.5,73.8333 27.5,74.5C 18.1667,83.5 8.83333,92.5 -0.5,101.5C -0.5,99.8333 -0.5,98.1667 -0.5,96.5C 11.5,84.8333 23.5,73.1667 35.5,61.5 Z"/></g>
<g><path style="opacity:0.024" fill="#474747" d="M 204.5,71.5 C 205.401,72.2905 206.068,73.2905 206.5,74.5C 197.167,84.1667 187.833,93.8333 178.5,103.5C 176.833,103.5 175.167,103.5 173.5,103.5C 183.833,92.8333 194.167,82.1667 204.5,71.5 Z"/></g>
<g><path style="opacity:0.979" fill="#0c49d9" d="M 217.5,59.5 C 217.833,60.5 218.5,61.1667 219.5,61.5C 220.759,65.0246 222.759,68.0246 225.5,70.5C 225.66,72.153 226.326,73.4863 227.5,74.5C 228.833,77.8333 230.167,81.1667 231.5,84.5C 231.989,85.9952 232.655,87.3285 233.5,88.5C 234.656,92.1228 235.656,95.7894 236.5,99.5C 236.833,100.833 237.167,102.167 237.5,103.5C 238.275,107.814 238.941,112.147 239.5,116.5C 239.5,116.833 239.5,117.167 239.5,117.5C 234.11,122.894 228.444,127.894 222.5,132.5C 222.5,128.167 222.5,123.833 222.5,119.5C 222.5,117.833 222.5,116.167 222.5,114.5C 221.5,110.5 220.5,106.5 219.5,102.5C 219.167,101.167 218.833,99.8333 218.5,98.5C 217.168,94.8382 215.835,91.1715 214.5,87.5C 214.068,86.2905 213.401,85.2905 212.5,84.5C 210.988,80.7991 208.988,77.4658 206.5,74.5C 206.068,73.2905 205.401,72.2905 204.5,71.5C 204.5,71.1667 204.5,70.8333 204.5,70.5C 209.107,67.2317 213.441,63.5651 217.5,59.5 Z"/></g>
<g><path style="opacity:0.97" fill="#0c49d8" d="M 47.5,74.5 C 43.026,82.4508 39.3593,90.7841 36.5,99.5C 35.4336,101.701 34.767,104.035 34.5,106.5C 34.6716,107.492 34.3382,108.158 33.5,108.5C 28.3899,113.097 23.0566,118.264 17.5,124C 16.9056,124.464 16.2389,124.631 15.5,124.5C 15.5,123.5 15.5,122.5 15.5,121.5C 15.4372,115.731 16.1039,110.064 17.5,104.5C 17.4326,103.041 17.7659,101.708 18.5,100.5C 19.1174,100.611 19.6174,100.944 20,101.5C 29.035,92.2977 38.2016,83.2977 47.5,74.5 Z"/></g>
<g><path style="opacity:0.024" fill="#474747" d="M 255.5,81.5 C 255.5,83.1667 255.5,84.8333 255.5,86.5C 249.5,92.1667 243.5,97.8333 237.5,103.5C 237.167,102.167 236.833,100.833 236.5,99.5C 242.833,93.5 249.167,87.5 255.5,81.5 Z"/></g>
<g><path style="opacity:0.024" fill="#474748" d="M 212.5,84.5 C 213.401,85.2905 214.068,86.2905 214.5,87.5C 200.833,100.833 187.167,114.167 173.5,127.5C 173.517,125.435 173.85,123.435 174.5,121.5C 175.5,121.167 176.167,120.5 176.5,119.5C 180.5,118.833 182.833,116.5 183.5,112.5C 193.167,103.167 202.833,93.8333 212.5,84.5 Z"/></g>
<g><path style="opacity:0.991" fill="#0c49d8" d="M 149.5,85.5 C 149.833,85.5 150.167,85.5 150.5,85.5C 150.833,86.8333 151.167,88.1667 151.5,89.5C 151.627,94.255 150.294,98.5883 147.5,102.5C 149.396,103.466 151.396,103.799 153.5,103.5C 154.833,103.5 156.167,103.5 157.5,103.5C 152.5,108.833 147.5,114.167 142.5,119.5C 142.167,119.5 141.833,119.5 141.5,119.5C 138.298,119.537 136.632,121.203 136.5,124.5C 135.167,127.833 132.833,130.167 129.5,131.5C 128.167,131.5 126.833,131.5 125.5,131.5C 121.294,130.116 119.294,127.116 119.5,122.5C 119.715,120.821 119.048,119.821 117.5,119.5C 127.798,108.702 138.298,98.0349 149,87.5C 149.464,86.9056 149.631,86.2389 149.5,85.5 Z"/></g>
<g><path style="opacity:0.024" fill="#474747" d="M 18.5,98.5 C 18.5,99.1667 18.5,99.8333 18.5,100.5C 17.7659,101.708 17.4326,103.041 17.5,104.5C 11.5,110.167 5.5,115.833 -0.5,121.5C -0.5,119.833 -0.5,118.167 -0.5,116.5C 5.83333,110.5 12.1667,104.5 18.5,98.5 Z"/></g>
<g><path style="opacity:0.024" fill="#474747" d="M 218.5,98.5 C 218.833,99.8333 219.167,101.167 219.5,102.5C 202.833,118.833 186.167,135.167 169.5,151.5C 169.517,149.435 169.85,147.435 170.5,145.5C 186.5,129.833 202.5,114.167 218.5,98.5 Z"/></g>
<g><path style="opacity:0.024" fill="#474747" d="M 255.5,101.5 C 255.5,103.167 255.5,104.833 255.5,106.5C 250.167,111.5 244.833,116.5 239.5,121.5C 239.5,120.167 239.5,118.833 239.5,117.5C 239.5,117.167 239.5,116.833 239.5,116.5C 244.833,111.5 250.167,106.5 255.5,101.5 Z"/></g>
<g><path style="opacity:0.993" fill="#0c49d9" d="M 149.5,85.5 C 149.631,86.2389 149.464,86.9056 149,87.5C 138.298,98.0349 127.798,108.702 117.5,119.5C 117.167,119.5 116.833,119.5 116.5,119.5C 111.5,119.5 106.5,119.5 101.5,119.5C 100.167,119.5 98.8333,119.5 97.5,119.5C 97.2627,120.791 97.596,121.791 98.5,122.5C 98.5,123.167 98.5,123.833 98.5,124.5C 93.5,128.5 88.5,132.5 83.5,136.5C 83.1667,135.833 82.8333,135.167 82.5,134.5C 81.9412,130.147 81.2745,125.814 80.5,121.5C 79.8166,119.824 78.4832,119.157 76.5,119.5C 72.5275,117.897 70.8608,114.897 71.5,110.5C 72.1667,106.5 74.5,104.167 78.5,103.5C 83.5,103.5 88.5,103.5 93.5,103.5C 95.1667,103.5 96.8333,103.5 98.5,103.5C 103.5,103.5 108.5,103.5 113.5,103.5C 115.167,103.5 116.833,103.5 118.5,103.5C 121.518,103.665 124.518,103.498 127.5,103C 131.164,97.5047 134.164,91.6714 136.5,85.5C 137.167,85.5 137.5,85.1667 137.5,84.5C 141.794,82.8744 145.794,83.2077 149.5,85.5 Z"/></g>
<g><path style="opacity:0.98" fill="#0c49d8" d="M 157.5,103.5 C 157.833,103.5 158.167,103.5 158.5,103.5C 163.5,103.5 168.5,103.5 173.5,103.5C 175.167,103.5 176.833,103.5 178.5,103.5C 182.473,105.103 184.139,108.103 183.5,112.5C 182.833,116.5 180.5,118.833 176.5,119.5C 175.167,119.5 174.5,120.167 174.5,121.5C 173.85,123.435 173.517,125.435 173.5,127.5C 173.567,128.959 173.234,130.292 172.5,131.5C 171.883,131.389 171.383,131.056 171,130.5C 165.576,136.431 159.742,141.764 153.5,146.5C 153.5,145.5 153.5,144.5 153.5,143.5C 154.5,137.5 155.5,131.5 156.5,125.5C 157.291,123.309 157.291,121.309 156.5,119.5C 151.833,119.5 147.167,119.5 142.5,119.5C 147.5,114.167 152.5,108.833 157.5,103.5 Z"/></g>
<g><path style="opacity:0.985" fill="#0c49d8" d="M 33.5,108.5 C 32.8363,113.473 32.5029,118.473 32.5,123.5C 31.506,125.334 31.506,127.001 32.5,128.5C 32.2834,133.23 32.6167,137.897 33.5,142.5C 33.2322,144.099 33.5655,145.432 34.5,146.5C 35.5853,150.76 36.252,155.094 36.5,159.5C 35.7726,163.377 33.4393,165.71 29.5,166.5C 25.4532,166.645 22.4532,164.978 20.5,161.5C 20.1667,160.167 19.8333,158.833 19.5,157.5C 17.9958,153.652 16.9958,149.652 16.5,145.5C 16.7678,143.901 16.4345,142.568 15.5,141.5C 15.5,136.5 15.5,131.5 15.5,126.5C 15.5,125.833 15.5,125.167 15.5,124.5C 16.2389,124.631 16.9056,124.464 17.5,124C 23.0566,118.264 28.3899,113.097 33.5,108.5 Z"/></g>
<g><path style="opacity:0.024" fill="#474747" d="M 222.5,114.5 C 222.5,116.167 222.5,117.833 222.5,119.5C 176.833,164.5 131.5,209.833 86.5,255.5C 84.8333,255.5 83.1667,255.5 81.5,255.5C 128.167,208.167 175.167,161.167 222.5,114.5 Z"/></g>
<g><path style="opacity:0.024" fill="#474747" d="M 76.5,119.5 C 78.4832,119.157 79.8166,119.824 80.5,121.5C 53.5,148.167 26.5,174.833 -0.5,201.5C -0.5,199.833 -0.5,198.167 -0.5,196.5C 9.83333,186.833 19.8333,176.833 29.5,166.5C 33.4393,165.71 35.7726,163.377 36.5,159.5C 50.1667,146.5 63.5,133.167 76.5,119.5 Z"/></g>
<g><path style="opacity:0.024" fill="#4a4a4a" d="M 101.5,119.5 C 100.833,120.833 99.8333,121.833 98.5,122.5C 97.596,121.791 97.2627,120.791 97.5,119.5C 98.8333,119.5 100.167,119.5 101.5,119.5 Z"/></g>
<g><path style="opacity:0.024" fill="#474747" d="M 116.5,119.5 C 116.833,119.5 117.167,119.5 117.5,119.5C 119.048,119.821 119.715,120.821 119.5,122.5C 113.167,128.167 107.167,134.167 101.5,140.5C 100.549,139.081 100.216,137.415 100.5,135.5C 106.167,130.5 111.5,125.167 116.5,119.5 Z"/></g>
<g><path style="opacity:0.024" fill="#444648" d="M 141.5,119.5 C 140.167,121.5 138.5,123.167 136.5,124.5C 136.632,121.203 138.298,119.537 141.5,119.5 Z"/></g>
<g><path style="opacity:0.024" fill="#474747" d="M 156.5,119.5 C 157.291,121.309 157.291,123.309 156.5,125.5C 147.5,133.833 138.833,142.5 130.5,151.5C 130.167,151.5 129.833,151.5 129.5,151.5C 128.167,151.5 126.833,151.5 125.5,151.5C 135.833,140.833 146.167,130.167 156.5,119.5 Z"/></g>
<g><path style="opacity:0.981" fill="#0c49d8" d="M 239.5,117.5 C 239.5,118.833 239.5,120.167 239.5,121.5C 239.5,126.5 239.5,131.5 239.5,136.5C 239.5,138.167 239.5,139.833 239.5,141.5C 239.167,142.167 238.833,142.833 238.5,143.5C 231.446,150.558 224.112,157.225 216.5,163.5C 216.833,162.167 217.167,160.833 217.5,159.5C 219.674,152.964 221.341,146.297 222.5,139.5C 222.5,137.833 222.5,136.167 222.5,134.5C 222.5,133.833 222.5,133.167 222.5,132.5C 228.444,127.894 234.11,122.894 239.5,117.5 Z"/></g>
<g><path style="opacity:0.024" fill="#474747" d="M 15.5,121.5 C 15.5,122.5 15.5,123.5 15.5,124.5C 15.5,125.167 15.5,125.833 15.5,126.5C 10.1667,131.5 4.83333,136.5 -0.5,141.5C -0.5,139.833 -0.5,138.167 -0.5,136.5C 4.83333,131.5 10.1667,126.5 15.5,121.5 Z"/></g>
<g><path style="opacity:0.024" fill="#474747" d="M 255.5,121.5 C 255.5,123.167 255.5,124.833 255.5,126.5C 250.167,131.5 244.833,136.5 239.5,141.5C 239.5,139.833 239.5,138.167 239.5,136.5C 244.833,131.5 250.167,126.5 255.5,121.5 Z"/></g>
<g><path style="opacity:0.982" fill="#0c49d8" d="M 98.5,124.5 C 98.848,128.258 99.5147,131.924 100.5,135.5C 100.216,137.415 100.549,139.081 101.5,140.5C 101.724,144.179 102.058,147.846 102.5,151.5C 103.5,151.5 104.5,151.5 105.5,151.5C 107.167,151.5 108.833,151.5 110.5,151.5C 115.5,151.5 120.5,151.5 125.5,151.5C 126.833,151.5 128.167,151.5 129.5,151.5C 124.5,156.833 119.5,162.167 114.5,167.5C 114.167,167.5 113.833,167.5 113.5,167.5C 111.833,167.5 110.167,167.5 108.5,167.5C 103.5,167.5 98.5,167.5 93.5,167.5C 92.1667,167.167 90.8333,166.833 89.5,166.5C 87.4893,163.131 86.4893,159.464 86.5,155.5C 85.7659,154.292 85.4326,152.959 85.5,151.5C 84.7255,147.186 84.0588,142.853 83.5,138.5C 83.5,137.833 83.5,137.167 83.5,136.5C 88.5,132.5 93.5,128.5 98.5,124.5 Z"/></g>
<g><path style="opacity:0.993" fill="#0c49d9" d="M 172.5,131.5 C 172.05,136.202 171.383,140.868 170.5,145.5C 169.85,147.435 169.517,149.435 169.5,151.5C 169.08,156.355 167.913,161.022 166,165.5C 162.078,167.312 157.911,167.979 153.5,167.5C 151.833,167.5 150.167,167.5 148.5,167.5C 143.5,167.5 138.5,167.5 133.5,167.5C 131.833,167.5 130.167,167.5 128.5,167.5C 123.833,167.5 119.167,167.5 114.5,167.5C 119.5,162.167 124.5,156.833 129.5,151.5C 129.833,151.5 130.167,151.5 130.5,151.5C 135.5,151.5 140.5,151.5 145.5,151.5C 147.167,151.5 148.833,151.5 150.5,151.5C 151.833,151.5 152.5,150.833 152.5,149.5C 152.263,148.209 152.596,147.209 153.5,146.5C 159.742,141.764 165.576,136.431 171,130.5C 171.383,131.056 171.883,131.389 172.5,131.5 Z"/></g>
<g><path style="opacity:0.024" fill="#474747" d="M 125.5,131.5 C 126.833,131.5 128.167,131.5 129.5,131.5C 123.167,138.167 116.833,144.833 110.5,151.5C 108.833,151.5 107.167,151.5 105.5,151.5C 111.833,144.5 118.5,137.833 125.5,131.5 Z"/></g>
<g><path style="opacity:0.024" fill="#474747" d="M 82.5,134.5 C 82.8333,135.167 83.1667,135.833 83.5,136.5C 83.5,137.167 83.5,137.833 83.5,138.5C 55.5,166.167 27.5,193.833 -0.5,221.5C -0.5,219.833 -0.5,218.167 -0.5,216.5C 27.1667,189.167 54.8333,161.833 82.5,134.5 Z"/></g>
<g><path style="opacity:0.024" fill="#474747" d="M 222.5,134.5 C 222.5,136.167 222.5,137.833 222.5,139.5C 194.5,166.833 166.833,194.5 139.5,222.5C 137.833,222.5 136.167,222.5 134.5,222.5C 163.5,192.833 192.833,163.5 222.5,134.5 Z"/></g>
<g><path style="opacity:0.024" fill="#474747" d="M 15.5,141.5 C 16.4345,142.568 16.7678,143.901 16.5,145.5C 10.8333,150.833 5.16667,156.167 -0.5,161.5C -0.5,159.833 -0.5,158.167 -0.5,156.5C 4.83333,151.5 10.1667,146.5 15.5,141.5 Z"/></g>
<g><path style="opacity:0.024" fill="#464747" d="M 255.5,141.5 C 255.5,143.167 255.5,144.833 255.5,146.5C 247.833,153.833 240.167,161.167 232.5,168.5C 233.108,165.673 234.108,163.007 235.5,160.5C 242.167,154.167 248.833,147.833 255.5,141.5 Z"/></g>
<g><path style="opacity:0.024" fill="#474747" d="M 153.5,143.5 C 153.5,144.5 153.5,145.5 153.5,146.5C 152.596,147.209 152.263,148.209 152.5,149.5C 151.5,149.833 150.833,150.5 150.5,151.5C 148.833,151.5 147.167,151.5 145.5,151.5C 147.833,148.5 150.5,145.833 153.5,143.5 Z"/></g>
<g><path style="opacity:0.985" fill="#0c49d8" d="M 238.5,143.5 C 237.886,149.238 236.886,154.905 235.5,160.5C 234.108,163.007 233.108,165.673 232.5,168.5C 231.89,169.391 231.557,170.391 231.5,171.5C 211.585,189.913 192.085,208.913 173,228.5C 172.536,229.094 172.369,229.761 172.5,230.5C 171.329,231.345 169.995,232.011 168.5,232.5C 165.673,233.108 163.007,234.108 160.5,235.5C 154.139,236.839 147.805,238.172 141.5,239.5C 139.833,239.5 138.167,239.5 136.5,239.5C 131.737,239.774 127.07,239.441 122.5,238.5C 122.167,237.5 121.5,236.833 120.5,236.5C 119.086,232.792 119.253,229.125 121,225.5C 125.225,223.421 129.725,222.421 134.5,222.5C 136.167,222.5 137.833,222.5 139.5,222.5C 146.297,221.341 152.964,219.674 159.5,217.5C 162.622,216.439 165.622,215.105 168.5,213.5C 169.167,213.5 169.5,213.167 169.5,212.5C 185.899,204.608 199.066,192.941 209,177.5C 210.454,174.929 211.62,172.262 212.5,169.5C 213.167,169.5 213.5,169.167 213.5,168.5C 214.263,166.632 215.263,164.965 216.5,163.5C 224.112,157.225 231.446,150.558 238.5,143.5 Z"/></g>
<g><path style="opacity:0.024" fill="#474747" d="M 85.5,151.5 C 85.4326,152.959 85.7659,154.292 86.5,155.5C 79.5,161.833 72.8333,168.5 66.5,175.5C 64.8333,175.5 63.1667,175.5 61.5,175.5C 69.1667,167.167 77.1667,159.167 85.5,151.5 Z"/></g>
<g><path style="opacity:0.024" fill="#464747" d="M 19.5,157.5 C 19.8333,158.833 20.1667,160.167 20.5,161.5C 13.5,168.167 6.5,174.833 -0.5,181.5C -0.5,179.833 -0.5,178.167 -0.5,176.5C 6.16667,170.167 12.8333,163.833 19.5,157.5 Z"/></g>
<g><path style="opacity:0.024" fill="#474748" d="M 217.5,159.5 C 217.167,160.833 216.833,162.167 216.5,163.5C 215.263,164.965 214.263,166.632 213.5,168.5C 212.833,168.5 212.5,168.833 212.5,169.5C 197.833,183.5 183.5,197.833 169.5,212.5C 168.833,212.5 168.5,212.833 168.5,213.5C 165.622,215.105 162.622,216.439 159.5,217.5C 178.5,197.833 197.833,178.5 217.5,159.5 Z"/></g>
<g><path style="opacity:0.024" fill="#474747" d="M 255.5,161.5 C 255.5,163.167 255.5,164.833 255.5,166.5C 225.5,195.833 195.833,225.5 166.5,255.5C 164.833,255.5 163.167,255.5 161.5,255.5C 192.5,223.833 223.833,192.5 255.5,161.5 Z"/></g>
<g><path style="opacity:0.024" fill="#474747" d="M 89.5,166.5 C 90.8333,166.833 92.1667,167.167 93.5,167.5C 86.5,175.167 79.1667,182.5 71.5,189.5C 71.5,188.167 71.5,186.833 71.5,185.5C 71.5,185.167 71.5,184.833 71.5,184.5C 77.8333,178.833 83.8333,172.833 89.5,166.5 Z"/></g>
<g><path style="opacity:0.024" fill="#474747" d="M 108.5,167.5 C 110.167,167.5 111.833,167.5 113.5,167.5C 103.167,178.167 92.8333,188.833 82.5,199.5C 82.1667,199.5 81.8333,199.5 81.5,199.5C 80.1667,199.5 78.8333,199.5 77.5,199.5C 87.8333,188.833 98.1667,178.167 108.5,167.5 Z"/></g>
<g><path style="opacity:0.024" fill="#474747" d="M 128.5,167.5 C 130.167,167.5 131.833,167.5 133.5,167.5C 121.167,180.5 108.5,193.167 95.5,205.5C 95.1667,204.167 94.8333,202.833 94.5,201.5C 106.167,190.5 117.5,179.167 128.5,167.5 Z"/></g>
<g><path style="opacity:0.024" fill="#474747" d="M 148.5,167.5 C 150.167,167.5 151.833,167.5 153.5,167.5C 124.5,196.833 95.5,226.167 66.5,255.5C 64.8333,255.5 63.1667,255.5 61.5,255.5C 90.5,226.167 119.5,196.833 148.5,167.5 Z"/></g>
<g><path style="opacity:0.976" fill="#0c49da" d="M 231.5,171.5 C 219.478,198.855 199.812,218.522 172.5,230.5C 172.369,229.761 172.536,229.094 173,228.5C 192.085,208.913 211.585,189.913 231.5,171.5 Z"/></g>
<g><path style="opacity:0.992" fill="#20befb" d="M 61.5,175.5 C 63.1667,175.5 64.8333,175.5 66.5,175.5C 70.4725,177.103 72.1392,180.103 71.5,184.5C 71.5,184.833 71.5,185.167 71.5,185.5C 61.1667,195.167 51.1667,205.167 41.5,215.5C 41.1667,215.5 40.8333,215.5 40.5,215.5C 36.1035,216.139 33.1035,214.473 31.5,210.5C 31.5,208.833 31.5,207.167 31.5,205.5C 31.8333,201.833 33.8333,199.833 37.5,199.5C 39.1667,199.5 40.8333,199.5 42.5,199.5C 46.8333,199.5 51.1667,199.5 55.5,199.5C 55.5,195.167 55.5,190.833 55.5,186.5C 55.5,184.833 55.5,183.167 55.5,181.5C 55.8333,177.833 57.8333,175.833 61.5,175.5 Z"/></g>
<g><path style="opacity:0.024" fill="#474747" d="M 55.5,181.5 C 55.5,183.167 55.5,184.833 55.5,186.5C 50.8333,190.5 46.5,194.833 42.5,199.5C 40.8333,199.5 39.1667,199.5 37.5,199.5C 43.1667,193.167 49.1667,187.167 55.5,181.5 Z"/></g>
<g><path style="opacity:0.024" fill="#474747" d="M 255.5,181.5 C 255.5,183.167 255.5,184.833 255.5,186.5C 232.167,209.167 209.167,232.167 186.5,255.5C 184.833,255.5 183.167,255.5 181.5,255.5C 205.833,230.5 230.5,205.833 255.5,181.5 Z"/></g>
<g><path style="opacity:1" fill="#20bdfa" d="M 71.5,185.5 C 71.5,186.833 71.5,188.167 71.5,189.5C 71.5,192.833 71.5,196.167 71.5,199.5C 73.5,199.5 75.5,199.5 77.5,199.5C 78.8333,199.5 80.1667,199.5 81.5,199.5C 73.1667,208.5 64.5,217.167 55.5,225.5C 55.5,224.167 55.5,222.833 55.5,221.5C 55.5,219.5 55.5,217.5 55.5,215.5C 52.1667,215.5 48.8333,215.5 45.5,215.5C 44.1667,215.5 42.8333,215.5 41.5,215.5C 51.1667,205.167 61.1667,195.167 71.5,185.5 Z"/></g>
<g><path style="opacity:0.995" fill="#20befb" d="M 81.5,199.5 C 81.8333,199.5 82.1667,199.5 82.5,199.5C 86.7424,199.079 90.7424,199.746 94.5,201.5C 94.8333,202.833 95.1667,204.167 95.5,205.5C 96.5,213.167 93.1667,216.5 85.5,215.5C 83.8333,215.5 82.1667,215.5 80.5,215.5C 77.5,215.5 74.5,215.5 71.5,215.5C 71.5,218.5 71.5,221.5 71.5,224.5C 71.5,226.167 71.5,227.833 71.5,229.5C 72.5,237.167 69.1667,240.5 61.5,239.5C 60.1667,239.167 58.8333,238.833 57.5,238.5C 55.7459,234.742 55.0792,230.742 55.5,226.5C 55.5,226.167 55.5,225.833 55.5,225.5C 64.5,217.167 73.1667,208.5 81.5,199.5 Z"/></g>
<g><path style="opacity:0.024" fill="#474747" d="M 255.5,201.5 C 255.5,203.167 255.5,204.833 255.5,206.5C 238.833,222.5 222.5,238.833 206.5,255.5C 204.833,255.5 203.167,255.5 201.5,255.5C 219.167,237.167 237.167,219.167 255.5,201.5 Z"/></g>
<g><path style="opacity:0.024" fill="#474747" d="M 31.5,205.5 C 31.5,207.167 31.5,208.833 31.5,210.5C 20.8333,220.833 10.1667,231.167 -0.5,241.5C -0.5,239.833 -0.5,238.167 -0.5,236.5C 10.1667,226.167 20.8333,215.833 31.5,205.5 Z"/></g>
<g><path style="opacity:0.024" fill="#474747" d="M 40.5,215.5 C 40.8333,215.5 41.1667,215.5 41.5,215.5C 42.8333,215.5 44.1667,215.5 45.5,215.5C 32.5,228.833 19.5,242.167 6.5,255.5C 4.83333,255.5 3.16667,255.5 1.5,255.5C 14.5,242.167 27.5,228.833 40.5,215.5 Z"/></g>
<g><path style="opacity:0.024" fill="#474747" d="M 80.5,215.5 C 82.1667,215.5 83.8333,215.5 85.5,215.5C 81.1667,220.5 76.5,225.167 71.5,229.5C 71.5,227.833 71.5,226.167 71.5,224.5C 74.8333,221.833 77.8333,218.833 80.5,215.5 Z"/></g>
<g><path style="opacity:0.024" fill="#474747" d="M 55.5,221.5 C 55.5,222.833 55.5,224.167 55.5,225.5C 55.5,225.833 55.5,226.167 55.5,226.5C 45.5,235.833 35.8333,245.5 26.5,255.5C 24.8333,255.5 23.1667,255.5 21.5,255.5C 32.5,243.833 43.8333,232.5 55.5,221.5 Z"/></g>
<g><path style="opacity:0.024" fill="#474747" d="M 255.5,221.5 C 255.5,223.167 255.5,224.833 255.5,226.5C 245.5,235.833 235.833,245.5 226.5,255.5C 224.833,255.5 223.167,255.5 221.5,255.5C 232.5,243.833 243.833,232.5 255.5,221.5 Z"/></g>
<g><path style="opacity:0.024" fill="#474747" d="M 168.5,232.5 C 161.167,240.167 153.833,247.833 146.5,255.5C 144.833,255.5 143.167,255.5 141.5,255.5C 147.833,248.833 154.167,242.167 160.5,235.5C 163.007,234.108 165.673,233.108 168.5,232.5 Z"/></g>
<g><path style="opacity:0.024" fill="#464748" d="M 120.5,236.5 C 121.5,236.833 122.167,237.5 122.5,238.5C 117.167,244.167 111.833,249.833 106.5,255.5C 104.833,255.5 103.167,255.5 101.5,255.5C 107.5,248.833 113.833,242.5 120.5,236.5 Z"/></g>
<g><path style="opacity:0.024" fill="#474747" d="M 57.5,238.5 C 58.8333,238.833 60.1667,239.167 61.5,239.5C 56.5,244.833 51.5,250.167 46.5,255.5C 44.8333,255.5 43.1667,255.5 41.5,255.5C 46.8333,249.833 52.1667,244.167 57.5,238.5 Z"/></g>
<g><path style="opacity:0.024" fill="#474747" d="M 136.5,239.5 C 138.167,239.5 139.833,239.5 141.5,239.5C 136.5,244.833 131.5,250.167 126.5,255.5C 124.833,255.5 123.167,255.5 121.5,255.5C 126.5,250.167 131.5,244.833 136.5,239.5 Z"/></g>
<g><path style="opacity:0.024" fill="#474747" d="M 255.5,241.5 C 255.5,243.167 255.5,244.833 255.5,246.5C 252.167,249.167 249.167,252.167 246.5,255.5C 244.833,255.5 243.167,255.5 241.5,255.5C 245.833,250.5 250.5,245.833 255.5,241.5 Z"/></g>
</svg>
