<?xml version="1.0" encoding="UTF-8"?>
<!DOCTYPE svg PUBLIC "-//W3C//DTD SVG 1.1//EN" "http://www.w3.org/Graphics/SVG/1.1/DTD/svg11.dtd">
<svg xmlns="http://www.w3.org/2000/svg" version="1.1" width="256px" height="256px" style="shape-rendering:geometricPrecision; text-rendering:geometricPrecision; image-rendering:optimizeQuality; fill-rule:evenodd; clip-rule:evenodd" xmlns:xlink="http://www.w3.org/1999/xlink">
<g><path style="opacity:0.02" fill="#3b3b3b" d="M -0.5,-0.5 C 0.166667,-0.5 0.833333,-0.5 1.5,-0.5C 1.16667,0.5 0.5,1.16667 -0.5,1.5C -0.5,0.833333 -0.5,0.166667 -0.5,-0.5 Z"/></g>
<g><path style="opacity:0.024" fill="#474747" d="M 16.5,-0.5 C 18.1667,-0.5 19.8333,-0.5 21.5,-0.5C 14.5,7.16667 7.16667,14.5 -0.5,21.5C -0.5,19.8333 -0.5,18.1667 -0.5,16.5C 5.5,11.1667 11.1667,5.5 16.5,-0.5 Z"/></g>
<g><path style="opacity:0.024" fill="#474747" d="M 36.5,-0.5 C 38.1667,-0.5 39.8333,-0.5 41.5,-0.5C 27.8333,13.8333 13.8333,27.8333 -0.5,41.5C -0.5,39.8333 -0.5,38.1667 -0.5,36.5C 12.1667,24.5 24.5,12.1667 36.5,-0.5 Z"/></g>
<g><path style="opacity:0.024" fill="#474747" d="M 56.5,-0.5 C 58.1667,-0.5 59.8333,-0.5 61.5,-0.5C 41.1667,20.5 20.5,41.1667 -0.5,61.5C -0.5,59.8333 -0.5,58.1667 -0.5,56.5C 18.8333,37.8333 37.8333,18.8333 56.5,-0.5 Z"/></g>
<g><path style="opacity:0.024" fill="#474747" d="M 76.5,-0.5 C 78.1667,-0.5 79.8333,-0.5 81.5,-0.5C 54.5,27.1667 27.1667,54.5 -0.5,81.5C -0.5,79.8333 -0.5,78.1667 -0.5,76.5C 25.5,51.1667 51.1667,25.5 76.5,-0.5 Z"/></g>
<g><path style="opacity:0.024" fill="#474747" d="M 96.5,-0.5 C 98.1667,-0.5 99.8333,-0.5 101.5,-0.5C 67.8333,33.8333 33.8333,67.8333 -0.5,101.5C -0.5,99.8333 -0.5,98.1667 -0.5,96.5C 32.1667,64.5 64.5,32.1667 96.5,-0.5 Z"/></g>
<g><path style="opacity:0.024" fill="#474747" d="M 116.5,-0.5 C 118.167,-0.5 119.833,-0.5 121.5,-0.5C 113.833,7.5 106.167,15.5 98.5,23.5C 97.8333,23.5 97.5,23.8333 97.5,24.5C 96.8333,24.5 96.5,24.8333 96.5,25.5C 95.8333,25.5 95.5,25.8333 95.5,26.5C 94.8333,26.5 94.5,26.8333 94.5,27.5C 93.8333,27.5 93.5,27.8333 93.5,28.5C 92.8333,28.5 92.5,28.8333 92.5,29.5C 91.8333,29.5 91.5,29.8333 91.5,30.5C 90.8333,30.5 90.5,30.8333 90.5,31.5C 89.8333,31.5 89.5,31.8333 89.5,32.5C 88.8333,32.5 88.5,32.8333 88.5,33.5C 87.8333,33.5 87.5,33.8333 87.5,34.5C 77.5,43.8333 67.8333,53.5 58.5,63.5C 56.8333,63.5 55.1667,63.5 53.5,63.5C 74.5,42.1667 95.5,20.8333 116.5,-0.5 Z"/></g>
<g><path style="opacity:0.024" fill="#474747" d="M 136.5,-0.5 C 138.167,-0.5 139.833,-0.5 141.5,-0.5C 136.5,4.83333 131.5,10.1667 126.5,15.5C 124.833,15.5 123.167,15.5 121.5,15.5C 126.5,10.1667 131.5,4.83333 136.5,-0.5 Z"/></g>
<g><path style="opacity:0.024" fill="#474747" d="M 156.5,-0.5 C 158.167,-0.5 159.833,-0.5 161.5,-0.5C 155.833,5.5 150.167,11.5 144.5,17.5C 143.041,17.5674 141.708,17.2341 140.5,16.5C 145.833,10.8333 151.167,5.16667 156.5,-0.5 Z"/></g>
<g><path style="opacity:0.024" fill="#474747" d="M 176.5,-0.5 C 178.167,-0.5 179.833,-0.5 181.5,-0.5C 173.5,7.83333 165.5,16.1667 157.5,24.5C 155.973,24.573 154.973,23.9063 154.5,22.5C 161.833,14.8333 169.167,7.16667 176.5,-0.5 Z"/></g>
<g><path style="opacity:0.024" fill="#474747" d="M 196.5,-0.5 C 198.167,-0.5 199.833,-0.5 201.5,-0.5C 190.167,11.1667 178.833,22.8333 167.5,34.5C 166.167,33.8333 165.167,32.8333 164.5,31.5C 175.5,21.1667 186.167,10.5 196.5,-0.5 Z"/></g>
<g><path style="opacity:0.024" fill="#474747" d="M 216.5,-0.5 C 218.167,-0.5 219.833,-0.5 221.5,-0.5C 205.833,15.8333 189.833,31.8333 173.5,47.5C 172.766,46.2921 172.433,44.9587 172.5,43.5C 187.5,29.1667 202.167,14.5 216.5,-0.5 Z"/></g>
<g><path style="opacity:0.024" fill="#474747" d="M 236.5,-0.5 C 238.167,-0.5 239.833,-0.5 241.5,-0.5C 220.5,20.8333 199.5,42.1667 178.5,63.5C 178.167,63.5 177.833,63.5 177.5,63.5C 175.952,63.1788 175.285,62.1788 175.5,60.5C 196.167,40.5 216.5,20.1667 236.5,-0.5 Z"/></g>
<g><path style="opacity:0.024" fill="#474747" d="M 255.5,1.5 C 255.5,3.16667 255.5,4.83333 255.5,6.5C 236.167,25.1667 217.167,44.1667 198.5,63.5C 196.833,63.5 195.167,63.5 193.5,63.5C 213.833,42.5 234.5,21.8333 255.5,1.5 Z"/></g>
<g><path style="opacity:0.987" fill="#0c49d8" d="M 119.5,15.5 C 120.167,15.5 120.833,15.5 121.5,15.5C 123.167,15.5 124.833,15.5 126.5,15.5C 131.214,15.3531 135.881,15.6864 140.5,16.5C 141.708,17.2341 143.041,17.5674 144.5,17.5C 144.5,17.8333 144.5,18.1667 144.5,18.5C 138.833,22.1667 134.167,26.8333 130.5,32.5C 129.833,32.5 129.167,32.5 128.5,32.5C 127.065,31.9035 125.398,31.9035 123.5,32.5C 108.167,35.1667 99.1667,44.1667 96.5,59.5C 96.1667,61.5 95.8333,63.5 95.5,65.5C 95.5,70.5 95.5,75.5 95.5,80.5C 95.5,82.1667 95.5,83.8333 95.5,85.5C 96.5,93.1667 93.1667,96.5 85.5,95.5C 84.1667,95.1667 82.8333,94.8333 81.5,94.5C 79.7459,90.7424 79.0792,86.7424 79.5,82.5C 79.5,81.5 79.5,80.5 79.5,79.5C 78.5,79.5 77.5,79.5 76.5,79.5C 72.1667,79.5 67.8333,79.5 63.5,79.5C 63.0618,79.5654 62.7284,79.3988 62.5,79C 67.7031,73.9646 72.7031,68.798 77.5,63.5C 77.8333,63.5 78.1667,63.5 78.5,63.5C 79.1667,63.5 79.5,63.1667 79.5,62.5C 79.5,60.8333 79.5,59.1667 79.5,57.5C 79.2322,55.901 79.5655,54.5676 80.5,53.5C 80.369,54.2389 80.5357,54.9056 81,55.5C 94.4222,42.5808 107.256,29.2474 119.5,15.5 Z"/></g>
<g><path style="opacity:0.971" fill="#0c49da" d="M 119.5,15.5 C 107.256,29.2474 94.4222,42.5808 81,55.5C 80.5357,54.9056 80.369,54.2389 80.5,53.5C 81.4577,46.6234 83.7911,40.2901 87.5,34.5C 88.1667,34.5 88.5,34.1667 88.5,33.5C 89.1667,33.5 89.5,33.1667 89.5,32.5C 90.1667,32.5 90.5,32.1667 90.5,31.5C 91.1667,31.5 91.5,31.1667 91.5,30.5C 92.1667,30.5 92.5,30.1667 92.5,29.5C 92.5,28.8333 92.8333,28.5 93.5,28.5C 94.1667,28.5 94.5,28.1667 94.5,27.5C 95.1667,27.5 95.5,27.1667 95.5,26.5C 96.1667,26.5 96.5,26.1667 96.5,25.5C 97.1667,25.5 97.5,25.1667 97.5,24.5C 98.1667,24.5 98.5,24.1667 98.5,23.5C 105.009,19.6618 112.009,16.9951 119.5,15.5 Z"/></g>
<g><path style="opacity:0.981" fill="#0c49d9" d="M 144.5,18.5 C 148.052,19.2759 151.386,20.6092 154.5,22.5C 154.973,23.9063 155.973,24.573 157.5,24.5C 159.545,26.8408 161.545,29.1741 163.5,31.5C 160.564,36.1053 156.898,40.1053 152.5,43.5C 150.116,41.1153 147.45,39.1153 144.5,37.5C 143.713,35.8958 142.38,35.2291 140.5,35.5C 137.619,33.32 134.286,32.32 130.5,32.5C 134.167,26.8333 138.833,22.1667 144.5,18.5 Z"/></g>
<g><path style="opacity:0.024" fill="#474747" d="M 255.5,21.5 C 255.5,23.1667 255.5,24.8333 255.5,26.5C 239.833,41.8333 224.167,57.1667 208.5,72.5C 207.766,71.2921 207.433,69.9587 207.5,68.5C 223.5,52.8333 239.5,37.1667 255.5,21.5 Z"/></g>
<g><path style="opacity:0.024" fill="#464748" d="M 128.5,32.5 C 117.833,43.8333 106.833,54.8333 95.5,65.5C 95.8333,63.5 96.1667,61.5 96.5,59.5C 105.833,50.8333 114.833,41.8333 123.5,32.5C 125.398,31.9035 127.065,31.9035 128.5,32.5 Z"/></g>
<g><path style="opacity:0.024" fill="#474747" d="M 140.5,35.5 C 142.38,35.2291 143.713,35.8958 144.5,37.5C 135.5,45.8333 126.833,54.5 118.5,63.5C 116.833,63.5 115.167,63.5 113.5,63.5C 122.5,54.1667 131.5,44.8333 140.5,35.5 Z"/></g>
<g><path style="opacity:0.024" fill="#474747" d="M 255.5,41.5 C 255.5,43.1667 255.5,44.8333 255.5,46.5C 240.5,61.1667 225.5,75.8333 210.5,90.5C 209.566,89.4324 209.232,88.099 209.5,86.5C 224.833,71.5 240.167,56.5 255.5,41.5 Z"/></g>
<g><path style="opacity:0.024" fill="#474747" d="M 152.5,44.5 C 153.401,45.2905 154.068,46.2905 154.5,47.5C 148.833,52.5 143.5,57.8333 138.5,63.5C 138.167,63.5 137.833,63.5 137.5,63.5C 136.167,63.5 134.833,63.5 133.5,63.5C 139.5,56.8333 145.833,50.5 152.5,44.5 Z"/></g>
<g><path style="opacity:0.995" fill="#0c49d8" d="M 163.5,31.5 C 163.833,31.5 164.167,31.5 164.5,31.5C 165.167,32.8333 166.167,33.8333 167.5,34.5C 168.917,37.669 170.583,40.669 172.5,43.5C 172.433,44.9587 172.766,46.2921 173.5,47.5C 174.91,51.7047 175.577,56.038 175.5,60.5C 175.285,62.1788 175.952,63.1788 177.5,63.5C 171.833,69.8333 165.833,75.8333 159.5,81.5C 159.179,79.9519 158.179,79.2852 156.5,79.5C 151.5,79.5 146.5,79.5 141.5,79.5C 139.833,79.5 138.167,79.5 136.5,79.5C 131.833,79.5 127.167,79.5 122.5,79.5C 127.5,74.1667 132.5,68.8333 137.5,63.5C 137.833,63.5 138.167,63.5 138.5,63.5C 143.5,63.5 148.5,63.5 153.5,63.5C 155.167,63.5 156.833,63.5 158.5,63.5C 158.5,61.8333 158.5,60.1667 158.5,58.5C 157.956,54.534 156.623,50.8674 154.5,47.5C 154.068,46.2905 153.401,45.2905 152.5,44.5C 152.5,44.1667 152.5,43.8333 152.5,43.5C 156.898,40.1053 160.564,36.1053 163.5,31.5 Z"/></g>
<g><path style="opacity:0.024" fill="#474747" d="M 79.5,57.5 C 79.5,59.1667 79.5,60.8333 79.5,62.5C 78.8333,62.5 78.5,62.8333 78.5,63.5C 78.1667,63.5 77.8333,63.5 77.5,63.5C 76.1667,63.5 74.8333,63.5 73.5,63.5C 75.1667,61.1667 77.1667,59.1667 79.5,57.5 Z"/></g>
<g><path style="opacity:0.024" fill="#474747" d="M 158.5,58.5 C 158.5,60.1667 158.5,61.8333 158.5,63.5C 156.833,63.5 155.167,63.5 153.5,63.5C 154.833,61.5 156.5,59.8333 158.5,58.5 Z"/></g>
<g><path style="opacity:0.024" fill="#474747" d="M 255.5,61.5 C 255.5,63.1667 255.5,64.8333 255.5,66.5C 240.833,80.8333 226.167,95.1667 211.5,109.5C 211.5,107.833 211.5,106.167 211.5,104.5C 226.167,90.1667 240.833,75.8333 255.5,61.5 Z"/></g>
<g><path style="opacity:0.994" fill="#0c49d8" d="M 113.5,63.5 C 115.167,63.5 116.833,63.5 118.5,63.5C 123.5,63.5 128.5,63.5 133.5,63.5C 134.833,63.5 136.167,63.5 137.5,63.5C 132.5,68.8333 127.5,74.1667 122.5,79.5C 122.167,79.5 121.833,79.5 121.5,79.5C 119.833,79.5 118.167,79.5 116.5,79.5C 112.258,79.9208 108.258,79.2541 104.5,77.5C 104.167,76.1667 103.833,74.8333 103.5,73.5C 102.5,65.8333 105.833,62.5 113.5,63.5 Z"/></g>
<g><path style="opacity:0.995" fill="#0c49d9" d="M 177.5,63.5 C 177.833,63.5 178.167,63.5 178.5,63.5C 183.167,63.5 187.833,63.5 192.5,63.5C 187.5,68.8333 182.5,74.1667 177.5,79.5C 177.167,79.5 176.833,79.5 176.5,79.5C 175.833,79.5 175.5,79.8333 175.5,80.5C 175.5,82.1667 175.5,83.8333 175.5,85.5C 176.5,93.1667 173.167,96.5 165.5,95.5C 164.167,95.1667 162.833,94.8333 161.5,94.5C 159.746,90.7424 159.079,86.7424 159.5,82.5C 159.5,82.1667 159.5,81.8333 159.5,81.5C 165.833,75.8333 171.833,69.8333 177.5,63.5 Z"/></g>
<g><path style="opacity:0.981" fill="#0c49d8" d="M 192.5,63.5 C 192.833,63.5 193.167,63.5 193.5,63.5C 195.167,63.5 196.833,63.5 198.5,63.5C 202.897,62.8608 205.897,64.5275 207.5,68.5C 207.433,69.9587 207.766,71.2921 208.5,72.5C 208.5,73.5 208.5,74.5 208.5,75.5C 207.883,75.3893 207.383,75.056 207,74.5C 202.298,79.3699 197.465,84.0366 192.5,88.5C 192.5,87.1667 192.5,85.8333 192.5,84.5C 192.579,83.0695 192.246,81.7362 191.5,80.5C 188.232,79.513 184.898,79.1796 181.5,79.5C 180.167,79.5 178.833,79.5 177.5,79.5C 182.5,74.1667 187.5,68.8333 192.5,63.5 Z"/></g>
<g><path style="opacity:0.024" fill="#474747" d="M 47.5,69.5 C 46.8505,71.4352 46.5172,73.4352 46.5,75.5C 30.8333,90.8333 15.1667,106.167 -0.5,121.5C -0.5,119.833 -0.5,118.167 -0.5,116.5C 15.5,100.833 31.5,85.1667 47.5,69.5 Z"/></g>
<g><path style="opacity:0.024" fill="#474747" d="M 103.5,73.5 C 103.833,74.8333 104.167,76.1667 104.5,77.5C 101.5,80.1667 98.5,82.8333 95.5,85.5C 95.5,83.8333 95.5,82.1667 95.5,80.5C 98.1667,78.1667 100.833,75.8333 103.5,73.5 Z"/></g>
<g><path style="opacity:0.99" fill="#0c49d8" d="M 53.5,63.5 C 55.1667,63.5 56.8333,63.5 58.5,63.5C 63.5,63.5 68.5,63.5 73.5,63.5C 74.8333,63.5 76.1667,63.5 77.5,63.5C 72.7031,68.798 67.7031,73.9646 62.5,79C 62.7284,79.3988 63.0618,79.5654 63.5,79.5C 62.7682,84.4817 62.1015,89.4817 61.5,94.5C 61.5,96.1667 61.5,97.8333 61.5,99.5C 60.637,105.127 59.9703,110.794 59.5,116.5C 59.5,117.167 59.5,117.833 59.5,118.5C 52.8886,123.774 46.5553,129.44 40.5,135.5C 41.0534,130.518 41.3867,125.518 41.5,120.5C 42.3414,118.621 42.6747,116.621 42.5,114.5C 43.1011,108.821 43.7678,103.155 44.5,97.5C 44.5,95.8333 44.5,94.1667 44.5,92.5C 45.363,86.8727 46.0297,81.206 46.5,75.5C 46.5172,73.4352 46.8505,71.4352 47.5,69.5C 47.8333,65.8333 49.8333,63.8333 53.5,63.5 Z"/></g>
<g><path style="opacity:0.024" fill="#474747" d="M 76.5,79.5 C 77.5,79.5 78.5,79.5 79.5,79.5C 79.5,80.5 79.5,81.5 79.5,82.5C 73.5,88.1667 67.5,93.8333 61.5,99.5C 61.5,97.8333 61.5,96.1667 61.5,94.5C 66.8333,89.8333 71.8333,84.8333 76.5,79.5 Z"/></g>
<g><path style="opacity:0.024" fill="#474747" d="M 116.5,79.5 C 118.167,79.5 119.833,79.5 121.5,79.5C 100.167,101.5 78.5,123.167 56.5,144.5C 56.5172,142.435 56.8505,140.435 57.5,138.5C 77.5,119.167 97.1667,99.5 116.5,79.5 Z"/></g>
<g><path style="opacity:0.024" fill="#474747" d="M 136.5,79.5 C 138.167,79.5 139.833,79.5 141.5,79.5C 112.833,108.833 83.8333,137.833 54.5,166.5C 54.5,165.5 54.5,164.5 54.5,163.5C 54.5,162.833 54.5,162.167 54.5,161.5C 55.1667,161.5 55.5,161.167 55.5,160.5C 82.8333,133.833 109.833,106.833 136.5,79.5 Z"/></g>
<g><path style="opacity:0.024" fill="#474747" d="M 156.5,79.5 C 158.179,79.2852 159.179,79.9519 159.5,81.5C 159.5,81.8333 159.5,82.1667 159.5,82.5C 143.167,98.1667 127.167,114.167 111.5,130.5C 109.833,130.5 108.167,130.5 106.5,130.5C 123.167,113.5 139.833,96.5 156.5,79.5 Z"/></g>
<g><path style="opacity:0.024" fill="#474747" d="M 176.5,79.5 C 176.833,79.5 177.167,79.5 177.5,79.5C 178.833,79.5 180.167,79.5 181.5,79.5C 179.833,81.8333 177.833,83.8333 175.5,85.5C 175.5,83.8333 175.5,82.1667 175.5,80.5C 176.167,80.5 176.5,80.1667 176.5,79.5 Z"/></g>
<g><path style="opacity:0.024" fill="#474747" d="M 255.5,81.5 C 255.5,83.1667 255.5,84.8333 255.5,86.5C 241.5,100.167 227.5,113.833 213.5,127.5C 213.5,126.167 213.5,124.833 213.5,123.5C 213.5,123.167 213.5,122.833 213.5,122.5C 227.5,108.833 241.5,95.1667 255.5,81.5 Z"/></g>
<g><path style="opacity:0.024" fill="#474747" d="M 192.5,84.5 C 192.5,85.8333 192.5,87.1667 192.5,88.5C 192.5,88.8333 192.5,89.1667 192.5,89.5C 178.167,103.167 164.167,117.167 150.5,131.5C 149.292,130.766 147.959,130.433 146.5,130.5C 161.5,114.833 176.833,99.5 192.5,84.5 Z"/></g>
<g><path style="opacity:0.968" fill="#0c49d9" d="M 208.5,75.5 C 208.942,79.1545 209.276,82.8212 209.5,86.5C 209.232,88.099 209.566,89.4324 210.5,90.5C 210.437,95.2029 210.771,99.8696 211.5,104.5C 211.5,106.167 211.5,107.833 211.5,109.5C 212.31,113.776 212.977,118.109 213.5,122.5C 213.5,122.833 213.5,123.167 213.5,123.5C 208.535,127.963 203.702,132.63 199,137.5C 198.722,136.584 198.222,135.918 197.5,135.5C 196.949,132.193 196.616,128.86 196.5,125.5C 196.784,123.585 196.451,121.919 195.5,120.5C 195.533,116.131 195.2,111.798 194.5,107.5C 194.5,105.833 194.5,104.167 194.5,102.5C 193.769,98.2031 193.102,93.8698 192.5,89.5C 192.5,89.1667 192.5,88.8333 192.5,88.5C 197.465,84.0366 202.298,79.3699 207,74.5C 207.383,75.056 207.883,75.3893 208.5,75.5 Z"/></g>
<g><path style="opacity:0.024" fill="#474747" d="M 44.5,92.5 C 44.5,94.1667 44.5,95.8333 44.5,97.5C 29.5,112.167 14.5,126.833 -0.5,141.5C -0.5,139.833 -0.5,138.167 -0.5,136.5C 14.5,121.833 29.5,107.167 44.5,92.5 Z"/></g>
<g><path style="opacity:0.024" fill="#464647" d="M 81.5,94.5 C 82.8333,94.8333 84.1667,95.1667 85.5,95.5C 76.8333,104.833 67.8333,113.833 58.5,122.5C 58.8333,121.167 59.1667,119.833 59.5,118.5C 59.5,117.833 59.5,117.167 59.5,116.5C 67.1667,109.5 74.5,102.167 81.5,94.5 Z"/></g>
<g><path style="opacity:0.024" fill="#474747" d="M 161.5,94.5 C 162.833,94.8333 164.167,95.1667 165.5,95.5C 152.5,108.833 139.5,122.167 126.5,135.5C 125.29,135.068 124.29,134.401 123.5,133.5C 136.167,120.5 148.833,107.5 161.5,94.5 Z"/></g>
<g><path style="opacity:0.024" fill="#474747" d="M 255.5,101.5 C 255.5,103.167 255.5,104.833 255.5,106.5C 242.167,119.5 228.833,132.5 215.5,145.5C 215.5,143.833 215.5,142.167 215.5,140.5C 228.833,127.5 242.167,114.5 255.5,101.5 Z"/></g>
<g><path style="opacity:0.024" fill="#474747" d="M 194.5,102.5 C 194.5,104.167 194.5,105.833 194.5,107.5C 183.5,117.833 172.833,128.5 162.5,139.5C 162.167,139.5 161.833,139.5 161.5,139.5C 161.443,138.391 161.11,137.391 160.5,136.5C 171.5,124.833 182.833,113.5 194.5,102.5 Z"/></g>
<g><path style="opacity:0.024" fill="#474747" d="M 42.5,114.5 C 42.6747,116.621 42.3414,118.621 41.5,120.5C 27.5,134.167 13.5,147.833 -0.5,161.5C -0.5,159.833 -0.5,158.167 -0.5,156.5C 13.8333,142.5 28.1667,128.5 42.5,114.5 Z"/></g>
<g><path style="opacity:0.024" fill="#474747" d="M 195.5,120.5 C 196.451,121.919 196.784,123.585 196.5,125.5C 186.833,134.833 177.167,144.167 167.5,153.5C 167.5,151.833 167.5,150.167 167.5,148.5C 177.167,139.5 186.5,130.167 195.5,120.5 Z"/></g>
<g><path style="opacity:0.024" fill="#474747" d="M 255.5,121.5 C 255.5,123.167 255.5,124.833 255.5,126.5C 242.833,138.833 230.167,151.167 217.5,163.5C 217.5,162.167 217.5,160.833 217.5,159.5C 229.833,146.5 242.5,133.833 255.5,121.5 Z"/></g>
<g><path style="opacity:0.976" fill="#0c49d8" d="M 59.5,118.5 C 59.1667,119.833 58.8333,121.167 58.5,122.5C 58.3135,127.845 57.9801,133.178 57.5,138.5C 56.8505,140.435 56.5172,142.435 56.5,144.5C 55.9022,149.813 55.5688,155.146 55.5,160.5C 54.8333,160.5 54.5,160.833 54.5,161.5C 54.5,162.167 54.5,162.833 54.5,163.5C 48.2575,168.236 42.4242,173.569 37,179.5C 36.6012,179.272 36.4346,178.938 36.5,178.5C 36.5401,173.807 36.8734,169.141 37.5,164.5C 37.5,162.833 37.5,161.167 37.5,159.5C 38.6008,153.928 39.2675,148.262 39.5,142.5C 40.1495,140.565 40.4828,138.565 40.5,136.5C 40.5,136.167 40.5,135.833 40.5,135.5C 46.5553,129.44 52.8886,123.774 59.5,118.5 Z"/></g>
<g><path style="opacity:0.977" fill="#0c49d8" d="M 213.5,123.5 C 213.5,124.833 213.5,126.167 213.5,127.5C 214.102,131.87 214.769,136.203 215.5,140.5C 215.5,142.167 215.5,143.833 215.5,145.5C 215.911,150.338 216.578,155.005 217.5,159.5C 217.5,160.833 217.5,162.167 217.5,163.5C 217.998,168.152 218.331,172.819 218.5,177.5C 218.5,177.833 218.5,178.167 218.5,178.5C 213.5,183.167 208.5,187.833 203.5,192.5C 202.96,188.358 202.294,184.358 201.5,180.5C 201.5,178.833 201.5,177.167 201.5,175.5C 200.873,170.859 200.54,166.193 200.5,161.5C 199.766,160.292 199.433,158.959 199.5,157.5C 199.167,152.833 198.833,148.167 198.5,143.5C 198.567,142.041 198.234,140.708 197.5,139.5C 197.5,138.167 197.5,136.833 197.5,135.5C 198.222,135.918 198.722,136.584 199,137.5C 203.702,132.63 208.535,127.963 213.5,123.5 Z"/></g>
<g><path style="opacity:0.987" fill="#20bdfa" d="M 106.5,130.5 C 108.167,130.5 109.833,130.5 111.5,130.5C 115.765,130.566 119.765,131.566 123.5,133.5C 124.29,134.401 125.29,135.068 126.5,135.5C 126.56,136.043 126.893,136.376 127.5,136.5C 132.64,132.045 138.64,130.045 145.5,130.5C 137.5,139.167 129.167,147.5 120.5,155.5C 119.173,152.173 116.84,149.84 113.5,148.5C 111.611,147.258 109.611,147.258 107.5,148.5C 106.833,148.5 106.5,148.833 106.5,149.5C 104.321,151.992 103.654,154.658 104.5,157.5C 104.862,161.259 106.195,164.593 108.5,167.5C 109.167,168.833 110.167,169.833 111.5,170.5C 111.5,170.833 111.5,171.167 111.5,171.5C 106.209,174.788 102.209,178.788 99.5,183.5C 99.1667,183.5 98.8333,183.5 98.5,183.5C 98.573,181.973 97.9063,180.973 96.5,180.5C 94.4667,177.477 92.4667,174.477 90.5,171.5C 90.3404,169.847 89.6737,168.514 88.5,167.5C 87.8333,163.5 87.1667,159.5 86.5,155.5C 87.3414,153.621 87.6747,151.621 87.5,149.5C 90.1893,139.477 96.5226,133.144 106.5,130.5 Z"/></g>
<g><path style="opacity:0.975" fill="#20bdf9" d="M 145.5,130.5 C 145.833,130.5 146.167,130.5 146.5,130.5C 147.959,130.433 149.292,130.766 150.5,131.5C 154.117,132.642 157.45,134.308 160.5,136.5C 161.11,137.391 161.443,138.391 161.5,139.5C 157.102,142.895 153.436,146.895 150.5,151.5C 150.167,151.5 149.833,151.5 149.5,151.5C 149.167,150.5 148.5,149.833 147.5,149.5C 143.625,146.704 140.125,147.371 137,151.5C 134.579,157.629 130.079,159.962 123.5,158.5C 122.71,157.599 121.71,156.932 120.5,156.5C 120.5,156.167 120.5,155.833 120.5,155.5C 129.167,147.5 137.5,139.167 145.5,130.5 Z"/></g>
<g><path style="opacity:0.024" fill="#474747" d="M 40.5,136.5 C 40.4828,138.565 40.1495,140.565 39.5,142.5C 26.1667,155.5 12.8333,168.5 -0.5,181.5C -0.5,179.833 -0.5,178.167 -0.5,176.5C 13.1667,163.167 26.8333,149.833 40.5,136.5 Z"/></g>
<g><path style="opacity:0.024" fill="#474747" d="M 197.5,139.5 C 198.234,140.708 198.567,142.041 198.5,143.5C 171.5,169.833 144.833,196.5 118.5,223.5C 118.167,223.5 117.833,223.5 117.5,223.5C 116.167,223.5 114.833,223.5 113.5,223.5C 121.5,215.167 129.5,206.833 137.5,198.5C 138.167,198.5 138.5,198.167 138.5,197.5C 148.5,190.833 156.833,182.5 163.5,172.5C 164.167,172.5 164.5,172.167 164.5,171.5C 175.5,160.833 186.5,150.167 197.5,139.5 Z"/></g>
<g><path style="opacity:0.024" fill="#474747" d="M 255.5,141.5 C 255.5,143.167 255.5,144.833 255.5,146.5C 243.5,158.167 231.5,169.833 219.5,181.5C 219.443,180.391 219.11,179.391 218.5,178.5C 218.5,178.167 218.5,177.833 218.5,177.5C 230.833,165.5 243.167,153.5 255.5,141.5 Z"/></g>
<g><path style="opacity:0.024" fill="#474848" d="M 113.5,148.5 C 110.167,151.167 107.167,154.167 104.5,157.5C 103.654,154.658 104.321,151.992 106.5,149.5C 107.167,149.5 107.5,149.167 107.5,148.5C 109.611,147.258 111.611,147.258 113.5,148.5 Z"/></g>
<g><path style="opacity:0.024" fill="#474747" d="M 147.5,149.5 C 148.5,149.833 149.167,150.5 149.5,151.5C 140.5,161.167 131.167,170.5 121.5,179.5C 119.973,179.573 118.973,178.906 118.5,177.5C 128.167,168.167 137.833,158.833 147.5,149.5 Z"/></g>
<g><path style="opacity:0.024" fill="#474747" d="M 87.5,149.5 C 87.6747,151.621 87.3414,153.621 86.5,155.5C 75.1667,166.5 63.8333,177.5 52.5,188.5C 52.5,186.833 52.5,185.167 52.5,183.5C 64.1667,172.167 75.8333,160.833 87.5,149.5 Z"/></g>
<g><path style="opacity:0.978" fill="#20bdfa" d="M 166.5,148.5 C 166.833,148.5 167.167,148.5 167.5,148.5C 167.5,150.167 167.5,151.833 167.5,153.5C 168.187,159.676 167.187,165.676 164.5,171.5C 163.833,171.5 163.5,171.833 163.5,172.5C 156.833,182.5 148.5,190.833 138.5,197.5C 137.833,197.5 137.5,197.833 137.5,198.5C 134.423,200.368 131.09,201.701 127.5,202.5C 125.068,202.114 122.734,201.447 120.5,200.5C 120.027,199.094 119.027,198.427 117.5,198.5C 117.5,198.167 117.5,197.833 117.5,197.5C 134.081,182.421 150.248,166.754 166,150.5C 166.464,149.906 166.631,149.239 166.5,148.5 Z"/></g>
<g><path style="opacity:0.024" fill="#464646" d="M 120.5,156.5 C 121.71,156.932 122.71,157.599 123.5,158.5C 119.167,162.167 115.167,166.167 111.5,170.5C 110.167,169.833 109.167,168.833 108.5,167.5C 112.5,163.833 116.5,160.167 120.5,156.5 Z"/></g>
<g><path style="opacity:0.024" fill="#474747" d="M 199.5,157.5 C 199.433,158.959 199.766,160.292 200.5,161.5C 179.5,181.833 158.833,202.5 138.5,223.5C 136.833,223.5 135.167,223.5 133.5,223.5C 155.167,201.167 177.167,179.167 199.5,157.5 Z"/></g>
<g><path style="opacity:0.024" fill="#474747" d="M 37.5,159.5 C 37.5,161.167 37.5,162.833 37.5,164.5C 24.8333,176.833 12.1667,189.167 -0.5,201.5C -0.5,199.833 -0.5,198.167 -0.5,196.5C 12.1667,184.167 24.8333,171.833 37.5,159.5 Z"/></g>
<g><path style="opacity:0.024" fill="#474747" d="M 255.5,161.5 C 255.5,163.167 255.5,164.833 255.5,166.5C 244.167,177.5 232.833,188.5 221.5,199.5C 220.566,198.432 220.232,197.099 220.5,195.5C 232.167,184.167 243.833,172.833 255.5,161.5 Z"/></g>
<g><path style="opacity:0.985" fill="#0c49d8" d="M 54.5,163.5 C 54.5,164.5 54.5,165.5 54.5,166.5C 53.8989,172.179 53.2322,177.845 52.5,183.5C 52.5,185.167 52.5,186.833 52.5,188.5C 52.6716,189.492 52.3382,190.158 51.5,190.5C 45.5,196.167 39.5,201.833 33.5,207.5C 33.5,206.167 33.5,204.833 33.5,203.5C 33.9703,197.794 34.637,192.127 35.5,186.5C 35.5,184.833 35.5,183.167 35.5,181.5C 35.2627,180.209 35.596,179.209 36.5,178.5C 36.4346,178.938 36.6012,179.272 37,179.5C 42.4242,173.569 48.2575,168.236 54.5,163.5 Z"/></g>
<g><path style="opacity:0.024" fill="#474747" d="M 88.5,167.5 C 89.6737,168.514 90.3404,169.847 90.5,171.5C 77.1667,184.5 63.8333,197.5 50.5,210.5C 50.5,208.833 50.5,207.167 50.5,205.5C 63.5,193.167 76.1667,180.5 88.5,167.5 Z"/></g>
<g><path style="opacity:0.942" fill="#20befb" d="M 161.5,139.5 C 161.833,139.5 162.167,139.5 162.5,139.5C 164.644,142.122 165.977,145.122 166.5,148.5C 166.631,149.239 166.464,149.906 166,150.5C 150.248,166.754 134.081,182.421 117.5,197.5C 114.366,196.099 111.366,194.432 108.5,192.5C 108.167,191.5 107.5,190.833 106.5,190.5C 103.861,188.527 101.527,186.194 99.5,183.5C 102.209,178.788 106.209,174.788 111.5,171.5C 113.833,173.5 116.167,175.5 118.5,177.5C 118.973,178.906 119.973,179.573 121.5,179.5C 123.017,181.184 124.85,182.517 127,183.5C 139.094,177.744 147.261,168.577 151.5,156C 150.62,154.644 150.286,153.144 150.5,151.5C 153.436,146.895 157.102,142.895 161.5,139.5 Z"/></g>
<g><path style="opacity:0.024" fill="#474747" d="M 201.5,175.5 C 201.5,177.167 201.5,178.833 201.5,180.5C 186.833,194.5 172.5,208.833 158.5,223.5C 158.167,223.5 157.833,223.5 157.5,223.5C 156.167,223.5 154.833,223.5 153.5,223.5C 169.167,207.167 185.167,191.167 201.5,175.5 Z"/></g>
<g><path style="opacity:0.024" fill="#474747" d="M 96.5,180.5 C 97.9063,180.973 98.573,181.973 98.5,183.5C 85.5,195.833 72.8333,208.5 60.5,221.5C 58.847,221.34 57.5137,220.674 56.5,219.5C 69.8333,206.5 83.1667,193.5 96.5,180.5 Z"/></g>
<g><path style="opacity:0.024" fill="#474747" d="M 35.5,181.5 C 35.5,183.167 35.5,184.833 35.5,186.5C 23.5,198.167 11.5,209.833 -0.5,221.5C -0.5,219.833 -0.5,218.167 -0.5,216.5C 11.5,204.833 23.5,193.167 35.5,181.5 Z"/></g>
<g><path style="opacity:0.024" fill="#474747" d="M 255.5,181.5 C 255.5,183.167 255.5,184.833 255.5,186.5C 243.167,198.5 230.833,210.5 218.5,222.5C 219.501,219.828 220.501,217.162 221.5,214.5C 232.833,203.5 244.167,192.5 255.5,181.5 Z"/></g>
<g><path style="opacity:0.974" fill="#0c49d7" d="M 218.5,178.5 C 219.11,179.391 219.443,180.391 219.5,181.5C 219.833,186.167 220.167,190.833 220.5,195.5C 220.232,197.099 220.566,198.432 221.5,199.5C 221.5,200.167 221.5,200.833 221.5,201.5C 207.885,213.447 194.885,226.114 182.5,239.5C 182.167,239.5 181.833,239.5 181.5,239.5C 180.167,239.5 178.833,239.5 177.5,239.5C 182.894,234.11 187.894,228.444 192.5,222.5C 193.609,222.443 194.609,222.11 195.5,221.5C 199.167,219.833 201.833,217.167 203.5,213.5C 204.833,208.5 204.833,203.5 203.5,198.5C 203.5,196.833 203.5,195.167 203.5,193.5C 203.5,193.167 203.5,192.833 203.5,192.5C 208.5,187.833 213.5,183.167 218.5,178.5 Z"/></g>
<g><path style="opacity:0.024" fill="#474747" d="M 106.5,190.5 C 107.5,190.833 108.167,191.5 108.5,192.5C 98.5,202.833 88.5,213.167 78.5,223.5C 76.8333,223.5 75.1667,223.5 73.5,223.5C 84.1667,212.167 95.1667,201.167 106.5,190.5 Z"/></g>
<g><path style="opacity:0.98" fill="#0c49d9" d="M 51.5,190.5 C 51.3867,195.518 51.0534,200.518 50.5,205.5C 50.5,207.167 50.5,208.833 50.5,210.5C 51.2633,214.37 53.2633,217.37 56.5,219.5C 57.5137,220.674 58.847,221.34 60.5,221.5C 64.5667,223.054 68.9,223.72 73.5,223.5C 75.1667,223.5 76.8333,223.5 78.5,223.5C 83.1667,223.5 87.8333,223.5 92.5,223.5C 87.5,228.833 82.5,234.167 77.5,239.5C 77.1667,239.5 76.8333,239.5 76.5,239.5C 71.5,239.5 66.5,239.5 61.5,239.5C 60.1667,239.5 58.8333,239.5 57.5,239.5C 53.7922,238.037 50.1255,236.37 46.5,234.5C 46.1667,233.5 45.5,232.833 44.5,232.5C 42.1765,229.874 39.8432,227.207 37.5,224.5C 37.3404,222.847 36.6737,221.514 35.5,220.5C 33.9983,216.658 33.3316,212.658 33.5,208.5C 33.5,208.167 33.5,207.833 33.5,207.5C 39.5,201.833 45.5,196.167 51.5,190.5 Z"/></g>
<g><path style="opacity:0.024" fill="#474747" d="M 203.5,193.5 C 203.5,195.167 203.5,196.833 203.5,198.5C 194.833,206.5 186.5,214.833 178.5,223.5C 176.833,223.5 175.167,223.5 173.5,223.5C 183.167,213.167 193.167,203.167 203.5,193.5 Z"/></g>
<g><path style="opacity:0.024" fill="#474747" d="M 117.5,198.5 C 119.027,198.427 120.027,199.094 120.5,200.5C 113.167,208.167 105.833,215.833 98.5,223.5C 96.8333,223.5 95.1667,223.5 93.5,223.5C 101.5,215.167 109.5,206.833 117.5,198.5 Z"/></g>
<g><path style="opacity:0.987" fill="#0c49d8" d="M 221.5,201.5 C 221.5,205.833 221.5,210.167 221.5,214.5C 220.501,217.162 219.501,219.828 218.5,222.5C 215.5,228.833 210.833,233.5 204.5,236.5C 201.828,237.501 199.162,238.501 196.5,239.5C 191.833,239.5 187.167,239.5 182.5,239.5C 194.885,226.114 207.885,213.447 221.5,201.5 Z"/></g>
<g><path style="opacity:0.024" fill="#474747" d="M 255.5,201.5 C 255.5,203.167 255.5,204.833 255.5,206.5C 238.833,222.5 222.5,238.833 206.5,255.5C 204.833,255.5 203.167,255.5 201.5,255.5C 219.167,237.167 237.167,219.167 255.5,201.5 Z"/></g>
<g><path style="opacity:0.024" fill="#474747" d="M 33.5,203.5 C 33.5,204.833 33.5,206.167 33.5,207.5C 33.5,207.833 33.5,208.167 33.5,208.5C 22.1667,219.5 10.8333,230.5 -0.5,241.5C -0.5,239.833 -0.5,238.167 -0.5,236.5C 10.8333,225.5 22.1667,214.5 33.5,203.5 Z"/></g>
<g><path style="opacity:0.024" fill="#464752" d="M 203.5,213.5 C 201.833,217.167 199.167,219.833 195.5,221.5C 197.833,218.5 200.5,215.833 203.5,213.5 Z"/></g>
<g><path style="opacity:0.024" fill="#474747" d="M 35.5,220.5 C 36.6737,221.514 37.3404,222.847 37.5,224.5C 26.8333,234.5 16.5,244.833 6.5,255.5C 4.83333,255.5 3.16667,255.5 1.5,255.5C 12.8333,243.833 24.1667,232.167 35.5,220.5 Z"/></g>
<g><path style="opacity:0.024" fill="#474747" d="M 255.5,221.5 C 255.5,223.167 255.5,224.833 255.5,226.5C 245.5,235.833 235.833,245.5 226.5,255.5C 224.833,255.5 223.167,255.5 221.5,255.5C 232.5,243.833 243.833,232.5 255.5,221.5 Z"/></g>
<g><path style="opacity:1" fill="#0c49d8" d="M 92.5,223.5 C 92.8333,223.5 93.1667,223.5 93.5,223.5C 95.1667,223.5 96.8333,223.5 98.5,223.5C 103.5,223.5 108.5,223.5 113.5,223.5C 114.833,223.5 116.167,223.5 117.5,223.5C 112.5,228.833 107.5,234.167 102.5,239.5C 102.167,239.5 101.833,239.5 101.5,239.5C 99.8333,239.5 98.1667,239.5 96.5,239.5C 91.5,239.5 86.5,239.5 81.5,239.5C 80.1667,239.5 78.8333,239.5 77.5,239.5C 82.5,234.167 87.5,228.833 92.5,223.5 Z"/></g>
<g><path style="opacity:1" fill="#0c49d9" d="M 117.5,223.5 C 117.833,223.5 118.167,223.5 118.5,223.5C 123.5,223.5 128.5,223.5 133.5,223.5C 135.167,223.5 136.833,223.5 138.5,223.5C 143.5,223.5 148.5,223.5 153.5,223.5C 154.833,223.5 156.167,223.5 157.5,223.5C 152.5,228.833 147.5,234.167 142.5,239.5C 142.167,239.5 141.833,239.5 141.5,239.5C 139.833,239.5 138.167,239.5 136.5,239.5C 131.5,239.5 126.5,239.5 121.5,239.5C 119.833,239.5 118.167,239.5 116.5,239.5C 111.833,239.5 107.167,239.5 102.5,239.5C 107.5,234.167 112.5,228.833 117.5,223.5 Z"/></g>
<g><path style="opacity:1" fill="#0c49d9" d="M 192.5,222.5 C 187.894,228.444 182.894,234.11 177.5,239.5C 177.167,239.5 176.833,239.5 176.5,239.5C 171.5,239.5 166.5,239.5 161.5,239.5C 159.833,239.5 158.167,239.5 156.5,239.5C 151.833,239.5 147.167,239.5 142.5,239.5C 147.5,234.167 152.5,228.833 157.5,223.5C 157.833,223.5 158.167,223.5 158.5,223.5C 163.5,223.5 168.5,223.5 173.5,223.5C 175.167,223.5 176.833,223.5 178.5,223.5C 183.214,223.647 187.881,223.314 192.5,222.5 Z"/></g>
<g><path style="opacity:0.024" fill="#474747" d="M 44.5,232.5 C 45.5,232.833 46.1667,233.5 46.5,234.5C 39.8333,241.5 33.1667,248.5 26.5,255.5C 24.8333,255.5 23.1667,255.5 21.5,255.5C 28.8333,247.5 36.5,239.833 44.5,232.5 Z"/></g>
<g><path style="opacity:0.024" fill="#464747" d="M 204.5,236.5 C 198.5,242.833 192.5,249.167 186.5,255.5C 184.833,255.5 183.167,255.5 181.5,255.5C 186.5,250.167 191.5,244.833 196.5,239.5C 199.162,238.501 201.828,237.501 204.5,236.5 Z"/></g>
<g><path style="opacity:0.024" fill="#474747" d="M 57.5,239.5 C 58.8333,239.5 60.1667,239.5 61.5,239.5C 56.5,244.833 51.5,250.167 46.5,255.5C 44.8333,255.5 43.1667,255.5 41.5,255.5C 46.5,249.833 51.8333,244.5 57.5,239.5 Z"/></g>
<g><path style="opacity:0.024" fill="#474747" d="M 76.5,239.5 C 76.8333,239.5 77.1667,239.5 77.5,239.5C 78.8333,239.5 80.1667,239.5 81.5,239.5C 76.5,244.833 71.5,250.167 66.5,255.5C 64.8333,255.5 63.1667,255.5 61.5,255.5C 66.5,250.167 71.5,244.833 76.5,239.5 Z"/></g>
<g><path style="opacity:0.024" fill="#474747" d="M 96.5,239.5 C 98.1667,239.5 99.8333,239.5 101.5,239.5C 96.5,244.833 91.5,250.167 86.5,255.5C 84.8333,255.5 83.1667,255.5 81.5,255.5C 86.5,250.167 91.5,244.833 96.5,239.5 Z"/></g>
<g><path style="opacity:0.024" fill="#474747" d="M 116.5,239.5 C 118.167,239.5 119.833,239.5 121.5,239.5C 116.5,244.833 111.5,250.167 106.5,255.5C 104.833,255.5 103.167,255.5 101.5,255.5C 106.5,250.167 111.5,244.833 116.5,239.5 Z"/></g>
<g><path style="opacity:0.024" fill="#474747" d="M 136.5,239.5 C 138.167,239.5 139.833,239.5 141.5,239.5C 136.5,244.833 131.5,250.167 126.5,255.5C 124.833,255.5 123.167,255.5 121.5,255.5C 126.5,250.167 131.5,244.833 136.5,239.5 Z"/></g>
<g><path style="opacity:0.024" fill="#474747" d="M 156.5,239.5 C 158.167,239.5 159.833,239.5 161.5,239.5C 156.5,244.833 151.5,250.167 146.5,255.5C 144.833,255.5 143.167,255.5 141.5,255.5C 146.5,250.167 151.5,244.833 156.5,239.5 Z"/></g>
<g><path style="opacity:0.024" fill="#474747" d="M 176.5,239.5 C 176.833,239.5 177.167,239.5 177.5,239.5C 178.833,239.5 180.167,239.5 181.5,239.5C 176.5,244.833 171.5,250.167 166.5,255.5C 164.833,255.5 163.167,255.5 161.5,255.5C 166.5,250.167 171.5,244.833 176.5,239.5 Z"/></g>
<g><path style="opacity:0.024" fill="#474747" d="M 255.5,241.5 C 255.5,243.167 255.5,244.833 255.5,246.5C 252.167,249.167 249.167,252.167 246.5,255.5C 244.833,255.5 243.167,255.5 241.5,255.5C 245.833,250.5 250.5,245.833 255.5,241.5 Z"/></g>
</svg>
