<?xml version="1.0" encoding="UTF-8"?>
<!DOCTYPE svg PUBLIC "-//W3C//DTD SVG 1.1//EN" "http://www.w3.org/Graphics/SVG/1.1/DTD/svg11.dtd">
<svg xmlns="http://www.w3.org/2000/svg" version="1.1" width="256px" height="256px" style="shape-rendering:geometricPrecision; text-rendering:geometricPrecision; image-rendering:optimizeQuality; fill-rule:evenodd; clip-rule:evenodd" xmlns:xlink="http://www.w3.org/1999/xlink">
<g><path style="opacity:0.02" fill="#3b3b3b" d="M -0.5,-0.5 C 0.166667,-0.5 0.833333,-0.5 1.5,-0.5C 1.16667,0.5 0.5,1.16667 -0.5,1.5C -0.5,0.833333 -0.5,0.166667 -0.5,-0.5 Z"/></g>
<g><path style="opacity:0.024" fill="#474747" d="M 16.5,-0.5 C 18.1667,-0.5 19.8333,-0.5 21.5,-0.5C 14.5,7.16667 7.16667,14.5 -0.5,21.5C -0.5,19.8333 -0.5,18.1667 -0.5,16.5C 5.5,11.1667 11.1667,5.5 16.5,-0.5 Z"/></g>
<g><path style="opacity:0.024" fill="#474747" d="M 36.5,-0.5 C 38.1667,-0.5 39.8333,-0.5 41.5,-0.5C 27.8333,13.8333 13.8333,27.8333 -0.5,41.5C -0.5,39.8333 -0.5,38.1667 -0.5,36.5C 12.1667,24.5 24.5,12.1667 36.5,-0.5 Z"/></g>
<g><path style="opacity:0.024" fill="#474747" d="M 56.5,-0.5 C 58.1667,-0.5 59.8333,-0.5 61.5,-0.5C 41.1667,20.5 20.5,41.1667 -0.5,61.5C -0.5,59.8333 -0.5,58.1667 -0.5,56.5C 18.8333,37.8333 37.8333,18.8333 56.5,-0.5 Z"/></g>
<g><path style="opacity:0.024" fill="#474747" d="M 76.5,-0.5 C 78.1667,-0.5 79.8333,-0.5 81.5,-0.5C 54.5,27.1667 27.1667,54.5 -0.5,81.5C -0.5,79.8333 -0.5,78.1667 -0.5,76.5C 25.5,51.1667 51.1667,25.5 76.5,-0.5 Z"/></g>
<g><path style="opacity:0.024" fill="#474747" d="M 96.5,-0.5 C 98.1667,-0.5 99.8333,-0.5 101.5,-0.5C 88.5,12.8333 75.5,26.1667 62.5,39.5C 60.8333,39.5 59.1667,39.5 57.5,39.5C 70.5,26.1667 83.5,12.8333 96.5,-0.5 Z"/></g>
<g><path style="opacity:0.024" fill="#474747" d="M 116.5,-0.5 C 118.167,-0.5 119.833,-0.5 121.5,-0.5C 108.5,12.8333 95.5,26.1667 82.5,39.5C 80.8333,39.5 79.1667,39.5 77.5,39.5C 90.5,26.1667 103.5,12.8333 116.5,-0.5 Z"/></g>
<g><path style="opacity:0.024" fill="#474747" d="M 136.5,-0.5 C 138.167,-0.5 139.833,-0.5 141.5,-0.5C 128.5,12.8333 115.5,26.1667 102.5,39.5C 102.167,39.5 101.833,39.5 101.5,39.5C 100.167,39.5 98.8333,39.5 97.5,39.5C 110.5,26.1667 123.5,12.8333 136.5,-0.5 Z"/></g>
<g><path style="opacity:0.024" fill="#474747" d="M 156.5,-0.5 C 158.167,-0.5 159.833,-0.5 161.5,-0.5C 156.5,4.83333 151.5,10.1667 146.5,15.5C 144.833,15.5 143.167,15.5 141.5,15.5C 146.5,10.1667 151.5,4.83333 156.5,-0.5 Z"/></g>
<g><path style="opacity:0.024" fill="#474747" d="M 176.5,-0.5 C 178.167,-0.5 179.833,-0.5 181.5,-0.5C 174.5,7.16667 167.167,14.5 159.5,21.5C 159.167,20.1667 158.833,18.8333 158.5,17.5C 164.833,11.8333 170.833,5.83333 176.5,-0.5 Z"/></g>
<g><path style="opacity:0.024" fill="#474747" d="M 196.5,-0.5 C 198.167,-0.5 199.833,-0.5 201.5,-0.5C 180.167,21.5 158.5,43.1667 136.5,64.5C 136.325,62.3792 136.659,60.3792 137.5,58.5C 157.5,39.1667 177.167,19.5 196.5,-0.5 Z"/></g>
<g><path style="opacity:0.024" fill="#474747" d="M 216.5,-0.5 C 218.167,-0.5 219.833,-0.5 221.5,-0.5C 191.833,29.8333 161.833,59.8333 131.5,89.5C 131.325,87.3792 131.659,85.3792 132.5,83.5C 160.833,55.8333 188.833,27.8333 216.5,-0.5 Z"/></g>
<g><path style="opacity:0.024" fill="#474747" d="M 236.5,-0.5 C 238.167,-0.5 239.833,-0.5 241.5,-0.5C 203.833,37.8333 165.833,75.8333 127.5,113.5C 127.567,112.041 127.234,110.708 126.5,109.5C 163.5,73.1667 200.167,36.5 236.5,-0.5 Z"/></g>
<g><path style="opacity:0.024" fill="#474747" d="M 255.5,1.5 C 255.5,3.16667 255.5,4.83333 255.5,6.5C 206.833,54.8333 158.167,103.167 109.5,151.5C 108.5,151.167 107.833,150.5 107.5,149.5C 156.5,99.8333 205.833,50.5 255.5,1.5 Z"/></g>
<g><path style="opacity:0.997" fill="#20bdfa" d="M 141.5,15.5 C 143.167,15.5 144.833,15.5 146.5,15.5C 150.742,15.0792 154.742,15.7459 158.5,17.5C 158.833,18.8333 159.167,20.1667 159.5,21.5C 160.5,29.1667 157.167,32.5 149.5,31.5C 147.833,31.5 146.167,31.5 144.5,31.5C 143.167,31.5 142.5,32.1667 142.5,33.5C 141.659,35.3792 141.325,37.3792 141.5,39.5C 141.167,40.1667 140.833,40.8333 140.5,41.5C 133.14,48.1937 126.14,55.1937 119.5,62.5C 119.517,60.4352 119.85,58.4352 120.5,56.5C 115.695,55.5128 110.695,55.1795 105.5,55.5C 103.833,55.5 102.167,55.5 100.5,55.5C 95.8333,55.5 91.1667,55.5 86.5,55.5C 91.5,50.1667 96.5,44.8333 101.5,39.5C 101.833,39.5 102.167,39.5 102.5,39.5C 107.5,39.5 112.5,39.5 117.5,39.5C 119.167,39.5 120.833,39.5 122.5,39.5C 123.167,39.5 123.5,39.1667 123.5,38.5C 124.319,36.2278 124.985,33.8945 125.5,31.5C 125.841,26.6265 127.008,21.9599 129,17.5C 132.922,15.6876 137.089,15.021 141.5,15.5 Z"/></g>
<g><path style="opacity:0.024" fill="#474747" d="M 255.5,21.5 C 255.5,23.1667 255.5,24.8333 255.5,26.5C 210.167,71.5 164.833,116.5 119.5,161.5C 118.5,161.167 117.833,160.5 117.5,159.5C 163.167,113.167 209.167,67.1667 255.5,21.5 Z"/></g>
<g><path style="opacity:0.024" fill="#474747" d="M 144.5,31.5 C 146.167,31.5 147.833,31.5 149.5,31.5C 147.167,34.5 144.5,37.1667 141.5,39.5C 141.325,37.3792 141.659,35.3792 142.5,33.5C 143.5,33.1667 144.167,32.5 144.5,31.5 Z"/></g>
<g><path style="opacity:0.024" fill="#474a4c" d="M 125.5,31.5 C 124.985,33.8945 124.319,36.2278 123.5,38.5C 122.833,38.5 122.5,38.8333 122.5,39.5C 120.833,39.5 119.167,39.5 117.5,39.5C 119.833,36.5 122.5,33.8333 125.5,31.5 Z"/></g>
<g><path style="opacity:1" fill="#20bdfa" d="M 57.5,39.5 C 59.1667,39.5 60.8333,39.5 62.5,39.5C 67.5,39.5 72.5,39.5 77.5,39.5C 79.1667,39.5 80.8333,39.5 82.5,39.5C 87.5,39.5 92.5,39.5 97.5,39.5C 98.8333,39.5 100.167,39.5 101.5,39.5C 96.5,44.8333 91.5,50.1667 86.5,55.5C 86.1667,55.5 85.8333,55.5 85.5,55.5C 83.8333,55.5 82.1667,55.5 80.5,55.5C 75.0557,54.8917 70.0557,55.5583 65.5,57.5C 60.2243,61.4373 55.2243,65.7706 50.5,70.5C 49.8902,69.609 49.5569,68.609 49.5,67.5C 49.2012,63.0725 48.5346,58.7391 47.5,54.5C 47.5,52.8333 47.5,51.1667 47.5,49.5C 46.5,41.8333 49.8333,38.5 57.5,39.5 Z"/></g>
<g><path style="opacity:0.024" fill="#474747" d="M 255.5,41.5 C 255.5,43.1667 255.5,44.8333 255.5,46.5C 213.5,88.1667 171.5,129.833 129.5,171.5C 128.5,171.167 127.833,170.5 127.5,169.5C 169.833,126.5 212.5,83.8333 255.5,41.5 Z"/></g>
<g><path style="opacity:0.024" fill="#474747" d="M 47.5,49.5 C 47.5,51.1667 47.5,52.8333 47.5,54.5C 31.5,70.1667 15.5,85.8333 -0.5,101.5C -0.5,99.8333 -0.5,98.1667 -0.5,96.5C 15.5,80.8333 31.5,65.1667 47.5,49.5 Z"/></g>
<g><path style="opacity:0.024" fill="#474747" d="M 80.5,55.5 C 82.1667,55.5 83.8333,55.5 85.5,55.5C 79.8333,61.8333 73.8333,67.8333 67.5,73.5C 67.5,71.8333 67.5,70.1667 67.5,68.5C 72.1667,64.5 76.5,60.1667 80.5,55.5 Z"/></g>
<g><path style="opacity:0.024" fill="#474747" d="M 100.5,55.5 C 102.167,55.5 103.833,55.5 105.5,55.5C 97.8333,63.5 90.1667,71.5 82.5,79.5C 80.8333,79.5 79.1667,79.5 77.5,79.5C 85.1667,71.5 92.8333,63.5 100.5,55.5 Z"/></g>
<g><path style="opacity:0.024" fill="#474848" d="M 120.5,56.5 C 119.85,58.4352 119.517,60.4352 119.5,62.5C 118.833,62.5 118.5,62.8333 118.5,63.5C 112.833,68.5 107.5,73.8333 102.5,79.5C 100.833,79.5 99.1667,79.5 97.5,79.5C 104.833,71.5 112.5,63.8333 120.5,56.5 Z"/></g>
<g><path style="opacity:0.024" fill="#474747" d="M 255.5,61.5 C 255.5,63.1667 255.5,64.8333 255.5,66.5C 240.167,81.1667 225.167,96.1667 210.5,111.5C 208.833,111.5 207.167,111.5 205.5,111.5C 221.833,94.5 238.5,77.8333 255.5,61.5 Z"/></g>
<g><path style="opacity:0.024" fill="#474747" d="M 49.5,67.5 C 49.5569,68.609 49.8902,69.609 50.5,70.5C 50.5,70.8333 50.5,71.1667 50.5,71.5C 33.5,88.1667 16.5,104.833 -0.5,121.5C -0.5,119.833 -0.5,118.167 -0.5,116.5C 16.1667,100.167 32.8333,83.8333 49.5,67.5 Z"/></g>
<g><path style="opacity:1" fill="#20befa" d="M 140.5,41.5 C 139.372,47.1424 138.372,52.8091 137.5,58.5C 136.659,60.3792 136.325,62.3792 136.5,64.5C 134.66,70.698 133.327,77.0314 132.5,83.5C 131.659,85.3792 131.325,87.3792 131.5,89.5C 130.5,92.5 128.5,94.5 125.5,95.5C 123.833,95.5 122.167,95.5 120.5,95.5C 115.5,95.5 110.5,95.5 105.5,95.5C 103.833,95.5 102.167,95.5 100.5,95.5C 95.5,95.5 90.5,95.5 85.5,95.5C 83.8333,95.5 82.1667,95.5 80.5,95.5C 75.5,95.5 70.5,95.5 65.5,95.5C 63.8333,95.5 62.1667,95.5 60.5,95.5C 56.4316,95.4383 53.765,93.4383 52.5,89.5C 52.7845,87.5853 52.4511,85.9187 51.5,84.5C 51.4135,80.1434 51.0802,75.81 50.5,71.5C 50.5,71.1667 50.5,70.8333 50.5,70.5C 55.2243,65.7706 60.2243,61.4373 65.5,57.5C 65.9309,61.3366 66.5975,65.0032 67.5,68.5C 67.5,70.1667 67.5,71.8333 67.5,73.5C 68.1495,75.4352 68.4828,77.4352 68.5,79.5C 71.5,79.5 74.5,79.5 77.5,79.5C 79.1667,79.5 80.8333,79.5 82.5,79.5C 87.5,79.5 92.5,79.5 97.5,79.5C 99.1667,79.5 100.833,79.5 102.5,79.5C 106.884,79.8256 111.217,79.4922 115.5,78.5C 116.885,73.5763 117.885,68.5763 118.5,63.5C 118.5,62.8333 118.833,62.5 119.5,62.5C 126.14,55.1937 133.14,48.1937 140.5,41.5 Z M 118.5,63.5 C 117.885,68.5763 116.885,73.5763 115.5,78.5C 111.217,79.4922 106.884,79.8256 102.5,79.5C 107.5,73.8333 112.833,68.5 118.5,63.5 Z"/></g>
<g><path style="opacity:0.024" fill="#474747" d="M 255.5,81.5 C 255.5,83.1667 255.5,84.8333 255.5,86.5C 246.833,94.5 238.5,102.833 230.5,111.5C 228.833,111.5 227.167,111.5 225.5,111.5C 235.167,101.167 245.167,91.1667 255.5,81.5 Z"/></g>
<g><path style="opacity:0.024" fill="#474747" d="M 51.5,84.5 C 52.4511,85.9187 52.7845,87.5853 52.5,89.5C 34.8333,106.833 17.1667,124.167 -0.5,141.5C -0.5,139.833 -0.5,138.167 -0.5,136.5C 17.1667,119.5 34.5,102.167 51.5,84.5 Z"/></g>
<g><path style="opacity:0.024" fill="#474747" d="M 60.5,95.5 C 62.1667,95.5 63.8333,95.5 65.5,95.5C 43.8333,117.833 21.8333,139.833 -0.5,161.5C -0.5,159.833 -0.5,158.167 -0.5,156.5C 20.1667,136.5 40.5,116.167 60.5,95.5 Z"/></g>
<g><path style="opacity:0.024" fill="#474747" d="M 80.5,95.5 C 82.1667,95.5 83.8333,95.5 85.5,95.5C 82.5,99.1667 79.1667,102.5 75.5,105.5C 74.2905,105.068 73.2905,104.401 72.5,103.5C 75.5,101.167 78.1667,98.5 80.5,95.5 Z"/></g>
<g><path style="opacity:0.024" fill="#474747" d="M 100.5,95.5 C 102.167,95.5 103.833,95.5 105.5,95.5C 96.8333,104.833 87.8333,113.833 78.5,122.5C 79.1495,120.565 79.4828,118.565 79.5,116.5C 86.8333,109.833 93.8333,102.833 100.5,95.5 Z"/></g>
<g><path style="opacity:0.024" fill="#474747" d="M 120.5,95.5 C 122.167,95.5 123.833,95.5 125.5,95.5C 123.167,98.1667 120.833,100.833 118.5,103.5C 116.833,103.5 115.167,103.5 113.5,103.5C 115.833,100.833 118.167,98.1667 120.5,95.5 Z"/></g>
<g><path style="opacity:0.024" fill="#474747" d="M 255.5,101.5 C 255.5,103.167 255.5,104.833 255.5,106.5C 250.167,111.5 244.833,116.5 239.5,121.5C 239.5,119.833 239.5,118.167 239.5,116.5C 244.833,111.5 250.167,106.5 255.5,101.5 Z"/></g>
<g><path style="opacity:0.965" fill="#20bdfa" d="M 113.5,103.5 C 115.167,103.5 116.833,103.5 118.5,103.5C 122.02,104.353 124.687,106.353 126.5,109.5C 127.234,110.708 127.567,112.041 127.5,113.5C 127.833,123.167 123.167,127.833 113.5,127.5C 112.041,127.567 110.708,127.234 109.5,126.5C 106.353,124.687 104.353,122.02 103.5,118.5C 103.5,116.833 103.5,115.167 103.5,113.5C 104.5,107.833 107.833,104.5 113.5,103.5 Z"/></g>
<g><path style="opacity:0.978" fill="#21bcf9" d="M 72.5,103.5 C 73.2905,104.401 74.2905,105.068 75.5,105.5C 78.78,108.405 80.1133,112.071 79.5,116.5C 79.4828,118.565 79.1495,120.565 78.5,122.5C 77.5,124.167 76.1667,125.5 74.5,126.5C 72.5648,127.15 70.5648,127.483 68.5,127.5C 64.0712,128.113 60.4046,126.78 57.5,123.5C 57.0679,122.29 56.4013,121.29 55.5,120.5C 54.1667,107.833 59.8333,102.167 72.5,103.5 Z"/></g>
<g><path style="opacity:0.999" fill="#0c49d8" d="M 205.5,111.5 C 207.167,111.5 208.833,111.5 210.5,111.5C 215.5,111.5 220.5,111.5 225.5,111.5C 227.167,111.5 228.833,111.5 230.5,111.5C 234.897,110.861 237.897,112.527 239.5,116.5C 239.5,118.167 239.5,119.833 239.5,121.5C 239.5,126.5 239.5,131.5 239.5,136.5C 239.5,138.167 239.5,139.833 239.5,141.5C 239.733,146.895 239.4,152.228 238.5,157.5C 237.833,157.5 237.5,157.833 237.5,158.5C 232.987,160.059 228.654,159.726 224.5,157.5C 224.167,156.167 223.833,154.833 223.5,153.5C 223.666,149.154 223.499,144.821 223,140.5C 200.167,163.333 177.333,186.167 154.5,209C 152.807,209.847 151.14,210.68 149.5,211.5C 148.041,211.567 146.708,211.234 145.5,210.5C 142.573,209.243 140.239,207.243 138.5,204.5C 142.103,199.558 146.103,194.892 150.5,190.5C 161.131,179.368 171.965,168.368 183,157.5C 183.464,156.906 183.631,156.239 183.5,155.5C 192.298,146.202 201.298,137.035 210.5,128C 209.906,127.536 209.239,127.369 208.5,127.5C 203.737,127.774 199.07,127.441 194.5,126.5C 194.167,125.5 193.5,124.833 192.5,124.5C 189.622,113.39 193.956,109.057 205.5,111.5 Z"/></g>
<g><path style="opacity:0.024" fill="#474747" d="M 103.5,113.5 C 103.5,115.167 103.5,116.833 103.5,118.5C 68.8333,152.833 34.1667,187.167 -0.5,221.5C -0.5,219.833 -0.5,218.167 -0.5,216.5C 34.1667,182.167 68.8333,147.833 103.5,113.5 Z"/></g>
<g><path style="opacity:0.024" fill="#474747" d="M 55.5,120.5 C 56.4013,121.29 57.0679,122.29 57.5,123.5C 38.5,143.167 19.1667,162.5 -0.5,181.5C -0.5,179.833 -0.5,178.167 -0.5,176.5C 18.5,158.167 37.1667,139.5 55.5,120.5 Z"/></g>
<g><path style="opacity:0.024" fill="#474747" d="M 255.5,121.5 C 255.5,123.167 255.5,124.833 255.5,126.5C 250.167,131.5 244.833,136.5 239.5,141.5C 239.5,139.833 239.5,138.167 239.5,136.5C 244.833,131.5 250.167,126.5 255.5,121.5 Z"/></g>
<g><path style="opacity:0.024" fill="#474747" d="M 192.5,124.5 C 193.5,124.833 194.167,125.5 194.5,126.5C 176.5,145.167 158.167,163.5 139.5,181.5C 138.5,181.167 137.833,180.5 137.5,179.5C 155.5,160.833 173.833,142.5 192.5,124.5 Z"/></g>
<g><path style="opacity:0.024" fill="#474747" d="M 74.5,126.5 C 49.8333,151.833 24.8333,176.833 -0.5,201.5C -0.5,199.833 -0.5,198.167 -0.5,196.5C 22.8333,173.833 45.8333,150.833 68.5,127.5C 70.5648,127.483 72.5648,127.15 74.5,126.5 Z"/></g>
<g><path style="opacity:0.024" fill="#464646" d="M 109.5,126.5 C 110.708,127.234 112.041,127.567 113.5,127.5C 108.833,132.5 104.167,137.5 99.5,142.5C 97.8333,142.5 96.1667,142.5 94.5,142.5C 99.5,137.167 104.5,131.833 109.5,126.5 Z"/></g>
<g><path style="opacity:0.024" fill="#474747" d="M 255.5,141.5 C 255.5,143.167 255.5,144.833 255.5,146.5C 218.833,182.5 182.5,218.833 146.5,255.5C 144.833,255.5 143.167,255.5 141.5,255.5C 173.5,223.167 205.5,190.833 237.5,158.5C 238.167,158.5 238.5,158.167 238.5,157.5C 244.167,152.167 249.833,146.833 255.5,141.5 Z"/></g>
<g><path style="opacity:0.024" fill="#464646" d="M 87.5,149.5 C 87.4326,150.959 87.7659,152.292 88.5,153.5C 85.1667,156.167 82.1667,159.167 79.5,162.5C 77.8333,162.5 76.1667,162.5 74.5,162.5C 78.5,157.833 82.8333,153.5 87.5,149.5 Z"/></g>
<g><path style="opacity:0.024" fill="#474747" d="M 223.5,153.5 C 223.833,154.833 224.167,156.167 224.5,157.5C 191.5,189.833 158.833,222.5 126.5,255.5C 124.833,255.5 123.167,255.5 121.5,255.5C 155.167,221.167 189.167,187.167 223.5,153.5 Z"/></g>
<g><path style="opacity:0.999" fill="#0c49d8" d="M 94.5,142.5 C 96.1667,142.5 97.8333,142.5 99.5,142.5C 102.167,144.833 104.833,147.167 107.5,149.5C 107.833,150.5 108.5,151.167 109.5,151.5C 111.833,154.5 114.5,157.167 117.5,159.5C 117.833,160.5 118.5,161.167 119.5,161.5C 121.833,164.5 124.5,167.167 127.5,169.5C 127.833,170.5 128.5,171.167 129.5,171.5C 131.833,174.5 134.5,177.167 137.5,179.5C 137.833,180.5 138.5,181.167 139.5,181.5C 141.833,184.5 144.5,187.167 147.5,189.5C 147.5,190.167 147.833,190.5 148.5,190.5C 149.167,190.5 149.833,190.5 150.5,190.5C 146.103,194.892 142.103,199.558 138.5,204.5C 138.167,204.5 137.833,204.5 137.5,204.5C 136.833,203.167 135.833,202.167 134.5,201.5C 132.5,198.833 130.167,196.5 127.5,194.5C 126.833,193.167 125.833,192.167 124.5,191.5C 122.5,188.833 120.167,186.5 117.5,184.5C 116.833,183.167 115.833,182.167 114.5,181.5C 112.5,178.833 110.167,176.5 107.5,174.5C 106.833,173.167 105.833,172.167 104.5,171.5C 102.5,168.833 100.167,166.5 97.5,164.5C 96.8333,163.167 95.8333,162.167 94.5,161.5C 92.0908,159.098 90.0908,156.431 88.5,153.5C 87.7659,152.292 87.4326,150.959 87.5,149.5C 88.2901,145.561 90.6235,143.227 94.5,142.5 Z"/></g>
<g><path style="opacity:0.024" fill="#474747" d="M 255.5,161.5 C 255.5,163.167 255.5,164.833 255.5,166.5C 225.5,195.833 195.833,225.5 166.5,255.5C 164.833,255.5 163.167,255.5 161.5,255.5C 192.5,223.833 223.833,192.5 255.5,161.5 Z"/></g>
<g><path style="opacity:0.994" fill="#0d49d8" d="M 74.5,162.5 C 76.1667,162.5 77.8333,162.5 79.5,162.5C 83.3108,164.31 84.9775,167.31 84.5,171.5C 84.5,172.167 84.5,172.833 84.5,173.5C 69.5856,186.912 55.0856,200.912 41,215.5C 40.5172,216.448 40.3505,217.448 40.5,218.5C 36.3004,224.38 30.967,228.713 24.5,231.5C 20.1035,232.139 17.1035,230.473 15.5,226.5C 15.5,224.833 15.5,223.167 15.5,221.5C 15.7086,220.078 16.2086,218.745 17,217.5C 34.8333,199.667 52.6667,181.833 70.5,164C 71.745,163.209 73.0783,162.709 74.5,162.5 Z"/></g>
<g><path style="opacity:0.024" fill="#494949" d="M 208.5,127.5 C 209.239,127.369 209.906,127.536 210.5,128C 201.298,137.035 192.298,146.202 183.5,155.5C 171.5,166.833 159.833,178.5 148.5,190.5C 147.833,190.5 147.5,190.167 147.5,189.5C 167.833,168.833 188.167,148.167 208.5,127.5 Z"/></g>
<g><path style="opacity:0.024" fill="#474747" d="M 104.5,171.5 C 105.833,172.167 106.833,173.167 107.5,174.5C 80.1667,201.167 53.1667,228.167 26.5,255.5C 24.8333,255.5 23.1667,255.5 21.5,255.5C 49.1667,227.5 76.8333,199.5 104.5,171.5 Z"/></g>
<g><path style="opacity:0.024" fill="#474747" d="M 114.5,181.5 C 115.833,182.167 116.833,183.167 117.5,184.5C 93.5,207.833 69.8333,231.5 46.5,255.5C 44.8333,255.5 43.1667,255.5 41.5,255.5C 65.8333,230.833 90.1667,206.167 114.5,181.5 Z"/></g>
<g><path style="opacity:0.024" fill="#474747" d="M 255.5,181.5 C 255.5,183.167 255.5,184.833 255.5,186.5C 232.167,209.167 209.167,232.167 186.5,255.5C 184.833,255.5 183.167,255.5 181.5,255.5C 205.833,230.5 230.5,205.833 255.5,181.5 Z"/></g>
<g><path style="opacity:0.753" fill="#2149be" d="M 183.5,155.5 C 183.631,156.239 183.464,156.906 183,157.5C 171.965,168.368 161.131,179.368 150.5,190.5C 149.833,190.5 149.167,190.5 148.5,190.5C 159.833,178.5 171.5,166.833 183.5,155.5 Z"/></g>
<g><path style="opacity:0.773" fill="#1a4ac8" d="M 84.5,173.5 C 70.5311,189.136 55.8644,204.136 40.5,218.5C 40.3505,217.448 40.5172,216.448 41,215.5C 55.0856,200.912 69.5856,186.912 84.5,173.5 Z"/></g>
<g><path style="opacity:0.024" fill="#474747" d="M 124.5,191.5 C 125.833,192.167 126.833,193.167 127.5,194.5C 106.833,214.5 86.5,234.833 66.5,255.5C 64.8333,255.5 63.1667,255.5 61.5,255.5C 82.5,234.167 103.5,212.833 124.5,191.5 Z"/></g>
<g><path style="opacity:0.024" fill="#474747" d="M 134.5,201.5 C 135.833,202.167 136.833,203.167 137.5,204.5C 120.167,221.167 103.167,238.167 86.5,255.5C 84.8333,255.5 83.1667,255.5 81.5,255.5C 99.1667,237.5 116.833,219.5 134.5,201.5 Z"/></g>
<g><path style="opacity:0.024" fill="#474747" d="M 255.5,201.5 C 255.5,203.167 255.5,204.833 255.5,206.5C 238.833,222.5 222.5,238.833 206.5,255.5C 204.833,255.5 203.167,255.5 201.5,255.5C 219.167,237.167 237.167,219.167 255.5,201.5 Z"/></g>
<g><path style="opacity:0.024" fill="#474747" d="M 145.5,210.5 C 146.708,211.234 148.041,211.567 149.5,211.5C 135.167,226.167 120.833,240.833 106.5,255.5C 104.833,255.5 103.167,255.5 101.5,255.5C 116.167,240.5 130.833,225.5 145.5,210.5 Z"/></g>
<g><path style="opacity:0.024" fill="#474747" d="M 15.5,221.5 C 15.5,223.167 15.5,224.833 15.5,226.5C 10.1667,231.5 4.83333,236.5 -0.5,241.5C -0.5,239.833 -0.5,238.167 -0.5,236.5C 4.83333,231.5 10.1667,226.5 15.5,221.5 Z"/></g>
<g><path style="opacity:0.024" fill="#474747" d="M 255.5,221.5 C 255.5,223.167 255.5,224.833 255.5,226.5C 245.5,235.833 235.833,245.5 226.5,255.5C 224.833,255.5 223.167,255.5 221.5,255.5C 232.5,243.833 243.833,232.5 255.5,221.5 Z"/></g>
<g><path style="opacity:0.024" fill="#444445" d="M 94.5,161.5 C 95.8333,162.167 96.8333,163.167 97.5,164.5C 66.8333,194.5 36.5,224.833 6.5,255.5C 4.83333,255.5 3.16667,255.5 1.5,255.5C 9.16667,247.5 16.8333,239.5 24.5,231.5C 30.967,228.713 36.3004,224.38 40.5,218.5C 55.8644,204.136 70.5311,189.136 84.5,173.5C 84.5,172.833 84.5,172.167 84.5,171.5C 88.1667,168.5 91.5,165.167 94.5,161.5 Z"/></g>
<g><path style="opacity:0.024" fill="#474747" d="M 255.5,241.5 C 255.5,243.167 255.5,244.833 255.5,246.5C 252.167,249.167 249.167,252.167 246.5,255.5C 244.833,255.5 243.167,255.5 241.5,255.5C 245.833,250.5 250.5,245.833 255.5,241.5 Z"/></g>
</svg>
