<?xml version="1.0" encoding="UTF-8"?>
<!DOCTYPE svg PUBLIC "-//W3C//DTD SVG 1.1//EN" "http://www.w3.org/Graphics/SVG/1.1/DTD/svg11.dtd">
<svg xmlns="http://www.w3.org/2000/svg" version="1.1" width="512px" height="504px" style="shape-rendering:geometricPrecision; text-rendering:geometricPrecision; image-rendering:optimizeQuality; fill-rule:evenodd; clip-rule:evenodd" xmlns:xlink="http://www.w3.org/1999/xlink">
<g><path style="opacity:1" fill="#f8f8fa" d="M -0.5,-0.5 C 170.167,-0.5 340.833,-0.5 511.5,-0.5C 511.5,166.5 511.5,333.5 511.5,500.5C 437.833,500.667 364.166,500.5 290.5,500C 293.129,499.304 295.796,498.638 298.5,498C 299.071,496.795 299.738,495.628 300.5,494.5C 301.192,495.025 301.692,495.692 302,496.5C 304,493.167 304,489.833 302,486.5C 300.484,489.051 299.651,488.718 299.5,485.5C 301.696,485.435 303.696,484.768 305.5,483.5C 302.679,482.158 302.846,481.492 306,481.5C 314.56,483.337 323.06,484.003 331.5,483.5C 333.374,483.39 334.874,484.056 336,485.5C 336.579,484.072 336.412,482.738 335.5,481.5C 350.563,478.537 365.229,474.037 379.5,468C 389.357,462.479 395.857,454.313 399,443.5C 400.168,433.673 397.001,425.507 389.5,419C 382.627,415.718 376.127,411.885 370,407.5C 366.983,397.733 365.15,387.733 364.5,377.5C 364.667,365.162 364.5,352.829 364,340.5C 363.373,335.129 361.873,330.129 359.5,325.5C 359.5,325.167 359.5,324.833 359.5,324.5C 373.088,312.401 382.921,297.734 389,280.5C 390.167,279.333 391.333,278.167 392.5,277C 420.268,269.377 439.434,252.21 450,225.5C 456.192,206.964 458.359,187.964 456.5,168.5C 442.723,181.042 426.389,187.042 407.5,186.5C 417.444,170.603 425.278,153.603 431,135.5C 435.612,115.386 437.445,95.0527 436.5,74.5C 414.977,93.427 390.643,107.427 363.5,116.5C 364.339,97.0247 363.172,77.6914 360,58.5C 358.049,51.4893 356.216,44.4893 354.5,37.5C 353.5,37.5 352.5,37.5 351.5,37.5C 346.373,48.819 339.04,58.6524 329.5,67C 319.307,74.6935 308.973,82.1935 298.5,89.5C 284.911,56.2147 265.578,26.548 240.5,0.5C 215.298,26.0395 196.631,55.7061 184.5,89.5C 167.196,80.3804 152.029,68.3804 139,53.5C 135.578,48.3224 131.911,43.3224 128,38.5C 126.092,41.2154 124.759,44.2154 124,47.5C 122.669,52.8287 121.335,58.162 120,63.5C 118.108,81.7769 116.941,100.11 116.5,118.5C 89.9128,108.038 65.5794,93.7047 43.5,75.5C 40.3365,116.356 50.3365,153.523 73.5,187C 54.4109,187.529 37.9109,181.362 24,168.5C 22.4518,188.03 24.7852,207.03 31,225.5C 42.4437,252.489 62.277,270.155 90.5,278.5C 96.9206,296.237 106.921,311.571 120.5,324.5C 122.4,326.616 124.733,327.949 127.5,328.5C 126.766,337.454 127.932,346.121 131,354.5C 138.895,367.894 149.062,379.227 161.5,388.5C 135.283,394.613 109.616,402.447 84.5,412C 67.8188,424.129 64.9855,438.962 76,456.5C 79.5,460 83,463.5 86.5,467C 95.4111,471.858 104.411,476.524 113.5,481C 124.72,483.384 136.053,484.051 147.5,483C 164.353,479.548 181.02,475.382 197.5,470.5C 198.583,471.365 198.749,472.365 198,473.5C 194.169,481.502 188.669,488.168 181.5,493.5C 183.243,495.038 185.243,496.038 187.5,496.5C 187.369,497.376 187.702,498.043 188.5,498.5C 190.444,499.189 192.444,499.689 194.5,500C 129.501,500.5 64.5009,500.667 -0.5,500.5C -0.5,333.5 -0.5,166.5 -0.5,-0.5 Z"/></g>
<g><path style="opacity:1" fill="#2e3e50" d="M 289.5,120.5 C 287.371,126.683 285.704,133.016 284.5,139.5C 283.074,141.679 282.408,144.179 282.5,147C 283.267,152.81 283.601,158.643 283.5,164.5C 282.248,169.324 279.748,170.324 276,167.5C 274.036,162.683 272.702,157.683 272,152.5C 267.432,159.618 267.599,166.618 272.5,173.5C 272.5,174.167 272.5,174.833 272.5,175.5C 265.99,207.546 255.49,238.213 241,267.5C 229.446,287.062 214.946,304.229 197.5,319C 192.866,322.812 187.866,325.979 182.5,328.5C 182.793,325.246 182.126,322.246 180.5,319.5C 178.467,309.895 174.967,300.895 170,292.5C 168.318,300.226 166.485,307.893 164.5,315.5C 163.001,320.245 162.334,325.245 162.5,330.5C 162.502,334.018 162.835,337.351 163.5,340.5C 168.141,344.805 172.807,349.139 177.5,353.5C 177.5,354.167 177.833,354.5 178.5,354.5C 189.701,368.201 202.368,380.368 216.5,391C 224.853,387.45 233.186,387.783 241.5,392C 244.833,392.667 248.167,392.667 251.5,392C 260.775,391.792 268.441,388.126 274.5,381C 278.52,378.966 282.52,376.966 286.5,375C 296.006,364.482 303.506,352.649 309,339.5C 314.928,330.853 323.095,327.686 333.5,330C 347.238,335.21 350.738,344.377 344,357.5C 341.181,361.649 338.014,365.483 334.5,369C 320.955,380.718 307.288,392.218 293.5,403.5C 297.122,404.659 300.789,404.825 304.5,404C 308.5,402 312.5,400 316.5,398C 320.833,397.333 325.167,397.333 329.5,398C 331.717,399.268 333.717,400.768 335.5,402.5C 338.848,403.287 342.182,404.121 345.5,405C 349.077,406.852 350.077,409.518 348.5,413C 342.138,413.653 335.805,413.487 329.5,412.5C 327.047,411.355 324.713,411.688 322.5,413.5C 317.212,415.477 312.212,417.977 307.5,421C 287.084,426.65 266.417,427.817 245.5,424.5C 242.772,422.924 239.772,422.424 236.5,423C 234.368,424.62 234.035,426.454 235.5,428.5C 238.725,438.118 243.392,446.952 249.5,455C 225.019,447.837 201.352,438.504 178.5,427C 162.997,421.719 147.163,417.886 131,415.5C 129.743,415.15 129.409,414.483 130,413.5C 134.316,408.192 139.483,407.192 145.5,410.5C 156.368,402.725 167.368,402.558 178.5,410C 185.318,410.271 191.984,409.271 198.5,407C 185.822,401.48 173.488,395.313 161.5,388.5C 149.062,379.227 138.895,367.894 131,354.5C 127.932,346.121 126.766,337.454 127.5,328.5C 127.153,320.066 127.819,311.732 129.5,303.5C 130.413,297.196 131.08,290.863 131.5,284.5C 133.475,277.318 134.809,269.984 135.5,262.5C 137.651,250.548 139.818,238.548 142,226.5C 143.72,221.252 145.887,216.252 148.5,211.5C 155.101,203.544 163.101,197.544 172.5,193.5C 173.959,193.567 175.292,193.234 176.5,192.5C 184.048,190.706 191.381,188.206 198.5,185C 203.045,181.956 206.711,178.123 209.5,173.5C 213.081,168.486 214.081,163.153 212.5,157.5C 209.685,148.619 208.352,148.619 208.5,157.5C 207.973,161.283 206.64,164.783 204.5,168C 201.273,168.287 199.273,166.787 198.5,163.5C 198.826,154.983 198.493,146.65 197.5,138.5C 196.743,133.657 195.41,128.991 193.5,124.5C 192.838,120.843 192.171,117.176 191.5,113.5C 191.221,110.994 192.054,108.994 194,107.5C 194.27,103.627 194.77,99.7938 195.5,96C 192.821,92.5603 192.988,89.3936 196,86.5C 196.333,83.5 196.667,80.5 197,77.5C 199.377,73.7104 201.377,69.7104 203,65.5C 207.675,61.9911 211.841,57.9911 215.5,53.5C 216.325,49.8776 216.825,46.211 217,42.5C 218,40.8333 219,39.1667 220,37.5C 223.621,35.6024 226.788,33.1024 229.5,30C 236.791,26.7918 244.124,26.7918 251.5,30C 255.694,34.1937 259.86,38.3604 264,42.5C 264.173,46.5408 264.673,50.5408 265.5,54.5C 268.567,55.9466 270.734,58.28 272,61.5C 274.628,63.1255 276.961,65.1255 279,67.5C 280.442,71.511 282.442,75.1777 285,78.5C 285.082,83.2195 285.915,87.7195 287.5,92C 287.373,97.1694 287.04,102.336 286.5,107.5C 289.261,111.305 290.261,115.639 289.5,120.5 Z"/></g>
<g><path style="opacity:1" fill="#f2c4e7" d="M 359.5,324.5 C 356.902,320.562 353.902,316.895 350.5,313.5C 351.327,310.217 351.66,306.884 351.5,303.5C 356.791,298.274 361.125,292.274 364.5,285.5C 359.429,285.128 354.762,284.128 350.5,282.5C 351.264,274.755 349.097,268.088 344,262.5C 343.308,261.563 343.475,260.897 344.5,260.5C 366.999,263.626 387.999,259.126 407.5,247C 420.896,236.67 429.23,223.17 432.5,206.5C 400.222,208.933 367.889,210.266 335.5,210.5C 329.754,201.769 321.754,196.102 311.5,193.5C 323.61,179.616 331.776,163.616 336,145.5C 340.433,125.705 341.933,105.705 340.5,85.5C 323.757,97.5827 306.757,109.249 289.5,120.5C 290.261,115.639 289.261,111.305 286.5,107.5C 287.04,102.336 287.373,97.1694 287.5,92C 285.915,87.7195 285.082,83.2195 285,78.5C 282.442,75.1777 280.442,71.511 279,67.5C 276.961,65.1255 274.628,63.1255 272,61.5C 270.734,58.28 268.567,55.9466 265.5,54.5C 264.673,50.5408 264.173,46.5408 264,42.5C 259.86,38.3604 255.694,34.1937 251.5,30C 244.124,26.7918 236.791,26.7918 229.5,30C 226.788,33.1024 223.621,35.6024 220,37.5C 219,39.1667 218,40.8333 217,42.5C 216.825,46.211 216.325,49.8776 215.5,53.5C 211.841,57.9911 207.675,61.9911 203,65.5C 201.377,69.7104 199.377,73.7104 197,77.5C 196.667,80.5 196.333,83.5 196,86.5C 192.988,89.3936 192.821,92.5603 195.5,96C 194.77,99.7938 194.27,103.627 194,107.5C 192.054,108.994 191.221,110.994 191.5,113.5C 192.171,117.176 192.838,120.843 193.5,124.5C 175.095,111.78 156.762,98.78 138.5,85.5C 136.892,112.573 140.392,138.907 149,164.5C 153.536,175.075 159.702,184.575 167.5,193C 169.134,193.494 170.801,193.66 172.5,193.5C 163.101,197.544 155.101,203.544 148.5,211.5C 145.359,210.679 142.025,210.179 138.5,210C 116.167,209.667 93.8333,209.333 71.5,209C 63.9975,208.805 56.6642,207.638 49.5,205.5C 52.794,230.511 66.4606,247.344 90.5,256C 105.022,261.42 120.022,263.587 135.5,262.5C 134.809,269.984 133.475,277.318 131.5,284.5C 126.456,284.173 121.456,284.506 116.5,285.5C 119.875,292.274 124.209,298.274 129.5,303.5C 127.819,311.732 127.153,320.066 127.5,328.5C 124.733,327.949 122.4,326.616 120.5,324.5C 106.921,311.571 96.9206,296.237 90.5,278.5C 62.277,270.155 42.4437,252.489 31,225.5C 24.7852,207.03 22.4518,188.03 24,168.5C 37.9109,181.362 54.4109,187.529 73.5,187C 50.3365,153.523 40.3365,116.356 43.5,75.5C 65.5794,93.7047 89.9128,108.038 116.5,118.5C 116.941,100.11 118.108,81.7769 120,63.5C 121.335,58.162 122.669,52.8287 124,47.5C 124.759,44.2154 126.092,41.2154 128,38.5C 131.911,43.3224 135.578,48.3224 139,53.5C 152.029,68.3804 167.196,80.3804 184.5,89.5C 196.631,55.7061 215.298,26.0395 240.5,0.5C 265.578,26.548 284.911,56.2147 298.5,89.5C 308.973,82.1935 319.307,74.6935 329.5,67C 339.04,58.6524 346.373,48.819 351.5,37.5C 352.5,37.5 353.5,37.5 354.5,37.5C 356.216,44.4893 358.049,51.4893 360,58.5C 363.172,77.6914 364.339,97.0247 363.5,116.5C 390.643,107.427 414.977,93.427 436.5,74.5C 437.445,95.0527 435.612,115.386 431,135.5C 425.278,153.603 417.444,170.603 407.5,186.5C 426.389,187.042 442.723,181.042 456.5,168.5C 458.359,187.964 456.192,206.964 450,225.5C 439.434,252.21 420.268,269.377 392.5,277C 391.333,278.167 390.167,279.333 389,280.5C 382.921,297.734 373.088,312.401 359.5,324.5 Z"/></g>
<g><path style="opacity:1" fill="#f7f8fa" d="M 193.5,124.5 C 195.41,128.991 196.743,133.657 197.5,138.5C 188.659,142.69 181.159,148.69 175,156.5C 173.963,160.078 173.463,163.744 173.5,167.5C 174.37,175.85 175.37,184.183 176.5,192.5C 175.292,193.234 173.959,193.567 172.5,193.5C 170.801,193.66 169.134,193.494 167.5,193C 159.702,184.575 153.536,175.075 149,164.5C 140.392,138.907 136.892,112.573 138.5,85.5C 156.762,98.78 175.095,111.78 193.5,124.5 Z"/></g>
<g><path style="opacity:1" fill="#f7f7fa" d="M 311.5,193.5 C 307.851,192.733 304.518,191.4 301.5,189.5C 302.693,189.03 303.36,188.03 303.5,186.5C 303.882,181.305 305.049,176.305 307,171.5C 308.921,161.342 305.754,153.176 297.5,147C 293.072,144.459 288.738,141.959 284.5,139.5C 285.704,133.016 287.371,126.683 289.5,120.5C 306.757,109.249 323.757,97.5827 340.5,85.5C 341.933,105.705 340.433,125.705 336,145.5C 331.776,163.616 323.61,179.616 311.5,193.5 Z"/></g>
<g><path style="opacity:1" fill="#208fa0" d="M 239.5,101.5 C 245.005,104.171 244.671,105.838 238.5,106.5C 238.366,104.708 238.699,103.042 239.5,101.5 Z"/></g>
<g><path style="opacity:1" fill="#f8f7fa" d="M 67.5,119.5 C 84.2653,128.952 101.932,136.452 120.5,142C 124.084,158.25 129.75,173.75 137.5,188.5C 126.167,189.833 114.833,189.833 103.5,188.5C 84.3967,169.296 72.3967,146.296 67.5,119.5 Z"/></g>
<g><path style="opacity:1" fill="#f8f7fa" d="M 409.5,118.5 C 410.5,118.5 411.5,118.5 412.5,118.5C 407.584,145.474 395.584,168.64 376.5,188C 365.172,188.5 353.838,188.667 342.5,188.5C 345.649,181.532 348.816,174.532 352,167.5C 354.65,158.897 356.984,150.23 359,141.5C 376.793,135.856 393.627,128.189 409.5,118.5 Z"/></g>
<g><path style="opacity:1" fill="#f2c3e6" d="M 284.5,139.5 C 288.738,141.959 293.072,144.459 297.5,147C 305.754,153.176 308.921,161.342 307,171.5C 305.049,176.305 303.882,181.305 303.5,186.5C 303.36,188.03 302.693,189.03 301.5,189.5C 290.897,186.698 281.23,182.031 272.5,175.5C 272.5,174.833 272.5,174.167 272.5,173.5C 278.1,173.038 282.434,170.538 285.5,166C 285.164,164.97 284.497,164.47 283.5,164.5C 283.601,158.643 283.267,152.81 282.5,147C 282.408,144.179 283.074,141.679 284.5,139.5 Z"/></g>
<g><path style="opacity:1" fill="#f0c2e5" d="M 197.5,138.5 C 198.493,146.65 198.826,154.983 198.5,163.5C 194.645,165.269 194.645,167.436 198.5,170C 201.893,172.076 205.56,173.242 209.5,173.5C 206.711,178.123 203.045,181.956 198.5,185C 191.381,188.206 184.048,190.706 176.5,192.5C 175.37,184.183 174.37,175.85 173.5,167.5C 173.463,163.744 173.963,160.078 175,156.5C 181.159,148.69 188.659,142.69 197.5,138.5 Z"/></g>
<g><path style="opacity:1" fill="#d1b0cf" d="M 212.5,157.5 C 211.167,157.5 209.833,157.5 208.5,157.5C 208.352,148.619 209.685,148.619 212.5,157.5 Z"/></g>
<g><path style="opacity:1" fill="#edeef1" d="M 208.5,157.5 C 209.833,157.5 211.167,157.5 212.5,157.5C 214.081,163.153 213.081,168.486 209.5,173.5C 205.56,173.242 201.893,172.076 198.5,170C 194.645,167.436 194.645,165.269 198.5,163.5C 199.273,166.787 201.273,168.287 204.5,168C 206.64,164.783 207.973,161.283 208.5,157.5 Z"/></g>
<g><path style="opacity:1" fill="#eceaef" d="M 283.5,164.5 C 284.497,164.47 285.164,164.97 285.5,166C 282.434,170.538 278.1,173.038 272.5,173.5C 267.599,166.618 267.432,159.618 272,152.5C 272.702,157.683 274.036,162.683 276,167.5C 279.748,170.324 282.248,169.324 283.5,164.5 Z"/></g>
<g><path style="opacity:1" fill="#fd9902" d="M 272.5,175.5 C 281.23,182.031 290.897,186.698 301.5,189.5C 304.518,191.4 307.851,192.733 311.5,193.5C 321.754,196.102 329.754,201.769 335.5,210.5C 339.998,217.487 342.831,225.154 344,233.5C 344.5,242.494 344.666,251.494 344.5,260.5C 343.475,260.897 343.308,261.563 344,262.5C 349.097,268.088 351.264,274.755 350.5,282.5C 349.408,285.105 348.741,287.938 348.5,291C 350.2,294.946 351.2,299.112 351.5,303.5C 351.66,306.884 351.327,310.217 350.5,313.5C 353.902,316.895 356.902,320.562 359.5,324.5C 359.5,324.833 359.5,325.167 359.5,325.5C 360.231,331.326 361.398,336.992 363,342.5C 363.169,354.341 363.669,366.007 364.5,377.5C 365.15,387.733 366.983,397.733 370,407.5C 376.127,411.885 382.627,415.718 389.5,419C 397.001,425.507 400.168,433.673 399,443.5C 395.857,454.313 389.357,462.479 379.5,468C 365.229,474.037 350.563,478.537 335.5,481.5C 317.411,482.688 300.078,479.688 283.5,472.5C 283.167,472.833 282.833,473.167 282.5,473.5C 283.467,475.63 284.634,477.63 286,479.5C 290.738,484.074 295.905,488.074 301.5,491.5C 292.636,499.23 282.97,500.397 272.5,495C 270.5,494.833 268.5,494.667 266.5,494.5C 257.33,496.417 248.163,498.417 239,500.5C 228.575,498.234 218.075,496.234 207.5,494.5C 202.585,495.196 197.752,496.196 193,497.5C 191.076,497.419 189.243,497.086 187.5,496.5C 185.243,496.038 183.243,495.038 181.5,493.5C 188.669,488.168 194.169,481.502 198,473.5C 198.749,472.365 198.583,471.365 197.5,470.5C 181.02,475.382 164.353,479.548 147.5,483C 136.053,484.051 124.72,483.384 113.5,481C 104.411,476.524 95.4111,471.858 86.5,467C 83,463.5 79.5,460 76,456.5C 64.9855,438.962 67.8188,424.129 84.5,412C 109.616,402.447 135.283,394.613 161.5,388.5C 173.488,395.313 185.822,401.48 198.5,407C 191.984,409.271 185.318,410.271 178.5,410C 167.368,402.558 156.368,402.725 145.5,410.5C 139.483,407.192 134.316,408.192 130,413.5C 129.409,414.483 129.743,415.15 131,415.5C 147.163,417.886 162.997,421.719 178.5,427C 201.352,438.504 225.019,447.837 249.5,455C 243.392,446.952 238.725,438.118 235.5,428.5C 235.5,427.167 235.5,425.833 235.5,424.5C 238.833,424.5 242.167,424.5 245.5,424.5C 266.417,427.817 287.084,426.65 307.5,421C 312.212,417.977 317.212,415.477 322.5,413.5C 324.861,413.326 327.194,412.993 329.5,412.5C 335.805,413.487 342.138,413.653 348.5,413C 350.077,409.518 349.077,406.852 345.5,405C 342.182,404.121 338.848,403.287 335.5,402.5C 333.717,400.768 331.717,399.268 329.5,398C 325.167,397.333 320.833,397.333 316.5,398C 312.5,400 308.5,402 304.5,404C 300.789,404.825 297.122,404.659 293.5,403.5C 307.288,392.218 320.955,380.718 334.5,369C 338.014,365.483 341.181,361.649 344,357.5C 350.738,344.377 347.238,335.21 333.5,330C 323.095,327.686 314.928,330.853 309,339.5C 303.506,352.649 296.006,364.482 286.5,375C 282.52,376.966 278.52,378.966 274.5,381C 268.441,388.126 260.775,391.792 251.5,392C 248.167,392.667 244.833,392.667 241.5,392C 233.186,387.783 224.853,387.45 216.5,391C 202.368,380.368 189.701,368.201 178.5,354.5C 179.469,347.86 179.469,341.194 178.5,334.5C 179.441,332.228 180.774,330.228 182.5,328.5C 187.866,325.979 192.866,322.812 197.5,319C 214.946,304.229 229.446,287.062 241,267.5C 255.49,238.213 265.99,207.546 272.5,175.5 Z"/></g>
<g><path style="opacity:1" fill="#f8f8f9" d="M 344.5,260.5 C 344.666,251.494 344.5,242.494 344,233.5C 342.831,225.154 339.998,217.487 335.5,210.5C 367.889,210.266 400.222,208.933 432.5,206.5C 429.23,223.17 420.896,236.67 407.5,247C 387.999,259.126 366.999,263.626 344.5,260.5 Z"/></g>
<g><path style="opacity:1" fill="#f7f7fa" d="M 148.5,211.5 C 145.887,216.252 143.72,221.252 142,226.5C 139.818,238.548 137.651,250.548 135.5,262.5C 120.022,263.587 105.022,261.42 90.5,256C 66.4606,247.344 52.794,230.511 49.5,205.5C 56.6642,207.638 63.9975,208.805 71.5,209C 93.8333,209.333 116.167,209.667 138.5,210C 142.025,210.179 145.359,210.679 148.5,211.5 Z"/></g>
<g><path style="opacity:1" fill="#f7f6f9" d="M 131.5,284.5 C 131.08,290.863 130.413,297.196 129.5,303.5C 124.209,298.274 119.875,292.274 116.5,285.5C 121.456,284.506 126.456,284.173 131.5,284.5 Z"/></g>
<g><path style="opacity:1" fill="#f8f6f6" d="M 350.5,282.5 C 354.762,284.128 359.429,285.128 364.5,285.5C 361.125,292.274 356.791,298.274 351.5,303.5C 351.2,299.112 350.2,294.946 348.5,291C 348.741,287.938 349.408,285.105 350.5,282.5 Z"/></g>
<g><path style="opacity:1" fill="#edeef1" d="M 180.5,319.5 C 175.378,319.375 170.044,319.375 164.5,319.5C 164.5,318.167 164.5,316.833 164.5,315.5C 166.485,307.893 168.318,300.226 170,292.5C 174.967,300.895 178.467,309.895 180.5,319.5 Z"/></g>
<g><path style="opacity:1" fill="#f0c2e5" d="M 164.5,315.5 C 164.5,316.833 164.5,318.167 164.5,319.5C 170.044,319.375 175.378,319.375 180.5,319.5C 182.126,322.246 182.793,325.246 182.5,328.5C 180.774,330.228 179.441,332.228 178.5,334.5C 177.539,336.265 177.205,338.265 177.5,340.5C 172.833,340.5 168.167,340.5 163.5,340.5C 162.835,337.351 162.502,334.018 162.5,330.5C 162.334,325.245 163.001,320.245 164.5,315.5 Z"/></g>
<g><path style="opacity:1" fill="#f0eff2" d="M 163.5,340.5 C 168.167,340.5 172.833,340.5 177.5,340.5C 178.833,344.833 178.833,349.167 177.5,353.5C 172.807,349.139 168.141,344.805 163.5,340.5 Z"/></g>
<g><path style="opacity:1" fill="#f7d8ac" d="M 178.5,334.5 C 179.469,341.194 179.469,347.86 178.5,354.5C 177.833,354.5 177.5,354.167 177.5,353.5C 178.833,349.167 178.833,344.833 177.5,340.5C 177.205,338.265 177.539,336.265 178.5,334.5 Z"/></g>
<g><path style="opacity:1" fill="#fdbf54" d="M 359.5,325.5 C 361.873,330.129 363.373,335.129 364,340.5C 364.5,352.829 364.667,365.162 364.5,377.5C 363.669,366.007 363.169,354.341 363,342.5C 361.398,336.992 360.231,331.326 359.5,325.5 Z"/></g>
<g><path style="opacity:1" fill="#a77526" d="M 329.5,412.5 C 327.194,412.993 324.861,413.326 322.5,413.5C 324.713,411.688 327.047,411.355 329.5,412.5 Z"/></g>
<g><path style="opacity:1" fill="#c5831c" d="M 245.5,424.5 C 242.167,424.5 238.833,424.5 235.5,424.5C 235.5,425.833 235.5,427.167 235.5,428.5C 234.035,426.454 234.368,424.62 236.5,423C 239.772,422.424 242.772,422.924 245.5,424.5 Z"/></g>
<g><path style="opacity:1" fill="#fdfcfb" d="M 335.5,481.5 C 336.412,482.738 336.579,484.072 336,485.5C 334.874,484.056 333.374,483.39 331.5,483.5C 323.06,484.003 314.56,483.337 306,481.5C 302.846,481.492 302.679,482.158 305.5,483.5C 303.696,484.768 301.696,485.435 299.5,485.5C 299.651,488.718 300.484,489.051 302,486.5C 304,489.833 304,493.167 302,496.5C 301.692,495.692 301.192,495.025 300.5,494.5C 299.738,495.628 299.071,496.795 298.5,498C 295.796,498.638 293.129,499.304 290.5,500C 364.166,500.5 437.833,500.667 511.5,500.5C 511.5,501.5 511.5,502.5 511.5,503.5C 340.833,503.5 170.167,503.5 -0.5,503.5C -0.5,502.5 -0.5,501.5 -0.5,500.5C 64.5009,500.667 129.501,500.5 194.5,500C 192.444,499.689 190.444,499.189 188.5,498.5C 187.702,498.043 187.369,497.376 187.5,496.5C 189.243,497.086 191.076,497.419 193,497.5C 197.752,496.196 202.585,495.196 207.5,494.5C 218.075,496.234 228.575,498.234 239,500.5C 248.163,498.417 257.33,496.417 266.5,494.5C 268.5,494.667 270.5,494.833 272.5,495C 282.97,500.397 292.636,499.23 301.5,491.5C 295.905,488.074 290.738,484.074 286,479.5C 284.634,477.63 283.467,475.63 282.5,473.5C 282.833,473.167 283.167,472.833 283.5,472.5C 300.078,479.688 317.411,482.688 335.5,481.5 Z"/></g>
</svg>
