<?xml version="1.0" encoding="UTF-8"?>
<!DOCTYPE svg PUBLIC "-//W3C//DTD SVG 1.1//EN" "http://www.w3.org/Graphics/SVG/1.1/DTD/svg11.dtd">
<svg xmlns="http://www.w3.org/2000/svg" version="1.1" width="564px" height="564px" style="shape-rendering:geometricPrecision; text-rendering:geometricPrecision; image-rendering:optimizeQuality; fill-rule:evenodd; clip-rule:evenodd" xmlns:xlink="http://www.w3.org/1999/xlink">
<g><path style="opacity:1" fill="#fafafa" d="M -0.5,-0.5 C 187.5,-0.5 375.5,-0.5 563.5,-0.5C 563.5,187.5 563.5,375.5 563.5,563.5C 375.5,563.5 187.5,563.5 -0.5,563.5C -0.5,375.5 -0.5,187.5 -0.5,-0.5 Z"/></g>
<g><path style="opacity:1" fill="#f1c3e7" d="M 401.5,353.5 C 398.351,349.905 395.184,346.238 392,342.5C 391.51,341.207 391.343,339.873 391.5,338.5C 392.166,335.642 392.833,332.642 393.5,329.5C 398.822,325.004 402.822,319.504 405.5,313C 400.598,311.176 395.598,311.009 390.5,312.5C 391.818,304.282 389.985,296.949 385,290.5C 384.235,288.934 384.402,287.601 385.5,286.5C 409.506,292.1 431.84,287.267 452.5,272C 464.611,261.945 471.611,249.112 473.5,233.5C 441.555,236.674 409.555,238.341 377.5,238.5C 370.868,230.21 362.534,224.21 352.5,220.5C 363.337,209.172 370.837,195.839 375,180.5C 381.614,158.254 383.781,135.587 381.5,112.5C 364.963,124.928 347.963,136.594 330.5,147.5C 330.998,143.781 330.164,140.447 328,137.5C 329.076,122.746 326.41,108.746 320,95.5C 314.667,91.5 310,86.8333 306,81.5C 305.857,77.3808 305.19,73.3808 304,69.5C 299.984,65.7635 296.151,61.9302 292.5,58C 284.645,54.4052 276.978,54.7385 269.5,59C 266.424,61.6205 263.258,64.1205 260,66.5C 257.968,71.2837 257.134,76.2837 257.5,81.5C 255.61,81.2965 254.11,81.9632 253,83.5C 248.667,89.1667 244.333,94.8333 240,100.5C 236.181,111.829 234.514,123.496 235,135.5C 233.092,136.818 232.258,138.652 232.5,141C 233.031,143.817 233.364,146.65 233.5,149.5C 215.233,137.748 197.067,125.748 179,113.5C 175.602,148.803 182.602,181.803 200,212.5C 203.119,217.638 207.619,220.638 213.5,221.5C 209.054,224.226 204.387,226.726 199.5,229C 195.498,232.197 191.831,235.697 188.5,239.5C 182.762,237.866 176.762,237.033 170.5,237C 149.833,236.667 129.167,236.333 108.5,236C 102.167,235.084 95.8341,234.25 89.5,233.5C 93.1724,259.311 107.506,276.144 132.5,284C 145.344,289.37 158.677,291.37 172.5,290C 174.452,289.634 176.118,288.801 177.5,287.5C 176.032,296.323 174.366,304.989 172.5,313.5C 167.944,311.558 162.944,310.892 157.5,311.5C 158.153,316.003 159.987,320.003 163,323.5C 164.833,325.833 166.667,328.167 168.5,330.5C 169.183,330.137 169.85,329.804 170.5,329.5C 169.074,342.454 168.407,355.454 168.5,368.5C 167.448,364.348 166.614,360.015 166,355.5C 149.754,343.019 138.421,327.019 132,307.5C 124.397,303.282 116.564,299.449 108.5,296C 86.8634,283.606 73.3634,265.106 68,240.5C 64.8007,225.988 63.8007,211.321 65,196.5C 78.8472,208.514 95.0138,214.848 113.5,215.5C 109.301,207.433 104.801,199.433 100,191.5C 87.7712,163.465 82.4379,134.131 84,103.5C 103.17,118.312 123.67,131.145 145.5,142C 149.716,143.684 154.049,144.851 158.5,145.5C 156.532,119.997 159.032,94.9965 166,70.5C 166.583,68.9984 167.416,67.6651 168.5,66.5C 176.133,76.238 184.133,85.738 192.5,95C 202.07,103.033 212.237,110.2 223,116.5C 223.772,116.355 224.439,116.022 225,115.5C 236.505,87.4808 251.838,61.8141 271,38.5C 274.047,35.1168 277.38,32.1168 281,29.5C 284.928,32.4226 288.595,35.7559 292,39.5C 303.568,53.6302 313.901,68.6302 323,84.5C 328.277,95.3892 333.777,106.056 339.5,116.5C 355.879,107.3 370.379,95.6337 383,81.5C 385.907,75.7638 389.74,70.7638 394.5,66.5C 398.427,77.8744 401.26,89.541 403,101.5C 403.5,115.829 403.667,130.163 403.5,144.5C 416.279,141.183 428.279,136.017 439.5,129C 452.333,120.167 465.167,111.333 478,102.5C 479.813,142.927 469.646,179.927 447.5,213.5C 466.484,214.617 483.15,208.95 497.5,196.5C 500.417,226.566 493.25,253.899 476,278.5C 464.627,290.94 450.794,299.44 434.5,304C 432.714,304.785 431.214,305.951 430,307.5C 426.802,316.23 422.802,324.563 418,332.5C 412.262,339.394 406.762,346.394 401.5,353.5 Z"/></g>
<g><path style="opacity:1" fill="#2d3e50" d="M 330.5,147.5 C 328.23,152.58 326.897,157.913 326.5,163.5C 325.034,164.347 324.2,165.68 324,167.5C 323.5,175.827 323.334,184.16 323.5,192.5C 322.576,196.269 320.41,197.269 317,195.5C 315.289,190.615 313.955,185.615 313,180.5C 307.194,187.365 307.027,194.365 312.5,201.5C 312.5,202.167 312.5,202.833 312.5,203.5C 307.028,235.415 296.862,265.749 282,294.5C 269.818,315.965 253.985,334.465 234.5,350C 231.14,352.546 227.474,354.379 223.5,355.5C 222.87,351.952 221.87,348.619 220.5,345.5C 219.008,336.523 215.841,328.19 211,320.5C 208.362,329.385 206.196,338.385 204.5,347.5C 202.652,353.684 202.152,360.017 203,366.5C 203.417,367.756 204.25,368.423 205.5,368.5C 209.207,373.208 213.54,377.208 218.5,380.5C 229.598,395.766 243.098,408.433 259,418.5C 266.266,414.387 273.433,414.554 280.5,419C 294.629,421.811 306.629,418.144 316.5,408C 319.833,406.333 323.167,404.667 326.5,403C 336.128,392.918 343.628,381.418 349,368.5C 357.204,356.818 367.704,354.318 380.5,361C 388.541,368.382 389.708,376.882 384,386.5C 379.867,391.634 375.367,396.468 370.5,401C 358.642,410.698 346.976,420.531 335.5,430.5C 334.957,430.56 334.624,430.893 334.5,431.5C 337.309,432.8 339.976,432.8 342.5,431.5C 347.67,430.254 352.67,428.42 357.5,426C 364.582,424.351 370.915,425.685 376.5,430C 379.883,430.875 383.216,431.875 386.5,433C 389.932,435.367 390.265,438.034 387.5,441C 379.512,440.735 371.512,440.735 363.5,441C 355.95,444.608 348.283,447.942 340.5,451C 334.857,451.864 329.19,452.531 323.5,453C 307.794,453.46 292.128,453.126 276.5,452C 275.402,454.498 275.568,456.998 277,459.5C 280.701,467.849 285.201,475.683 290.5,483C 280.924,481.031 271.591,478.031 262.5,474C 247.833,467.667 233.167,461.333 218.5,455C 202.722,449.626 186.722,445.293 170.5,442C 171.743,440.846 172.743,439.512 173.5,438C 181.69,438.54 189.357,436.873 196.5,433C 204.572,430.259 211.906,431.592 218.5,437C 225.054,438.081 231.388,437.414 237.5,435C 237.833,434.667 238.167,434.333 238.5,434C 225.582,428.875 213.249,422.708 201.5,415.5C 188.284,406.114 178.117,394.114 171,379.5C 169.438,375.986 168.605,372.319 168.5,368.5C 168.407,355.454 169.074,342.454 170.5,329.5C 171.654,324.27 172.32,318.936 172.5,313.5C 174.366,304.989 176.032,296.323 177.5,287.5C 178.878,270.938 182.545,254.938 188.5,239.5C 191.831,235.697 195.498,232.197 199.5,229C 204.387,226.726 209.054,224.226 213.5,221.5C 214.609,221.443 215.609,221.11 216.5,220.5C 224.946,218.962 232.946,216.129 240.5,212C 244.712,209.289 248.046,205.789 250.5,201.5C 253.673,196.389 254.673,191.055 253.5,185.5C 250.8,176.628 249.133,176.628 248.5,185.5C 248.105,188.686 247.105,191.686 245.5,194.5C 242.147,196.14 240.147,195.14 239.5,191.5C 239.391,186.14 239.724,180.807 240.5,175.5C 240.469,172.074 239.469,169.074 237.5,166.5C 237.263,160.555 235.93,154.888 233.5,149.5C 233.364,146.65 233.031,143.817 232.5,141C 232.258,138.652 233.092,136.818 235,135.5C 234.514,123.496 236.181,111.829 240,100.5C 244.333,94.8333 248.667,89.1667 253,83.5C 254.11,81.9632 255.61,81.2965 257.5,81.5C 257.134,76.2837 257.968,71.2837 260,66.5C 263.258,64.1205 266.424,61.6205 269.5,59C 276.978,54.7385 284.645,54.4052 292.5,58C 296.151,61.9302 299.984,65.7635 304,69.5C 305.19,73.3808 305.857,77.3808 306,81.5C 310,86.8333 314.667,91.5 320,95.5C 326.41,108.746 329.076,122.746 328,137.5C 330.164,140.447 330.998,143.781 330.5,147.5 Z"/></g>
<g><path style="opacity:1" fill="#f6f6f9" d="M 352.5,220.5 C 348.829,220.243 345.495,219.243 342.5,217.5C 346.598,207.649 348.098,197.316 347,186.5C 342.909,177.91 336.409,171.91 327.5,168.5C 326.548,166.955 326.215,165.288 326.5,163.5C 326.897,157.913 328.23,152.58 330.5,147.5C 347.963,136.594 364.963,124.928 381.5,112.5C 383.781,135.587 381.614,158.254 375,180.5C 370.837,195.839 363.337,209.172 352.5,220.5 Z"/></g>
<g><path style="opacity:1" fill="#f6f6f9" d="M 233.5,149.5 C 235.93,154.888 237.263,160.555 237.5,166.5C 233.939,169.532 229.939,172.032 225.5,174C 220.854,177.642 217.354,182.142 215,187.5C 214.679,198.545 215.179,209.545 216.5,220.5C 215.609,221.11 214.609,221.443 213.5,221.5C 207.619,220.638 203.119,217.638 200,212.5C 182.602,181.803 175.602,148.803 179,113.5C 197.067,125.748 215.233,137.748 233.5,149.5 Z"/></g>
<g><path style="opacity:1" fill="#3b98a9" d="M 280.5,128.5 C 282.975,129.687 283.975,131.687 283.5,134.5C 278.294,134.541 277.294,132.541 280.5,128.5 Z"/></g>
<g><path style="opacity:1" fill="#f7f6f9" d="M 451.5,145.5 C 452.586,145.62 453.253,146.287 453.5,147.5C 448.213,170.405 438.379,191.072 424,209.5C 421.736,212.433 418.902,214.6 415.5,216C 404.839,216.5 394.172,216.667 383.5,216.5C 386.086,208.653 389.253,200.986 393,193.5C 395.95,185.654 398.283,177.654 400,169.5C 418.134,163.516 435.3,155.516 451.5,145.5 Z"/></g>
<g><path style="opacity:1" fill="#f7f6f9" d="M 108.5,146.5 C 124.938,156.094 142.271,163.761 160.5,169.5C 164.119,178.96 167.286,188.627 170,198.5C 173.106,204.379 175.94,210.379 178.5,216.5C 167.849,217.666 157.182,217.832 146.5,217C 138.617,212.118 132.451,205.618 128,197.5C 120.365,184.898 114.365,171.565 110,157.5C 108.892,153.914 108.392,150.247 108.5,146.5 Z"/></g>
<g><path style="opacity:1" fill="#f1c3e6" d="M 326.5,163.5 C 326.215,165.288 326.548,166.955 327.5,168.5C 336.409,171.91 342.909,177.91 347,186.5C 348.098,197.316 346.598,207.649 342.5,217.5C 338.089,216.307 333.756,214.807 329.5,213C 323.779,209.809 318.112,206.642 312.5,203.5C 312.5,202.833 312.5,202.167 312.5,201.5C 316.44,201.242 320.107,200.076 323.5,198C 325.607,196.736 326.607,194.903 326.5,192.5C 325.5,192.5 324.5,192.5 323.5,192.5C 323.334,184.16 323.5,175.827 324,167.5C 324.2,165.68 325.034,164.347 326.5,163.5 Z"/></g>
<g><path style="opacity:1" fill="#f0c2e5" d="M 237.5,166.5 C 239.469,169.074 240.469,172.074 240.5,175.5C 239.724,180.807 239.391,186.14 239.5,191.5C 236.577,192.163 235.91,193.83 237.5,196.5C 241.315,199.576 245.648,201.243 250.5,201.5C 248.046,205.789 244.712,209.289 240.5,212C 232.946,216.129 224.946,218.962 216.5,220.5C 215.179,209.545 214.679,198.545 215,187.5C 217.354,182.142 220.854,177.642 225.5,174C 229.939,172.032 233.939,169.532 237.5,166.5 Z"/></g>
<g><path style="opacity:1" fill="#c9afca" d="M 253.5,185.5 C 251.833,185.5 250.167,185.5 248.5,185.5C 249.133,176.628 250.8,176.628 253.5,185.5 Z"/></g>
<g><path style="opacity:1" fill="#ebeaed" d="M 323.5,192.5 C 324.5,192.5 325.5,192.5 326.5,192.5C 326.607,194.903 325.607,196.736 323.5,198C 320.107,200.076 316.44,201.242 312.5,201.5C 307.027,194.365 307.194,187.365 313,180.5C 313.955,185.615 315.289,190.615 317,195.5C 320.41,197.269 322.576,196.269 323.5,192.5 Z"/></g>
<g><path style="opacity:1" fill="#eeeeef" d="M 248.5,185.5 C 250.167,185.5 251.833,185.5 253.5,185.5C 254.673,191.055 253.673,196.389 250.5,201.5C 245.648,201.243 241.315,199.576 237.5,196.5C 235.91,193.83 236.577,192.163 239.5,191.5C 240.147,195.14 242.147,196.14 245.5,194.5C 247.105,191.686 248.105,188.686 248.5,185.5 Z"/></g>
<g><path style="opacity:1" fill="#fd9903" d="M 312.5,203.5 C 318.112,206.642 323.779,209.809 329.5,213C 333.756,214.807 338.089,216.307 342.5,217.5C 345.495,219.243 348.829,220.243 352.5,220.5C 362.534,224.21 370.868,230.21 377.5,238.5C 379.931,245.042 382.098,251.709 384,258.5C 384.248,267.866 384.748,277.2 385.5,286.5C 384.402,287.601 384.235,288.934 385,290.5C 389.985,296.949 391.818,304.282 390.5,312.5C 389.914,314.243 389.581,316.076 389.5,318C 391.107,324.725 391.774,331.558 391.5,338.5C 391.343,339.873 391.51,341.207 392,342.5C 395.184,346.238 398.351,349.905 401.5,353.5C 402.266,358.499 403.1,363.499 404,368.5C 404.292,383.851 404.959,399.184 406,414.5C 406.439,421.026 407.772,427.36 410,433.5C 411.167,436 413,437.833 415.5,439C 422.934,441.795 429.434,445.962 435,451.5C 443.677,472.013 437.843,487.18 417.5,497C 402.354,503.075 386.687,507.075 370.5,509C 363.459,509.664 356.459,509.331 349.5,508C 341.213,505.904 333.046,503.404 325,500.5C 324.5,500.833 324,501.167 323.5,501.5C 324.467,503.63 325.634,505.63 327,507.5C 331.485,511.408 336.152,515.074 341,518.5C 341.667,519.167 341.667,519.833 341,520.5C 336.673,524.163 331.673,526.163 326,526.5C 319.675,524.84 313.342,523.173 307,521.5C 298.134,523.734 289.3,526.067 280.5,528.5C 271.77,526.984 263.103,525.151 254.5,523C 247.256,522.367 240.09,522.867 233,524.5C 230.37,524.536 227.87,524.036 225.5,523C 223.993,522.163 223.493,520.996 224,519.5C 231.441,514.238 236.275,507.238 238.5,498.5C 223.265,502.642 207.932,506.475 192.5,510C 178.504,512.774 164.838,511.774 151.5,507C 138.207,502.113 126.707,494.613 117,484.5C 106.47,468.055 108.636,453.555 123.5,441C 128.551,438.092 133.884,435.758 139.5,434C 160.066,427.309 180.733,421.143 201.5,415.5C 213.249,422.708 225.582,428.875 238.5,434C 238.167,434.333 237.833,434.667 237.5,435C 231.388,437.414 225.054,438.081 218.5,437C 211.906,431.592 204.572,430.259 196.5,433C 189.357,436.873 181.69,438.54 173.5,438C 172.743,439.512 171.743,440.846 170.5,442C 186.722,445.293 202.722,449.626 218.5,455C 233.167,461.333 247.833,467.667 262.5,474C 271.591,478.031 280.924,481.031 290.5,483C 285.201,475.683 280.701,467.849 277,459.5C 275.568,456.998 275.402,454.498 276.5,452C 292.128,453.126 307.794,453.46 323.5,453C 329.19,452.531 334.857,451.864 340.5,451C 348.283,447.942 355.95,444.608 363.5,441C 371.512,440.735 379.512,440.735 387.5,441C 390.265,438.034 389.932,435.367 386.5,433C 383.216,431.875 379.883,430.875 376.5,430C 370.915,425.685 364.582,424.351 357.5,426C 352.67,428.42 347.67,430.254 342.5,431.5C 339.941,431.802 337.607,431.468 335.5,430.5C 346.976,420.531 358.642,410.698 370.5,401C 375.367,396.468 379.867,391.634 384,386.5C 389.708,376.882 388.541,368.382 380.5,361C 367.704,354.318 357.204,356.818 349,368.5C 343.628,381.418 336.128,392.918 326.5,403C 323.167,404.667 319.833,406.333 316.5,408C 306.629,418.144 294.629,421.811 280.5,419C 273.433,414.554 266.266,414.387 259,418.5C 243.098,408.433 229.598,395.766 218.5,380.5C 219.734,378.799 220.401,376.799 220.5,374.5C 219.79,371.201 219.457,367.867 219.5,364.5C 220.553,361.393 221.886,358.393 223.5,355.5C 227.474,354.379 231.14,352.546 234.5,350C 253.985,334.465 269.818,315.965 282,294.5C 296.862,265.749 307.028,235.415 312.5,203.5 Z"/></g>
<g><path style="opacity:1" fill="#f7f6f9" d="M 385.5,286.5 C 384.748,277.2 384.248,267.866 384,258.5C 382.098,251.709 379.931,245.042 377.5,238.5C 409.555,238.341 441.555,236.674 473.5,233.5C 471.611,249.112 464.611,261.945 452.5,272C 431.84,287.267 409.506,292.1 385.5,286.5 Z"/></g>
<g><path style="opacity:1" fill="#f6f6f9" d="M 188.5,239.5 C 182.545,254.938 178.878,270.938 177.5,287.5C 176.118,288.801 174.452,289.634 172.5,290C 158.677,291.37 145.344,289.37 132.5,284C 107.506,276.144 93.1724,259.311 89.5,233.5C 95.8341,234.25 102.167,235.084 108.5,236C 129.167,236.333 149.833,236.667 170.5,237C 176.762,237.033 182.762,237.866 188.5,239.5 Z"/></g>
<g><path style="opacity:1" fill="#f5f4f8" d="M 172.5,313.5 C 172.32,318.936 171.654,324.27 170.5,329.5C 169.85,329.804 169.183,330.137 168.5,330.5C 166.667,328.167 164.833,325.833 163,323.5C 159.987,320.003 158.153,316.003 157.5,311.5C 162.944,310.892 167.944,311.558 172.5,313.5 Z"/></g>
<g><path style="opacity:1" fill="#f7f3f5" d="M 391.5,338.5 C 391.774,331.558 391.107,324.725 389.5,318C 389.581,316.076 389.914,314.243 390.5,312.5C 395.598,311.009 400.598,311.176 405.5,313C 402.822,319.504 398.822,325.004 393.5,329.5C 392.833,332.642 392.166,335.642 391.5,338.5 Z"/></g>
<g><path style="opacity:1" fill="#f1f1f4" d="M 220.5,345.5 C 219.737,346.268 218.737,346.768 217.5,347C 213.179,347.499 208.846,347.666 204.5,347.5C 206.196,338.385 208.362,329.385 211,320.5C 215.841,328.19 219.008,336.523 220.5,345.5 Z"/></g>
<g><path style="opacity:1" fill="#efc2e5" d="M 220.5,345.5 C 221.87,348.619 222.87,351.952 223.5,355.5C 221.886,358.393 220.553,361.393 219.5,364.5C 218.566,365.568 218.232,366.901 218.5,368.5C 214.141,367.35 209.808,367.35 205.5,368.5C 204.25,368.423 203.417,367.756 203,366.5C 202.152,360.017 202.652,353.684 204.5,347.5C 208.846,347.666 213.179,347.499 217.5,347C 218.737,346.768 219.737,346.268 220.5,345.5 Z"/></g>
<g><path style="opacity:1" fill="#f4efee" d="M 219.5,364.5 C 219.457,367.867 219.79,371.201 220.5,374.5C 220.401,376.799 219.734,378.799 218.5,380.5C 213.54,377.208 209.207,373.208 205.5,368.5C 209.808,367.35 214.141,367.35 218.5,368.5C 218.232,366.901 218.566,365.568 219.5,364.5 Z"/></g>
<g><path style="opacity:1" fill="#bb9455" d="M 335.5,430.5 C 337.607,431.468 339.941,431.802 342.5,431.5C 339.976,432.8 337.309,432.8 334.5,431.5C 334.624,430.893 334.957,430.56 335.5,430.5 Z"/></g>
</svg>
