<?xml version="1.0" encoding="UTF-8"?>
<!DOCTYPE svg PUBLIC "-//W3C//DTD SVG 1.1//EN" "http://www.w3.org/Graphics/SVG/1.1/DTD/svg11.dtd">
<svg xmlns="http://www.w3.org/2000/svg" version="1.1" width="256px" height="256px" style="shape-rendering:geometricPrecision; text-rendering:geometricPrecision; image-rendering:optimizeQuality; fill-rule:evenodd; clip-rule:evenodd" xmlns:xlink="http://www.w3.org/1999/xlink">
<g><path style="opacity:0.02" fill="#303030" d="M -0.5,-0.5 C 0.166667,-0.5 0.833333,-0.5 1.5,-0.5C 1.16667,0.5 0.5,1.16667 -0.5,1.5C -0.5,0.833333 -0.5,0.166667 -0.5,-0.5 Z"/></g>
<g><path style="opacity:0.024" fill="#2d2d2d" d="M 16.5,-0.5 C 18.1667,-0.5 19.8333,-0.5 21.5,-0.5C 14.5,7.16667 7.16667,14.5 -0.5,21.5C -0.5,19.8333 -0.5,18.1667 -0.5,16.5C 5.5,11.1667 11.1667,5.5 16.5,-0.5 Z"/></g>
<g><path style="opacity:0.024" fill="#2d2d2d" d="M 36.5,-0.5 C 38.1667,-0.5 39.8333,-0.5 41.5,-0.5C 27.8333,13.8333 13.8333,27.8333 -0.5,41.5C -0.5,39.8333 -0.5,38.1667 -0.5,36.5C 12.1667,24.5 24.5,12.1667 36.5,-0.5 Z"/></g>
<g><path style="opacity:0.024" fill="#2d2d2d" d="M 56.5,-0.5 C 58.1667,-0.5 59.8333,-0.5 61.5,-0.5C 41.1667,20.5 20.5,41.1667 -0.5,61.5C -0.5,59.8333 -0.5,58.1667 -0.5,56.5C 18.8333,37.8333 37.8333,18.8333 56.5,-0.5 Z"/></g>
<g><path style="opacity:0.024" fill="#2d2d2d" d="M 76.5,-0.5 C 78.1667,-0.5 79.8333,-0.5 81.5,-0.5C 54.5,27.1667 27.1667,54.5 -0.5,81.5C -0.5,79.8333 -0.5,78.1667 -0.5,76.5C 25.5,51.1667 51.1667,25.5 76.5,-0.5 Z"/></g>
<g><path style="opacity:0.024" fill="#2d2d2d" d="M 96.5,-0.5 C 98.1667,-0.5 99.8333,-0.5 101.5,-0.5C 92.5,8.83333 83.5,18.1667 74.5,27.5C 73.8333,27.5 73.5,27.8333 73.5,28.5C 69.4828,30.8609 65.4828,33.1942 61.5,35.5C 73.1667,23.5 84.8333,11.5 96.5,-0.5 Z"/></g>
<g><path style="opacity:0.024" fill="#2d2d2d" d="M 116.5,-0.5 C 118.167,-0.5 119.833,-0.5 121.5,-0.5C 115.833,5.5 110.167,11.5 104.5,17.5C 102.5,17.8333 100.5,18.1667 98.5,18.5C 104.5,12.1667 110.5,5.83333 116.5,-0.5 Z"/></g>
<g><path style="opacity:0.024" fill="#2d2d2d" d="M 136.5,-0.5 C 138.167,-0.5 139.833,-0.5 141.5,-0.5C 136.5,4.83333 131.5,10.1667 126.5,15.5C 124.833,15.5 123.167,15.5 121.5,15.5C 126.5,10.1667 131.5,4.83333 136.5,-0.5 Z"/></g>
<g><path style="opacity:0.024" fill="#2d2d2d" d="M 156.5,-0.5 C 158.167,-0.5 159.833,-0.5 161.5,-0.5C 156.167,5.16667 150.833,10.8333 145.5,16.5C 144.041,16.5674 142.708,16.2341 141.5,15.5C 146.5,10.1667 151.5,4.83333 156.5,-0.5 Z"/></g>
<g><path style="opacity:0.024" fill="#2d2d2d" d="M 176.5,-0.5 C 178.167,-0.5 179.833,-0.5 181.5,-0.5C 175.167,6.5 168.5,13.1667 161.5,19.5C 159.901,19.7678 158.568,19.4345 157.5,18.5C 164.167,12.5 170.5,6.16667 176.5,-0.5 Z"/></g>
<g><path style="opacity:0.024" fill="#2d2d2d" d="M 196.5,-0.5 C 198.167,-0.5 199.833,-0.5 201.5,-0.5C 193.167,8.16667 184.833,16.8333 176.5,25.5C 174.597,25.2041 172.93,24.5375 171.5,23.5C 180.446,16.2224 188.779,8.22244 196.5,-0.5 Z"/></g>
<g><path style="opacity:0.024" fill="#2d2d2d" d="M 216.5,-0.5 C 218.167,-0.5 219.833,-0.5 221.5,-0.5C 210.833,10.8333 199.833,21.8333 188.5,32.5C 187.29,32.0679 186.29,31.4013 185.5,30.5C 196.167,20.5 206.5,10.1667 216.5,-0.5 Z"/></g>
<g><path style="opacity:0.024" fill="#2d2d2d" d="M 236.5,-0.5 C 238.167,-0.5 239.833,-0.5 241.5,-0.5C 227.833,13.5 214.167,27.5 200.5,41.5C 199.167,40.8333 198.167,39.8333 197.5,38.5C 210.833,25.8333 223.833,12.8333 236.5,-0.5 Z"/></g>
<g><path style="opacity:0.024" fill="#2d2d2d" d="M 255.5,1.5 C 255.5,3.16667 255.5,4.83333 255.5,6.5C 240.5,21.1667 225.5,35.8333 210.5,50.5C 209.5,50.1667 208.833,49.5 208.5,48.5C 223.833,32.5 239.5,16.8333 255.5,1.5 Z"/></g>
<g><path style="opacity:0.969" fill="#0f48d6" d="M 121.5,15.5 C 123.167,15.5 124.833,15.5 126.5,15.5C 131.5,15.5 136.5,15.5 141.5,15.5C 142.708,16.2341 144.041,16.5674 145.5,16.5C 149.476,17.2952 153.476,17.9619 157.5,18.5C 158.568,19.4345 159.901,19.7678 161.5,19.5C 161.5,19.8333 161.5,20.1667 161.5,20.5C 157.036,24.4632 152.702,28.6298 148.5,33C 149.056,33.3826 149.389,33.8826 149.5,34.5C 148.833,34.5 148.167,34.5 147.5,34.5C 146.081,33.5489 144.415,33.2155 142.5,33.5C 137.93,32.559 133.263,32.2256 128.5,32.5C 127.065,31.9035 125.398,31.9035 123.5,32.5C 117.714,32.3116 112.047,32.9783 106.5,34.5C 104.035,34.767 101.701,35.4336 99.5,36.5C 85.1105,40.5222 72.7772,47.8555 62.5,58.5C 60.1667,58.8333 58.8333,60.1667 58.5,62.5C 55.5,65.8333 52.5,69.1667 49.5,72.5C 39.6094,81.8887 29.7761,91.5554 20,101.5C 19.6174,100.944 19.1174,100.611 18.5,100.5C 18.5,99.8333 18.5,99.1667 18.5,98.5C 18.5,97.8333 18.8333,97.5 19.5,97.5C 44.0517,72.4453 69.2184,47.112 95,21.5C 95.4643,20.9056 95.631,20.2389 95.5,19.5C 96.609,19.4431 97.609,19.1098 98.5,18.5C 100.5,18.1667 102.5,17.8333 104.5,17.5C 110.064,16.1039 115.731,15.4372 121.5,15.5 Z"/></g>
<g><path style="opacity:0.984" fill="#0d48d8" d="M 95.5,19.5 C 95.631,20.2389 95.4643,20.9056 95,21.5C 69.2184,47.112 44.0517,72.4453 19.5,97.5C 21.3124,89.5406 23.9791,81.8739 27.5,74.5C 28.1667,74.5 28.5,74.1667 28.5,73.5C 30.8609,69.4828 33.1942,65.4828 35.5,61.5C 43.1667,51.8333 51.8333,43.1667 61.5,35.5C 65.4828,33.1942 69.4828,30.8609 73.5,28.5C 74.1667,28.5 74.5,28.1667 74.5,27.5C 81.3439,24.4407 88.3439,21.774 95.5,19.5 Z"/></g>
<g><path style="opacity:0.024" fill="#2d2d2d" d="M 255.5,21.5 C 255.5,23.1667 255.5,24.8333 255.5,26.5C 243.5,38.1667 231.5,49.8333 219.5,61.5C 218.167,60.8333 217.167,59.8333 216.5,58.5C 217.239,58.631 217.906,58.4643 218.5,58C 230.702,45.6313 243.035,33.4647 255.5,21.5 Z"/></g>
<g><path style="opacity:0.024" fill="#2d2d2d" d="M 128.5,32.5 C 96.5,64.8333 64.5,97.1667 32.5,129.5C 31.7093,127.691 31.7093,125.691 32.5,123.5C 63.1667,93.5 93.5,63.1667 123.5,32.5C 125.398,31.9035 127.065,31.9035 128.5,32.5 Z"/></g>
<g><path style="opacity:0.024" fill="#2d2d2e" d="M 142.5,33.5 C 144.415,33.2155 146.081,33.5489 147.5,34.5C 137.167,44.1667 127.167,54.1667 117.5,64.5C 114.356,65.5733 111.356,66.9066 108.5,68.5C 119.833,56.8333 131.167,45.1667 142.5,33.5 Z"/></g>
<g><path style="opacity:0.967" fill="#0c49d8" d="M 161.5,20.5 C 164.963,21.0991 168.296,22.0991 171.5,23.5C 172.93,24.5375 174.597,25.2041 176.5,25.5C 179.304,27.4046 182.304,29.0713 185.5,30.5C 186.29,31.4013 187.29,32.0679 188.5,32.5C 191.291,34.7349 194.291,36.7349 197.5,38.5C 198.167,39.8333 199.167,40.8333 200.5,41.5C 203.141,43.8044 205.808,46.1377 208.5,48.5C 208.833,49.5 209.5,50.1667 210.5,50.5C 212.115,53.4495 214.115,56.1162 216.5,58.5C 217.167,59.8333 218.167,60.8333 219.5,61.5C 220.901,64.6339 222.568,67.6339 224.5,70.5C 225.512,71.8717 226.512,73.205 227.5,74.5C 228.833,77.8333 230.167,81.1667 231.5,84.5C 231.5,84.8333 231.5,85.1667 231.5,85.5C 227.193,89.4718 222.859,93.4718 218.5,97.5C 216.991,94.3223 215.658,90.9889 214.5,87.5C 214.068,86.2905 213.401,85.2905 212.5,84.5C 210.988,80.7991 208.988,77.4658 206.5,74.5C 206.068,73.2905 205.401,72.2905 204.5,71.5C 202.883,68.2157 200.55,65.5491 197.5,63.5C 197.068,62.2905 196.401,61.2905 195.5,60.5C 192.833,58.1667 190.167,55.8333 187.5,53.5C 187.027,52.0937 186.027,51.427 184.5,51.5C 182.025,48.7589 179.025,46.7589 175.5,45.5C 174.71,44.5987 173.71,43.9321 172.5,43.5C 169.167,41.8333 165.833,40.1667 162.5,38.5C 161.167,38.1667 159.833,37.8333 158.5,37.5C 155.579,36.304 152.579,35.304 149.5,34.5C 149.389,33.8826 149.056,33.3826 148.5,33C 152.702,28.6298 157.036,24.4632 161.5,20.5 Z"/></g>
<g><path style="opacity:0.024" fill="#2d2d2d" d="M 106.5,34.5 C 82.8333,58.8333 58.8333,82.8333 34.5,106.5C 34.767,104.035 35.4336,101.701 36.5,99.5C 57.8333,78.8333 78.8333,57.8333 99.5,36.5C 101.701,35.4336 104.035,34.767 106.5,34.5 Z"/></g>
<g><path style="opacity:0.024" fill="#2d2d2d" d="M 158.5,37.5 C 159.833,37.8333 161.167,38.1667 162.5,38.5C 154.167,47.1667 145.833,55.8333 137.5,64.5C 136.167,64.1667 134.833,63.8333 133.5,63.5C 141.833,54.8333 150.167,46.1667 158.5,37.5 Z"/></g>
<g><path style="opacity:0.024" fill="#2d2d2d" d="M 255.5,41.5 C 255.5,43.1667 255.5,44.8333 255.5,46.5C 245.833,55.5 236.5,64.8333 227.5,74.5C 226.512,73.205 225.512,71.8717 224.5,70.5C 225.239,70.631 225.906,70.4643 226.5,70C 236.035,60.2978 245.702,50.7978 255.5,41.5 Z"/></g>
<g><path style="opacity:0.024" fill="#2d2d2d" d="M 172.5,43.5 C 173.71,43.9321 174.71,44.5987 175.5,45.5C 167.167,54.1667 158.833,62.8333 150.5,71.5C 148.973,71.573 147.973,70.9063 147.5,69.5C 155.833,60.8333 164.167,52.1667 172.5,43.5 Z"/></g>
<g><path style="opacity:0.024" fill="#2d2d2e" d="M 184.5,51.5 C 186.027,51.427 187.027,52.0937 187.5,53.5C 177.833,63.8333 167.833,73.8333 157.5,83.5C 157.167,82.1667 156.833,80.8333 156.5,79.5C 166.167,70.5 175.5,61.1667 184.5,51.5 Z"/></g>
<g><path style="opacity:0.02" fill="#303441" d="M 62.5,58.5 C 61.5,60.1667 60.1667,61.5 58.5,62.5C 58.8333,60.1667 60.1667,58.8333 62.5,58.5 Z"/></g>
<g><path style="opacity:0.024" fill="#2d2d2d" d="M 195.5,60.5 C 196.401,61.2905 197.068,62.2905 197.5,63.5C 185.167,76.5 172.5,89.1667 159.5,101.5C 159.5,99.8333 159.5,98.1667 159.5,96.5C 171.833,84.8333 183.833,72.8333 195.5,60.5 Z"/></g>
<g><path style="opacity:0.024" fill="#2d2d2d" d="M 255.5,61.5 C 255.5,63.1667 255.5,64.8333 255.5,66.5C 247.833,73.5 240.5,80.8333 233.5,88.5C 232.833,87.5 232.167,86.5 231.5,85.5C 231.5,85.1667 231.5,84.8333 231.5,84.5C 239.5,76.8333 247.5,69.1667 255.5,61.5 Z"/></g>
<g><path style="opacity:0.024" fill="#2d2d2d" d="M 35.5,61.5 C 33.1942,65.4828 30.8609,69.4828 28.5,73.5C 27.8333,73.5 27.5,73.8333 27.5,74.5C 18.1667,83.5 8.83333,92.5 -0.5,101.5C -0.5,99.8333 -0.5,98.1667 -0.5,96.5C 11.5,84.8333 23.5,73.1667 35.5,61.5 Z"/></g>
<g><path style="opacity:0.024" fill="#2d2d2d" d="M 204.5,71.5 C 205.401,72.2905 206.068,73.2905 206.5,74.5C 183.833,97.5 161.167,120.5 138.5,143.5C 136.833,143.5 135.167,143.5 133.5,143.5C 157.167,119.5 180.833,95.5 204.5,71.5 Z"/></g>
<g><path style="opacity:0.024" fill="#2d2d2d" d="M 100.5,76.5 C 98.9066,79.3561 97.5733,82.3561 96.5,85.5C 75.8333,105.833 55.1667,126.167 34.5,146.5C 33.5655,145.432 33.2322,144.099 33.5,142.5C 55.8333,120.5 78.1667,98.5 100.5,76.5 Z"/></g>
<g><path style="opacity:0.024" fill="#2d2d2d" d="M 255.5,81.5 C 255.5,83.1667 255.5,84.8333 255.5,86.5C 249.5,92.1667 243.5,97.8333 237.5,103.5C 237.167,102.167 236.833,100.833 236.5,99.5C 242.833,93.5 249.167,87.5 255.5,81.5 Z"/></g>
<g><path style="opacity:1" fill="#20bdf9" d="M 133.5,63.5 C 134.833,63.8333 136.167,64.1667 137.5,64.5C 141.112,65.6395 144.446,67.3061 147.5,69.5C 147.973,70.9063 148.973,71.573 150.5,71.5C 152.147,74.4735 154.147,77.1401 156.5,79.5C 156.833,80.8333 157.167,82.1667 157.5,83.5C 159.183,87.6306 159.85,91.9639 159.5,96.5C 159.5,98.1667 159.5,99.8333 159.5,101.5C 156.5,115.833 147.833,124.5 133.5,127.5C 131.833,127.5 130.167,127.5 128.5,127.5C 123.964,127.85 119.631,127.183 115.5,125.5C 114.167,125.167 112.833,124.833 111.5,124.5C 109.14,122.147 106.473,120.147 103.5,118.5C 103.573,116.973 102.906,115.973 101.5,115.5C 99.3061,112.446 97.6395,109.112 96.5,105.5C 96.1667,104.167 95.8333,102.833 95.5,101.5C 95.2665,96.1053 95.5998,90.772 96.5,85.5C 97.5733,82.3561 98.9066,79.3561 100.5,76.5C 102.833,73.5 105.5,70.8333 108.5,68.5C 111.356,66.9066 114.356,65.5733 117.5,64.5C 122.772,63.5998 128.105,63.2665 133.5,63.5 Z M 137.5,84.5 C 140.741,86.9826 142.408,90.3159 142.5,94.5C 136.833,99.5 131.5,104.833 126.5,110.5C 122.316,110.408 118.983,108.741 116.5,105.5C 123.167,98.1667 130.167,91.1667 137.5,84.5 Z M 134.5,82.5 C 127.5,88.8333 120.833,95.5 114.5,102.5C 110.2,92.9066 112.867,85.74 122.5,81C 125.833,80.3333 129.167,80.3333 132.5,81C 133.416,81.2784 134.082,81.7784 134.5,82.5 Z M 141.5,100.5 C 140.167,105.167 137.167,108.167 132.5,109.5C 135.167,106.167 138.167,103.167 141.5,100.5 Z"/></g>
<g><path style="opacity:0.024" fill="#2d2d2d" d="M 134.5,82.5 C 136.027,82.427 137.027,83.0937 137.5,84.5C 130.167,91.1667 123.167,98.1667 116.5,105.5C 115.094,105.027 114.427,104.027 114.5,102.5C 120.833,95.5 127.5,88.8333 134.5,82.5 Z"/></g>
<g><path style="opacity:0.024" fill="#2d2d2d" d="M 212.5,84.5 C 213.401,85.2905 214.068,86.2905 214.5,87.5C 195.5,105.833 176.833,124.5 158.5,143.5C 156.833,143.5 155.167,143.5 153.5,143.5C 172.833,123.5 192.5,103.833 212.5,84.5 Z"/></g>
<g><path style="opacity:0.024" fill="#2d2d2d" d="M 142.5,94.5 C 142.5,96.1667 142.5,97.8333 142.5,99.5C 141.833,99.5 141.5,99.8333 141.5,100.5C 138.167,103.167 135.167,106.167 132.5,109.5C 131.833,109.5 131.5,109.833 131.5,110.5C 129.833,110.5 128.167,110.5 126.5,110.5C 131.5,104.833 136.833,99.5 142.5,94.5 Z"/></g>
<g><path style="opacity:0.024" fill="#2d2d2d" d="M 18.5,98.5 C 18.5,99.1667 18.5,99.8333 18.5,100.5C 17.7659,101.708 17.4326,103.041 17.5,104.5C 11.5,110.167 5.5,115.833 -0.5,121.5C -0.5,119.833 -0.5,118.167 -0.5,116.5C 5.83333,110.5 12.1667,104.5 18.5,98.5 Z"/></g>
<g><path style="opacity:0.024" fill="#2d2d2d" d="M 218.5,98.5 C 218.833,99.8333 219.167,101.167 219.5,102.5C 203.5,117.833 187.833,133.5 172.5,149.5C 171.128,148.488 169.795,147.488 168.5,146.5C 169.239,146.631 169.906,146.464 170.5,146C 186.368,129.965 202.368,114.132 218.5,98.5 Z"/></g>
<g><path style="opacity:0.024" fill="#2d2d2d" d="M 95.5,101.5 C 95.8333,102.833 96.1667,104.167 96.5,105.5C 76.782,124.217 57.782,143.551 39.5,163.5C 38.4625,162.07 37.7959,160.403 37.5,158.5C 56.8333,139.5 76.1667,120.5 95.5,101.5 Z"/></g>
<g><path style="opacity:0.024" fill="#2d2d2d" d="M 255.5,101.5 C 255.5,103.167 255.5,104.833 255.5,106.5C 250.167,111.5 244.833,116.5 239.5,121.5C 239.5,119.833 239.5,118.167 239.5,116.5C 244.833,111.5 250.167,106.5 255.5,101.5 Z"/></g>
<g><path style="opacity:0.967" fill="#0c48d8" d="M 49.5,72.5 C 43.8386,80.8239 39.5052,89.8239 36.5,99.5C 35.4336,101.701 34.767,104.035 34.5,106.5C 32.9783,112.047 32.3116,117.714 32.5,123.5C 31.7093,125.691 31.7093,127.691 32.5,129.5C 32.2941,133.898 32.6274,138.232 33.5,142.5C 33.2322,144.099 33.5655,145.432 34.5,146.5C 34.8779,150.678 35.8779,154.678 37.5,158.5C 37.7959,160.403 38.4625,162.07 39.5,163.5C 40.5612,166.622 41.8946,169.622 43.5,172.5C 43.9321,173.71 44.5987,174.71 45.5,175.5C 47.5279,178.902 49.5279,182.235 51.5,185.5C 51.5,186.833 51.5,188.167 51.5,189.5C 50.5,192.5 48.5,194.5 45.5,195.5C 43.8333,195.5 42.1667,195.5 40.5,195.5C 37.2099,193.876 34.5433,191.543 32.5,188.5C 32.573,186.973 31.9063,185.973 30.5,185.5C 29.2262,182.24 27.5595,179.24 25.5,176.5C 25.5674,175.041 25.2341,173.708 24.5,172.5C 22.7745,168.991 21.4411,165.325 20.5,161.5C 20.0113,160.005 19.3446,158.671 18.5,157.5C 17.9619,153.476 17.2952,149.476 16.5,145.5C 16.5674,144.041 16.2341,142.708 15.5,141.5C 15.5,136.5 15.5,131.5 15.5,126.5C 15.5,124.833 15.5,123.167 15.5,121.5C 15.4372,115.731 16.1039,110.064 17.5,104.5C 17.4326,103.041 17.7659,101.708 18.5,100.5C 19.1174,100.611 19.6174,100.944 20,101.5C 29.7761,91.5554 39.6094,81.8887 49.5,72.5 Z"/></g>
<g><path style="opacity:0.024" fill="#2d2d2d" d="M 101.5,115.5 C 102.906,115.973 103.573,116.973 103.5,118.5C 84.1667,137.5 64.8333,156.5 45.5,175.5C 44.5987,174.71 43.9321,173.71 43.5,172.5C 62.8333,153.5 82.1667,134.5 101.5,115.5 Z"/></g>
<g><path style="opacity:0.024" fill="#2d2d2d" d="M 222.5,114.5 C 222.5,116.167 222.5,117.833 222.5,119.5C 208.167,133.5 193.833,147.5 179.5,161.5C 178.596,160.791 178.263,159.791 178.5,158.5C 192.833,143.5 207.5,128.833 222.5,114.5 Z"/></g>
<g><path style="opacity:0.973" fill="#0c49d8" d="M 231.5,85.5 C 232.167,86.5 232.833,87.5 233.5,88.5C 234.656,92.1228 235.656,95.7894 236.5,99.5C 236.833,100.833 237.167,102.167 237.5,103.5C 238.275,107.814 238.941,112.147 239.5,116.5C 239.5,118.167 239.5,119.833 239.5,121.5C 239.5,126.5 239.5,131.5 239.5,136.5C 239.5,138.167 239.5,139.833 239.5,141.5C 239.167,142.167 238.833,142.833 238.5,143.5C 231.446,150.558 224.112,157.225 216.5,163.5C 216.833,162.167 217.167,160.833 217.5,159.5C 219.855,153.393 221.188,147.059 221.5,140.5C 222.167,140.5 222.5,140.167 222.5,139.5C 222.5,137.833 222.5,136.167 222.5,134.5C 222.5,129.5 222.5,124.5 222.5,119.5C 222.5,117.833 222.5,116.167 222.5,114.5C 221.5,110.5 220.5,106.5 219.5,102.5C 219.167,101.167 218.833,99.8333 218.5,98.5C 218.5,98.1667 218.5,97.8333 218.5,97.5C 222.859,93.4718 227.193,89.4718 231.5,85.5 Z"/></g>
<g><path style="opacity:0.024" fill="#2d2d2d" d="M 15.5,121.5 C 15.5,123.167 15.5,124.833 15.5,126.5C 10.1667,131.5 4.83333,136.5 -0.5,141.5C -0.5,139.833 -0.5,138.167 -0.5,136.5C 4.83333,131.5 10.1667,126.5 15.5,121.5 Z"/></g>
<g><path style="opacity:0.024" fill="#2d2d2d" d="M 255.5,121.5 C 255.5,123.167 255.5,124.833 255.5,126.5C 250.167,131.5 244.833,136.5 239.5,141.5C 239.5,139.833 239.5,138.167 239.5,136.5C 244.833,131.5 250.167,126.5 255.5,121.5 Z"/></g>
<g><path style="opacity:0.024" fill="#2d2d2d" d="M 111.5,124.5 C 112.833,124.833 114.167,125.167 115.5,125.5C 109.833,131.5 104.167,137.5 98.5,143.5C 96.8333,143.5 95.1667,143.5 93.5,143.5C 99.5,137.167 105.5,130.833 111.5,124.5 Z"/></g>
<g><path style="opacity:0.024" fill="#2d2d2d" d="M 128.5,127.5 C 130.167,127.5 131.833,127.5 133.5,127.5C 128.5,132.833 123.5,138.167 118.5,143.5C 118.167,143.5 117.833,143.5 117.5,143.5C 116.167,143.5 114.833,143.5 113.5,143.5C 118.5,138.167 123.5,132.833 128.5,127.5 Z"/></g>
<g><path style="opacity:0.024" fill="#2d2d2d" d="M 222.5,134.5 C 222.5,136.167 222.5,137.833 222.5,139.5C 221.833,139.5 221.5,139.833 221.5,140.5C 208.833,152.833 196.167,165.167 183.5,177.5C 183.167,176.167 182.833,174.833 182.5,173.5C 195.833,160.5 209.167,147.5 222.5,134.5 Z"/></g>
<g><path style="opacity:0.024" fill="#2d2d2d" d="M 15.5,141.5 C 16.2341,142.708 16.5674,144.041 16.5,145.5C 10.8333,150.833 5.16667,156.167 -0.5,161.5C -0.5,159.833 -0.5,158.167 -0.5,156.5C 4.83333,151.5 10.1667,146.5 15.5,141.5 Z"/></g>
<g><path style="opacity:0.024" fill="#2d2d2e" d="M 255.5,141.5 C 255.5,143.167 255.5,144.833 255.5,146.5C 247.833,153.833 240.167,161.167 232.5,168.5C 233.108,165.673 234.108,163.007 235.5,160.5C 242.167,154.167 248.833,147.833 255.5,141.5 Z"/></g>
<g><path style="opacity:0.966" fill="#0c48d8" d="M 238.5,143.5 C 237.886,149.238 236.886,154.905 235.5,160.5C 234.108,163.007 233.108,165.673 232.5,168.5C 220.167,198.833 198.833,220.167 168.5,232.5C 165.673,233.108 163.007,234.108 160.5,235.5C 154.139,236.839 147.805,238.172 141.5,239.5C 139.833,239.5 138.167,239.5 136.5,239.5C 131.5,239.5 126.5,239.5 121.5,239.5C 119.833,239.5 118.167,239.5 116.5,239.5C 112.147,238.941 107.814,238.275 103.5,237.5C 102.167,237.167 100.833,236.833 99.5,236.5C 96.6435,232.882 95.9769,228.882 97.5,224.5C 98.1667,224.5 98.5,224.167 98.5,223.5C 99.1667,223.5 99.5,223.167 99.5,222.5C 100.167,222.5 100.5,222.167 100.5,221.5C 104.797,220.488 109.13,220.488 113.5,221.5C 115.265,222.461 117.265,222.795 119.5,222.5C 124.537,223.537 129.537,223.537 134.5,222.5C 136.167,222.5 137.833,222.5 139.5,222.5C 146.297,221.341 152.964,219.674 159.5,217.5C 162.622,216.439 165.622,215.105 168.5,213.5C 169.167,213.5 169.5,213.167 169.5,212.5C 185.899,204.608 199.066,192.941 209,177.5C 210.454,174.929 211.62,172.262 212.5,169.5C 213.167,169.5 213.5,169.167 213.5,168.5C 214.263,166.632 215.263,164.965 216.5,163.5C 224.112,157.225 231.446,150.558 238.5,143.5 Z"/></g>
<g><path style="opacity:0.024" fill="#2d2d2d" d="M 18.5,157.5 C 19.3446,158.671 20.0113,160.005 20.5,161.5C 13.5,168.167 6.5,174.833 -0.5,181.5C -0.5,179.833 -0.5,178.167 -0.5,176.5C 6.16667,170.5 12.5,164.167 18.5,157.5 Z"/></g>
<g><path style="opacity:0.024" fill="#2c2d2d" d="M 101.5,159.5 C 98.1667,163.5 94.5,167.167 90.5,170.5C 90.9028,167.514 91.9028,164.848 93.5,162.5C 94.1667,162.5 94.5,162.167 94.5,161.5C 96.7014,160.434 99.0347,159.767 101.5,159.5 Z"/></g>
<g><path style="opacity:0.024" fill="#2d2d2d" d="M 116.5,159.5 C 118.167,159.5 119.833,159.5 121.5,159.5C 108.833,172.833 95.8333,185.833 82.5,198.5C 83.0147,196.106 83.6814,193.772 84.5,191.5C 95.5,181.167 106.167,170.5 116.5,159.5 Z"/></g>
<g><path style="opacity:0.024" fill="#2d2d2d" d="M 136.5,159.5 C 138.167,159.5 139.833,159.5 141.5,159.5C 109.833,191.5 78.1667,223.5 46.5,255.5C 44.8333,255.5 43.1667,255.5 41.5,255.5C 52.5,244.167 63.5,232.833 74.5,221.5C 75.1667,221.5 75.5,221.167 75.5,220.5C 76.1667,220.5 76.5,220.167 76.5,219.5C 96.8333,199.833 116.833,179.833 136.5,159.5 Z"/></g>
<g><path style="opacity:0.024" fill="#2d2d2d" d="M 155.5,160.5 C 157.099,160.232 158.432,160.566 159.5,161.5C 139.833,181.5 120.167,201.5 100.5,221.5C 99.8333,221.5 99.5,221.833 99.5,222.5C 99.5,223.167 99.1667,223.5 98.5,223.5C 97.8333,223.5 97.5,223.833 97.5,224.5C 86.8333,234.5 76.5,244.833 66.5,255.5C 64.8333,255.5 63.1667,255.5 61.5,255.5C 92.8333,223.833 124.167,192.167 155.5,160.5 Z"/></g>
<g><path style="opacity:0.024" fill="#2d2d2e" d="M 217.5,159.5 C 217.167,160.833 216.833,162.167 216.5,163.5C 215.263,164.965 214.263,166.632 213.5,168.5C 212.833,168.5 212.5,168.833 212.5,169.5C 197.833,183.5 183.5,197.833 169.5,212.5C 168.833,212.5 168.5,212.833 168.5,213.5C 165.622,215.105 162.622,216.439 159.5,217.5C 165.833,210.833 172.167,204.167 178.5,197.5C 183.37,197.129 186.036,194.462 186.5,189.5C 196.833,179.5 207.167,169.5 217.5,159.5 Z"/></g>
<g><path style="opacity:0.024" fill="#2d2d2d" d="M 255.5,161.5 C 255.5,163.167 255.5,164.833 255.5,166.5C 225.5,195.833 195.833,225.5 166.5,255.5C 164.833,255.5 163.167,255.5 161.5,255.5C 192.5,223.833 223.833,192.5 255.5,161.5 Z"/></g>
<g><path style="opacity:0.024" fill="#2d2d2d" d="M 74.5,162.5 C 74.1667,164.5 73.8333,166.5 73.5,168.5C 72.8333,168.5 72.5,168.833 72.5,169.5C 65.5,176.167 58.5,182.833 51.5,189.5C 51.5,188.167 51.5,186.833 51.5,185.5C 58.8333,177.5 66.5,169.833 74.5,162.5 Z"/></g>
<g><path style="opacity:1" fill="#20bdfa" d="M 117.5,143.5 C 117.833,143.5 118.167,143.5 118.5,143.5C 123.5,143.5 128.5,143.5 133.5,143.5C 135.167,143.5 136.833,143.5 138.5,143.5C 143.5,143.5 148.5,143.5 153.5,143.5C 155.167,143.5 156.833,143.5 158.5,143.5C 162.092,143.698 165.426,144.698 168.5,146.5C 169.795,147.488 171.128,148.488 172.5,149.5C 174.773,152.398 176.773,155.398 178.5,158.5C 178.263,159.791 178.596,160.791 179.5,161.5C 180.188,165.584 181.188,169.584 182.5,173.5C 182.833,174.833 183.167,176.167 183.5,177.5C 184.812,181.416 185.812,185.416 186.5,189.5C 186.036,194.462 183.37,197.129 178.5,197.5C 174.415,197.628 171.415,195.961 169.5,192.5C 169.768,190.901 169.434,189.568 168.5,188.5C 167.5,184.501 166.5,180.501 165.5,176.5C 165.167,175.167 164.833,173.833 164.5,172.5C 163.673,169.868 162.84,167.202 162,164.5C 161.623,163.058 160.79,162.058 159.5,161.5C 158.432,160.566 157.099,160.232 155.5,160.5C 151.03,159.514 146.363,159.181 141.5,159.5C 139.833,159.5 138.167,159.5 136.5,159.5C 131.5,159.5 126.5,159.5 121.5,159.5C 119.833,159.5 118.167,159.5 116.5,159.5C 111.833,159.5 107.167,159.5 102.5,159.5C 107.5,154.167 112.5,148.833 117.5,143.5 Z"/></g>
<g><path style="opacity:0.024" fill="#2d2d2d" d="M 24.5,172.5 C 25.2341,173.708 25.5674,175.041 25.5,176.5C 16.8333,184.833 8.16667,193.167 -0.5,201.5C -0.5,199.833 -0.5,198.167 -0.5,196.5C 7.83333,188.5 16.1667,180.5 24.5,172.5 Z"/></g>
<g><path style="opacity:0.024" fill="#2d2d2d" d="M 164.5,172.5 C 164.833,173.833 165.167,175.167 165.5,176.5C 149.833,191.5 134.5,206.833 119.5,222.5C 117.265,222.795 115.265,222.461 113.5,221.5C 114.239,221.631 114.906,221.464 115.5,221C 131.701,204.632 148.035,188.465 164.5,172.5 Z"/></g>
<g><path style="opacity:1" fill="#20bdf9" d="M 93.5,143.5 C 95.1667,143.5 96.8333,143.5 98.5,143.5C 103.5,143.5 108.5,143.5 113.5,143.5C 114.833,143.5 116.167,143.5 117.5,143.5C 112.5,148.833 107.5,154.167 102.5,159.5C 102.167,159.5 101.833,159.5 101.5,159.5C 99.0347,159.767 96.7014,160.434 94.5,161.5C 93.8333,161.5 93.5,161.833 93.5,162.5C 91.9028,164.848 90.9028,167.514 90.5,170.5C 88.5,177.5 86.5,184.5 84.5,191.5C 83.6814,193.772 83.0147,196.106 82.5,198.5C 80.5,205.5 78.5,212.5 76.5,219.5C 75.8333,219.5 75.5,219.833 75.5,220.5C 74.8333,220.5 74.5,220.833 74.5,221.5C 70.0044,223.265 66.0044,222.599 62.5,219.5C 62.0679,218.29 61.4013,217.29 60.5,216.5C 61.4183,210.079 62.7516,203.745 64.5,197.5C 65.1667,197.5 65.5,197.167 65.5,196.5C 65.8333,194.5 66.1667,192.5 66.5,190.5C 68.9631,183.65 70.9631,176.65 72.5,169.5C 73.1667,169.5 73.5,169.167 73.5,168.5C 73.8333,166.5 74.1667,164.5 74.5,162.5C 77.1893,152.477 83.5226,146.144 93.5,143.5 Z"/></g>
<g><path style="opacity:0.024" fill="#2d2d2d" d="M 255.5,181.5 C 255.5,183.167 255.5,184.833 255.5,186.5C 232.167,209.167 209.167,232.167 186.5,255.5C 184.833,255.5 183.167,255.5 181.5,255.5C 205.833,230.5 230.5,205.833 255.5,181.5 Z"/></g>
<g><path style="opacity:0.024" fill="#2d2d2d" d="M 30.5,185.5 C 31.9063,185.973 32.573,186.973 32.5,188.5C 21.8333,199.833 10.8333,210.833 -0.5,221.5C -0.5,219.833 -0.5,218.167 -0.5,216.5C 10.1667,206.5 20.5,196.167 30.5,185.5 Z"/></g>
<g><path style="opacity:0.024" fill="#2d2d2d" d="M 168.5,188.5 C 169.434,189.568 169.768,190.901 169.5,192.5C 159.167,202.167 149.167,212.167 139.5,222.5C 137.833,222.5 136.167,222.5 134.5,222.5C 145.5,210.833 156.833,199.5 168.5,188.5 Z"/></g>
<g><path style="opacity:0.024" fill="#2d2d2d" d="M 66.5,190.5 C 66.1667,192.5 65.8333,194.5 65.5,196.5C 64.8333,196.5 64.5,196.833 64.5,197.5C 44.8333,216.5 25.5,235.833 6.5,255.5C 4.83333,255.5 3.16667,255.5 1.5,255.5C 22.8333,233.5 44.5,211.833 66.5,190.5 Z"/></g>
<g><path style="opacity:0.024" fill="#2d2d2d" d="M 40.5,195.5 C 42.1667,195.5 43.8333,195.5 45.5,195.5C 30.5,211.167 15.1667,226.5 -0.5,241.5C -0.5,239.833 -0.5,238.167 -0.5,236.5C 13.5,223.167 27.1667,209.5 40.5,195.5 Z"/></g>
<g><path style="opacity:0.024" fill="#2d2d2d" d="M 255.5,201.5 C 255.5,203.167 255.5,204.833 255.5,206.5C 238.833,222.5 222.5,238.833 206.5,255.5C 204.833,255.5 203.167,255.5 201.5,255.5C 219.167,237.167 237.167,219.167 255.5,201.5 Z"/></g>
<g><path style="opacity:0.024" fill="#2d2d2d" d="M 60.5,216.5 C 61.4013,217.29 62.0679,218.29 62.5,219.5C 50.1667,231.167 38.1667,243.167 26.5,255.5C 24.8333,255.5 23.1667,255.5 21.5,255.5C 34.1667,242.167 47.1667,229.167 60.5,216.5 Z"/></g>
<g><path style="opacity:0.024" fill="#2d2d2d" d="M 255.5,221.5 C 255.5,223.167 255.5,224.833 255.5,226.5C 245.5,235.833 235.833,245.5 226.5,255.5C 224.833,255.5 223.167,255.5 221.5,255.5C 232.5,243.833 243.833,232.5 255.5,221.5 Z"/></g>
<g><path style="opacity:0.024" fill="#2d2d2e" d="M 168.5,232.5 C 161.167,240.167 153.833,247.833 146.5,255.5C 144.833,255.5 143.167,255.5 141.5,255.5C 147.833,248.833 154.167,242.167 160.5,235.5C 163.007,234.108 165.673,233.108 168.5,232.5 Z"/></g>
<g><path style="opacity:0.024" fill="#2d2d2d" d="M 99.5,236.5 C 100.833,236.833 102.167,237.167 103.5,237.5C 97.8333,243.5 92.1667,249.5 86.5,255.5C 84.8333,255.5 83.1667,255.5 81.5,255.5C 87.5,249.167 93.5,242.833 99.5,236.5 Z"/></g>
<g><path style="opacity:0.024" fill="#2d2d2d" d="M 116.5,239.5 C 118.167,239.5 119.833,239.5 121.5,239.5C 116.5,244.833 111.5,250.167 106.5,255.5C 104.833,255.5 103.167,255.5 101.5,255.5C 106.5,250.167 111.5,244.833 116.5,239.5 Z"/></g>
<g><path style="opacity:0.024" fill="#2d2d2d" d="M 136.5,239.5 C 138.167,239.5 139.833,239.5 141.5,239.5C 136.5,244.833 131.5,250.167 126.5,255.5C 124.833,255.5 123.167,255.5 121.5,255.5C 126.5,250.167 131.5,244.833 136.5,239.5 Z"/></g>
<g><path style="opacity:0.024" fill="#2d2d2d" d="M 255.5,241.5 C 255.5,243.167 255.5,244.833 255.5,246.5C 252.167,249.167 249.167,252.167 246.5,255.5C 244.833,255.5 243.167,255.5 241.5,255.5C 245.833,250.5 250.5,245.833 255.5,241.5 Z"/></g>
</svg>
