<?xml version="1.0" encoding="UTF-8"?>
<!DOCTYPE svg PUBLIC "-//W3C//DTD SVG 1.1//EN" "http://www.w3.org/Graphics/SVG/1.1/DTD/svg11.dtd">
<svg xmlns="http://www.w3.org/2000/svg" version="1.1" width="256px" height="256px" style="shape-rendering:geometricPrecision; text-rendering:geometricPrecision; image-rendering:optimizeQuality; fill-rule:evenodd; clip-rule:evenodd" xmlns:xlink="http://www.w3.org/1999/xlink">
<g><path style="opacity:0.02" fill="#303030" d="M -0.5,-0.5 C 0.166667,-0.5 0.833333,-0.5 1.5,-0.5C 1.16667,0.5 0.5,1.16667 -0.5,1.5C -0.5,0.833333 -0.5,0.166667 -0.5,-0.5 Z"/></g>
<g><path style="opacity:0.024" fill="#2d2d2d" d="M 16.5,-0.5 C 18.1667,-0.5 19.8333,-0.5 21.5,-0.5C 14.5,7.16667 7.16667,14.5 -0.5,21.5C -0.5,19.8333 -0.5,18.1667 -0.5,16.5C 5.5,11.1667 11.1667,5.5 16.5,-0.5 Z"/></g>
<g><path style="opacity:0.024" fill="#2d2d2d" d="M 36.5,-0.5 C 38.1667,-0.5 39.8333,-0.5 41.5,-0.5C 27.8333,13.8333 13.8333,27.8333 -0.5,41.5C -0.5,39.8333 -0.5,38.1667 -0.5,36.5C 12.1667,24.5 24.5,12.1667 36.5,-0.5 Z"/></g>
<g><path style="opacity:0.024" fill="#2d2d2d" d="M 56.5,-0.5 C 58.1667,-0.5 59.8333,-0.5 61.5,-0.5C 41.1667,20.5 20.5,41.1667 -0.5,61.5C -0.5,59.8333 -0.5,58.1667 -0.5,56.5C 18.8333,37.8333 37.8333,18.8333 56.5,-0.5 Z"/></g>
<g><path style="opacity:0.024" fill="#2d2d2d" d="M 76.5,-0.5 C 78.1667,-0.5 79.8333,-0.5 81.5,-0.5C 54.5,27.1667 27.1667,54.5 -0.5,81.5C -0.5,79.8333 -0.5,78.1667 -0.5,76.5C 25.5,51.1667 51.1667,25.5 76.5,-0.5 Z"/></g>
<g><path style="opacity:0.024" fill="#2d2d2d" d="M 96.5,-0.5 C 98.1667,-0.5 99.8333,-0.5 101.5,-0.5C 92.5,8.83333 83.5,18.1667 74.5,27.5C 73.8333,27.5 73.5,27.8333 73.5,28.5C 69.4828,30.8609 65.4828,33.1942 61.5,35.5C 73.1667,23.5 84.8333,11.5 96.5,-0.5 Z"/></g>
<g><path style="opacity:0.024" fill="#2d2d2d" d="M 116.5,-0.5 C 118.167,-0.5 119.833,-0.5 121.5,-0.5C 115.833,5.5 110.167,11.5 104.5,17.5C 102.5,17.8333 100.5,18.1667 98.5,18.5C 104.5,12.1667 110.5,5.83333 116.5,-0.5 Z"/></g>
<g><path style="opacity:0.024" fill="#2d2d2d" d="M 136.5,-0.5 C 138.167,-0.5 139.833,-0.5 141.5,-0.5C 136.5,4.83333 131.5,10.1667 126.5,15.5C 124.833,15.5 123.167,15.5 121.5,15.5C 126.5,10.1667 131.5,4.83333 136.5,-0.5 Z"/></g>
<g><path style="opacity:0.024" fill="#2d2d2d" d="M 156.5,-0.5 C 158.167,-0.5 159.833,-0.5 161.5,-0.5C 156.167,5.16667 150.833,10.8333 145.5,16.5C 144.041,16.5674 142.708,16.2341 141.5,15.5C 146.5,10.1667 151.5,4.83333 156.5,-0.5 Z"/></g>
<g><path style="opacity:0.024" fill="#2d2d2d" d="M 176.5,-0.5 C 178.167,-0.5 179.833,-0.5 181.5,-0.5C 175.167,6.5 168.5,13.1667 161.5,19.5C 159.901,19.7678 158.568,19.4345 157.5,18.5C 164.167,12.5 170.5,6.16667 176.5,-0.5 Z"/></g>
<g><path style="opacity:0.024" fill="#2d2d2d" d="M 196.5,-0.5 C 198.167,-0.5 199.833,-0.5 201.5,-0.5C 193.167,8.16667 184.833,16.8333 176.5,25.5C 174.597,25.2041 172.93,24.5375 171.5,23.5C 180.446,16.2224 188.779,8.22244 196.5,-0.5 Z"/></g>
<g><path style="opacity:0.024" fill="#2d2d2d" d="M 216.5,-0.5 C 218.167,-0.5 219.833,-0.5 221.5,-0.5C 210.833,10.8333 199.833,21.8333 188.5,32.5C 187.29,32.0679 186.29,31.4013 185.5,30.5C 196.167,20.5 206.5,10.1667 216.5,-0.5 Z"/></g>
<g><path style="opacity:0.024" fill="#2d2d2d" d="M 236.5,-0.5 C 238.167,-0.5 239.833,-0.5 241.5,-0.5C 227.833,13.5 214.167,27.5 200.5,41.5C 199.167,40.8333 198.167,39.8333 197.5,38.5C 210.833,25.8333 223.833,12.8333 236.5,-0.5 Z"/></g>
<g><path style="opacity:0.024" fill="#2d2d2d" d="M 255.5,1.5 C 255.5,3.16667 255.5,4.83333 255.5,6.5C 240.5,21.1667 225.5,35.8333 210.5,50.5C 209.5,50.1667 208.833,49.5 208.5,48.5C 223.833,32.5 239.5,16.8333 255.5,1.5 Z"/></g>
<g><path style="opacity:0.969" fill="#0f48d6" d="M 121.5,15.5 C 123.167,15.5 124.833,15.5 126.5,15.5C 131.5,15.5 136.5,15.5 141.5,15.5C 142.708,16.2341 144.041,16.5674 145.5,16.5C 149.476,17.2952 153.476,17.9619 157.5,18.5C 158.568,19.4345 159.901,19.7678 161.5,19.5C 161.5,19.8333 161.5,20.1667 161.5,20.5C 157.036,24.4632 152.702,28.6298 148.5,33C 149.056,33.3826 149.389,33.8826 149.5,34.5C 148.833,34.5 148.167,34.5 147.5,34.5C 146.081,33.5489 144.415,33.2155 142.5,33.5C 137.93,32.559 133.263,32.2256 128.5,32.5C 127.065,31.9035 125.398,31.9035 123.5,32.5C 117.714,32.3116 112.047,32.9783 106.5,34.5C 104.035,34.767 101.701,35.4336 99.5,36.5C 85.1105,40.5222 72.7772,47.8555 62.5,58.5C 60.1667,58.8333 58.8333,60.1667 58.5,62.5C 55.5,65.8333 52.5,69.1667 49.5,72.5C 39.6094,81.8887 29.7761,91.5554 20,101.5C 19.6174,100.944 19.1174,100.611 18.5,100.5C 18.5,99.8333 18.5,99.1667 18.5,98.5C 18.5,97.8333 18.8333,97.5 19.5,97.5C 44.0517,72.4453 69.2184,47.112 95,21.5C 95.4643,20.9056 95.631,20.2389 95.5,19.5C 96.609,19.4431 97.609,19.1098 98.5,18.5C 100.5,18.1667 102.5,17.8333 104.5,17.5C 110.064,16.1039 115.731,15.4372 121.5,15.5 Z"/></g>
<g><path style="opacity:0.984" fill="#0d48d8" d="M 95.5,19.5 C 95.631,20.2389 95.4643,20.9056 95,21.5C 69.2184,47.112 44.0517,72.4453 19.5,97.5C 21.3124,89.5406 23.9791,81.8739 27.5,74.5C 28.1667,74.5 28.5,74.1667 28.5,73.5C 30.8609,69.4828 33.1942,65.4828 35.5,61.5C 43.1667,51.8333 51.8333,43.1667 61.5,35.5C 65.4828,33.1942 69.4828,30.8609 73.5,28.5C 74.1667,28.5 74.5,28.1667 74.5,27.5C 81.3439,24.4407 88.3439,21.774 95.5,19.5 Z"/></g>
<g><path style="opacity:0.024" fill="#2d2d2d" d="M 255.5,21.5 C 255.5,23.1667 255.5,24.8333 255.5,26.5C 243.5,38.1667 231.5,49.8333 219.5,61.5C 218.167,60.8333 217.167,59.8333 216.5,58.5C 217.239,58.631 217.906,58.4643 218.5,58C 230.702,45.6313 243.035,33.4647 255.5,21.5 Z"/></g>
<g><path style="opacity:0.024" fill="#2d2d2d" d="M 128.5,32.5 C 96.5,64.8333 64.5,97.1667 32.5,129.5C 31.7093,127.691 31.7093,125.691 32.5,123.5C 63.1667,93.5 93.5,63.1667 123.5,32.5C 125.398,31.9035 127.065,31.9035 128.5,32.5 Z"/></g>
<g><path style="opacity:0.024" fill="#2d2d2d" d="M 142.5,33.5 C 144.415,33.2155 146.081,33.5489 147.5,34.5C 109.833,71.8333 72.1667,109.167 34.5,146.5C 33.5655,145.432 33.2322,144.099 33.5,142.5C 70.1667,106.5 106.5,70.1667 142.5,33.5 Z"/></g>
<g><path style="opacity:0.967" fill="#0c49d8" d="M 161.5,20.5 C 164.963,21.0991 168.296,22.0991 171.5,23.5C 172.93,24.5375 174.597,25.2041 176.5,25.5C 179.304,27.4046 182.304,29.0713 185.5,30.5C 186.29,31.4013 187.29,32.0679 188.5,32.5C 191.291,34.7349 194.291,36.7349 197.5,38.5C 198.167,39.8333 199.167,40.8333 200.5,41.5C 203.141,43.8044 205.808,46.1377 208.5,48.5C 208.833,49.5 209.5,50.1667 210.5,50.5C 212.115,53.4495 214.115,56.1162 216.5,58.5C 217.167,59.8333 218.167,60.8333 219.5,61.5C 219.5,61.8333 219.5,62.1667 219.5,62.5C 215.167,66.1667 211.167,70.1667 207.5,74.5C 207.167,74.5 206.833,74.5 206.5,74.5C 206.068,73.2905 205.401,72.2905 204.5,71.5C 202.883,68.2157 200.55,65.5491 197.5,63.5C 197.068,62.2905 196.401,61.2905 195.5,60.5C 192.833,58.1667 190.167,55.8333 187.5,53.5C 187.027,52.0937 186.027,51.427 184.5,51.5C 182.025,48.7589 179.025,46.7589 175.5,45.5C 174.71,44.5987 173.71,43.9321 172.5,43.5C 169.167,41.8333 165.833,40.1667 162.5,38.5C 161.167,38.1667 159.833,37.8333 158.5,37.5C 155.579,36.304 152.579,35.304 149.5,34.5C 149.389,33.8826 149.056,33.3826 148.5,33C 152.702,28.6298 157.036,24.4632 161.5,20.5 Z"/></g>
<g><path style="opacity:0.024" fill="#2d2d2d" d="M 106.5,34.5 C 82.8333,58.8333 58.8333,82.8333 34.5,106.5C 34.767,104.035 35.4336,101.701 36.5,99.5C 57.8333,78.8333 78.8333,57.8333 99.5,36.5C 101.701,35.4336 104.035,34.767 106.5,34.5 Z"/></g>
<g><path style="opacity:0.024" fill="#2d2d2d" d="M 158.5,37.5 C 159.833,37.8333 161.167,38.1667 162.5,38.5C 146.5,54.8333 130.5,71.1667 114.5,87.5C 113.833,87.5 113.5,87.8333 113.5,88.5C 111.167,89.1667 108.833,89.8333 106.5,90.5C 123.833,72.8333 141.167,55.1667 158.5,37.5 Z"/></g>
<g><path style="opacity:0.024" fill="#2d2d2d" d="M 255.5,41.5 C 255.5,43.1667 255.5,44.8333 255.5,46.5C 245.833,55.5 236.5,64.8333 227.5,74.5C 226.512,73.205 225.512,71.8717 224.5,70.5C 225.239,70.631 225.906,70.4643 226.5,70C 236.035,60.2978 245.702,50.7978 255.5,41.5 Z"/></g>
<g><path style="opacity:0.024" fill="#2d2d2d" d="M 172.5,43.5 C 173.71,43.9321 174.71,44.5987 175.5,45.5C 161.5,59.8333 147.5,74.1667 133.5,88.5C 132.167,88.1667 130.833,87.8333 129.5,87.5C 143.833,72.8333 158.167,58.1667 172.5,43.5 Z"/></g>
<g><path style="opacity:0.024" fill="#2d2d2d" d="M 184.5,51.5 C 186.027,51.427 187.027,52.0937 187.5,53.5C 174.167,67.5 160.5,81.1667 146.5,94.5C 145.29,94.0679 144.29,93.4013 143.5,92.5C 157.5,79.1667 171.167,65.5 184.5,51.5 Z"/></g>
<g><path style="opacity:0.02" fill="#303441" d="M 62.5,58.5 C 61.5,60.1667 60.1667,61.5 58.5,62.5C 58.8333,60.1667 60.1667,58.8333 62.5,58.5 Z"/></g>
<g><path style="opacity:0.024" fill="#2d2d2e" d="M 195.5,60.5 C 196.401,61.2905 197.068,62.2905 197.5,63.5C 183.833,77.8333 169.833,91.8333 155.5,105.5C 154.599,104.71 153.932,103.71 153.5,102.5C 167.833,88.8333 181.833,74.8333 195.5,60.5 Z"/></g>
<g><path style="opacity:0.024" fill="#2d2d2d" d="M 255.5,61.5 C 255.5,63.1667 255.5,64.8333 255.5,66.5C 247.833,73.5 240.5,80.8333 233.5,88.5C 232.655,87.3285 231.989,85.9952 231.5,84.5C 239.5,76.8333 247.5,69.1667 255.5,61.5 Z"/></g>
<g><path style="opacity:0.024" fill="#2d2d2d" d="M 35.5,61.5 C 33.1942,65.4828 30.8609,69.4828 28.5,73.5C 27.8333,73.5 27.5,73.8333 27.5,74.5C 18.1667,83.5 8.83333,92.5 -0.5,101.5C -0.5,99.8333 -0.5,98.1667 -0.5,96.5C 11.5,84.8333 23.5,73.1667 35.5,61.5 Z"/></g>
<g><path style="opacity:0.024" fill="#2d2d2d" d="M 204.5,71.5 C 205.401,72.2905 206.068,73.2905 206.5,74.5C 191.167,90.5 175.5,106.167 159.5,121.5C 159.5,119.833 159.5,118.167 159.5,116.5C 174.833,101.833 189.833,86.8333 204.5,71.5 Z"/></g>
<g><path style="opacity:0.024" fill="#2d2d2d" d="M 255.5,81.5 C 255.5,83.1667 255.5,84.8333 255.5,86.5C 249.5,92.1667 243.5,97.8333 237.5,103.5C 237.167,102.167 236.833,100.833 236.5,99.5C 242.833,93.5 249.167,87.5 255.5,81.5 Z"/></g>
<g><path style="opacity:0.024" fill="#2d2d2d" d="M 212.5,84.5 C 213.401,85.2905 214.068,86.2905 214.5,87.5C 195.167,106.167 176.167,125.167 157.5,144.5C 155.31,143.252 154.977,141.586 156.5,139.5C 157.167,139.5 157.5,139.167 157.5,138.5C 175.833,120.5 194.167,102.5 212.5,84.5 Z"/></g>
<g><path style="opacity:0.954" fill="#0b49d8" d="M 219.5,62.5 C 221.167,65.1667 222.833,67.8333 224.5,70.5C 225.512,71.8717 226.512,73.205 227.5,74.5C 228.833,77.8333 230.167,81.1667 231.5,84.5C 231.989,85.9952 232.655,87.3285 233.5,88.5C 234.656,92.1228 235.656,95.7894 236.5,99.5C 236.833,100.833 237.167,102.167 237.5,103.5C 238.275,107.814 238.941,112.147 239.5,116.5C 239.5,118.167 239.5,119.833 239.5,121.5C 239.5,126.5 239.5,131.5 239.5,136.5C 239.5,138.167 239.5,139.833 239.5,141.5C 239.167,142.167 238.833,142.833 238.5,143.5C 231.446,150.558 224.112,157.225 216.5,163.5C 216.833,162.167 217.167,160.833 217.5,159.5C 219.674,152.964 221.341,146.297 222.5,139.5C 222.5,137.833 222.5,136.167 222.5,134.5C 222.5,129.5 222.5,124.5 222.5,119.5C 222.5,117.833 222.5,116.167 222.5,114.5C 221.5,110.5 220.5,106.5 219.5,102.5C 219.167,101.167 218.833,99.8333 218.5,98.5C 217.168,94.8382 215.835,91.1715 214.5,87.5C 214.068,86.2905 213.401,85.2905 212.5,84.5C 210.82,81.1401 209.153,77.8068 207.5,74.5C 211.167,70.1667 215.167,66.1667 219.5,62.5 Z"/></g>
<g><path style="opacity:1" fill="#20bcf8" d="M 114.5,87.5 C 119.5,87.5 124.5,87.5 129.5,87.5C 130.833,87.8333 132.167,88.1667 133.5,88.5C 137.063,89.2824 140.397,90.6157 143.5,92.5C 144.29,93.4013 145.29,94.0679 146.5,94.5C 148.833,97.1667 151.167,99.8333 153.5,102.5C 153.932,103.71 154.599,104.71 155.5,105.5C 155.5,105.833 155.5,106.167 155.5,106.5C 149.983,110.669 145.65,115.669 142.5,121.5C 142.5,120.833 142.5,120.167 142.5,119.5C 142.34,117.847 141.674,116.514 140.5,115.5C 139.569,111.571 137.236,108.905 133.5,107.5C 132.71,106.599 131.71,105.932 130.5,105.5C 124.472,103.695 118.805,104.361 113.5,107.5C 110.5,108.5 108.5,110.5 107.5,113.5C 106.833,114.5 106.167,115.5 105.5,116.5C 99.1975,121.135 93.5308,126.469 88.5,132.5C 87.8902,131.609 87.5569,130.609 87.5,129.5C 87.5,124.5 87.5,119.5 87.5,114.5C 88.1667,114.5 88.5,114.167 88.5,113.5C 89.1667,111.167 89.8333,108.833 90.5,106.5C 94.8333,100.167 100.167,94.8333 106.5,90.5C 108.833,89.8333 111.167,89.1667 113.5,88.5C 114.167,88.5 114.5,88.1667 114.5,87.5 Z"/></g>
<g><path style="opacity:0.024" fill="#2d2d2d" d="M 18.5,98.5 C 18.5,99.1667 18.5,99.8333 18.5,100.5C 17.7659,101.708 17.4326,103.041 17.5,104.5C 11.5,110.167 5.5,115.833 -0.5,121.5C -0.5,119.833 -0.5,118.167 -0.5,116.5C 5.83333,110.5 12.1667,104.5 18.5,98.5 Z"/></g>
<g><path style="opacity:0.024" fill="#2d2d2d" d="M 218.5,98.5 C 218.833,99.8333 219.167,101.167 219.5,102.5C 201.833,119.5 184.5,136.833 167.5,154.5C 166.167,153.833 165.167,152.833 164.5,151.5C 182.5,133.833 200.5,116.167 218.5,98.5 Z"/></g>
<g><path style="opacity:0.024" fill="#2d2d2d" d="M 255.5,101.5 C 255.5,103.167 255.5,104.833 255.5,106.5C 250.167,111.5 244.833,116.5 239.5,121.5C 239.5,119.833 239.5,118.167 239.5,116.5C 244.833,111.5 250.167,106.5 255.5,101.5 Z"/></g>
<g><path style="opacity:0.024" fill="#2d2d2d" d="M 130.5,105.5 C 131.71,105.932 132.71,106.599 133.5,107.5C 125.167,116.5 116.5,125.167 107.5,133.5C 106.599,132.71 105.932,131.71 105.5,130.5C 114.167,122.5 122.5,114.167 130.5,105.5 Z"/></g>
<g><path style="opacity:0.024" fill="#2d2d2d" d="M 90.5,106.5 C 89.8333,108.833 89.1667,111.167 88.5,113.5C 87.8333,113.5 87.5,113.833 87.5,114.5C 71.1667,130.5 54.8333,146.5 38.5,162.5C 38.1667,161.167 37.8333,159.833 37.5,158.5C 55.1667,141.167 72.8333,123.833 90.5,106.5 Z"/></g>
<g><path style="opacity:0.02" fill="#303030" d="M 113.5,107.5 C 111.833,109.833 109.833,111.833 107.5,113.5C 108.5,110.5 110.5,108.5 113.5,107.5 Z"/></g>
<g><path style="opacity:0.024" fill="#2d2d2d" d="M 222.5,114.5 C 222.5,116.167 222.5,117.833 222.5,119.5C 176.833,164.5 131.5,209.833 86.5,255.5C 84.8333,255.5 83.1667,255.5 81.5,255.5C 109.833,226.833 138.167,198.167 166.5,169.5C 167.167,169.5 167.5,169.167 167.5,168.5C 167.5,167.833 167.833,167.5 168.5,167.5C 169.167,167.5 169.5,167.167 169.5,166.5C 187.167,149.167 204.833,131.833 222.5,114.5 Z"/></g>
<g><path style="opacity:0.024" fill="#2d2d2d" d="M 140.5,115.5 C 141.674,116.514 142.34,117.847 142.5,119.5C 134.5,126.833 126.833,134.5 119.5,142.5C 117.847,142.34 116.514,141.674 115.5,140.5C 124.167,132.5 132.5,124.167 140.5,115.5 Z"/></g>
<g><path style="opacity:0.024" fill="#2d2d2d" d="M 15.5,121.5 C 15.5,123.167 15.5,124.833 15.5,126.5C 10.1667,131.5 4.83333,136.5 -0.5,141.5C -0.5,139.833 -0.5,138.167 -0.5,136.5C 4.83333,131.5 10.1667,126.5 15.5,121.5 Z"/></g>
<g><path style="opacity:0.024" fill="#2d2d2d" d="M 255.5,121.5 C 255.5,123.167 255.5,124.833 255.5,126.5C 250.167,131.5 244.833,136.5 239.5,141.5C 239.5,139.833 239.5,138.167 239.5,136.5C 244.833,131.5 250.167,126.5 255.5,121.5 Z"/></g>
<g><path style="opacity:1" fill="#20bcf9" d="M 159.5,115.5 C 159.5,115.833 159.5,116.167 159.5,116.5C 159.5,118.167 159.5,119.833 159.5,121.5C 159.791,127.303 159.125,132.97 157.5,138.5C 156.833,138.5 156.5,138.833 156.5,139.5C 154.977,141.586 155.31,143.252 157.5,144.5C 159.5,147.167 161.833,149.5 164.5,151.5C 165.167,152.833 166.167,153.833 167.5,154.5C 170.356,158.118 171.023,162.118 169.5,166.5C 168.833,166.5 168.5,166.833 168.5,167.5C 167.833,167.5 167.5,167.833 167.5,168.5C 166.833,168.5 166.5,168.833 166.5,169.5C 162.118,171.023 158.118,170.356 154.5,167.5C 153.833,166.167 152.833,165.167 151.5,164.5C 149.5,161.833 147.167,159.5 144.5,157.5C 143.252,155.31 141.586,154.977 139.5,156.5C 138.833,156.5 138.5,156.833 138.5,157.5C 132.97,159.125 127.303,159.791 121.5,159.5C 120.167,159.5 118.833,159.5 117.5,159.5C 131.89,145.112 145.89,130.446 159.5,115.5 Z"/></g>
<g><path style="opacity:0.024" fill="#2d2d2d" d="M 87.5,129.5 C 87.5569,130.609 87.8902,131.609 88.5,132.5C 88.5,132.833 88.5,133.167 88.5,133.5C 74.1667,147.5 59.8333,161.5 45.5,175.5C 44.5987,174.71 43.9321,173.71 43.5,172.5C 58.1667,158.167 72.8333,143.833 87.5,129.5 Z"/></g>
<g><path style="opacity:0.024" fill="#2d2d2d" d="M 222.5,134.5 C 222.5,136.167 222.5,137.833 222.5,139.5C 194.5,166.833 166.833,194.5 139.5,222.5C 137.833,222.5 136.167,222.5 134.5,222.5C 163.5,192.833 192.833,163.5 222.5,134.5 Z"/></g>
<g><path style="opacity:1" fill="#1fbdfa" d="M 155.5,106.5 C 157.205,109.261 158.538,112.261 159.5,115.5C 145.89,130.446 131.89,145.112 117.5,159.5C 117.167,159.5 116.833,159.5 116.5,159.5C 112.675,158.559 109.009,157.226 105.5,155.5C 104.71,154.599 103.71,153.932 102.5,153.5C 99.8333,151.167 97.1667,148.833 94.5,146.5C 94.0679,145.29 93.4013,144.29 92.5,143.5C 90.6157,140.397 89.2824,137.063 88.5,133.5C 88.5,133.167 88.5,132.833 88.5,132.5C 93.5308,126.469 99.1975,121.135 105.5,116.5C 104.167,121.167 104.167,125.833 105.5,130.5C 105.932,131.71 106.599,132.71 107.5,133.5C 108.905,137.236 111.571,139.569 115.5,140.5C 116.514,141.674 117.847,142.34 119.5,142.5C 134.529,143.468 142.196,136.468 142.5,121.5C 145.65,115.669 149.983,110.669 155.5,106.5 Z M 142.5,119.5 C 142.5,120.167 142.5,120.833 142.5,121.5C 142.196,136.468 134.529,143.468 119.5,142.5C 126.833,134.5 134.5,126.833 142.5,119.5 Z"/></g>
<g><path style="opacity:0.024" fill="#2d2d2d" d="M 15.5,141.5 C 16.2341,142.708 16.5674,144.041 16.5,145.5C 10.8333,150.833 5.16667,156.167 -0.5,161.5C -0.5,159.833 -0.5,158.167 -0.5,156.5C 4.83333,151.5 10.1667,146.5 15.5,141.5 Z"/></g>
<g><path style="opacity:0.024" fill="#2d2d2e" d="M 255.5,141.5 C 255.5,143.167 255.5,144.833 255.5,146.5C 247.833,153.833 240.167,161.167 232.5,168.5C 233.108,165.673 234.108,163.007 235.5,160.5C 242.167,154.167 248.833,147.833 255.5,141.5 Z"/></g>
<g><path style="opacity:0.965" fill="#0c48d8" d="M 238.5,143.5 C 237.886,149.238 236.886,154.905 235.5,160.5C 234.108,163.007 233.108,165.673 232.5,168.5C 220.167,198.833 198.833,220.167 168.5,232.5C 165.673,233.108 163.007,234.108 160.5,235.5C 154.139,236.839 147.805,238.172 141.5,239.5C 139.833,239.5 138.167,239.5 136.5,239.5C 131.737,239.774 127.07,239.441 122.5,238.5C 121.5,238.167 120.833,237.5 120.5,236.5C 119.086,232.792 119.253,229.125 121,225.5C 125.225,223.421 129.725,222.421 134.5,222.5C 136.167,222.5 137.833,222.5 139.5,222.5C 146.297,221.341 152.964,219.674 159.5,217.5C 162.622,216.439 165.622,215.105 168.5,213.5C 169.167,213.5 169.5,213.167 169.5,212.5C 185.899,204.608 199.066,192.941 209,177.5C 210.454,174.929 211.62,172.262 212.5,169.5C 213.167,169.5 213.5,169.167 213.5,168.5C 214.263,166.632 215.263,164.965 216.5,163.5C 224.112,157.225 231.446,150.558 238.5,143.5 Z"/></g>
<g><path style="opacity:0.024" fill="#2d2d2d" d="M 92.5,143.5 C 93.4013,144.29 94.0679,145.29 94.5,146.5C 81.5353,159.965 68.3686,173.299 55,186.5C 54.5357,187.094 54.369,187.761 54.5,188.5C 53.5116,187.205 52.5116,185.872 51.5,184.5C 65.5,171.167 79.1667,157.5 92.5,143.5 Z"/></g>
<g><path style="opacity:0.024" fill="#2d2d2d" d="M 102.5,153.5 C 103.71,153.932 104.71,154.599 105.5,155.5C 91.8333,169.833 77.8333,183.833 63.5,197.5C 62.5,197.167 61.8333,196.5 61.5,195.5C 75.1667,181.5 88.8333,167.5 102.5,153.5 Z"/></g>
<g><path style="opacity:0.024" fill="#2d2d2d" d="M 144.5,157.5 C 125.5,176.167 106.5,194.833 87.5,213.5C 86.391,213.443 85.391,213.11 84.5,212.5C 102.5,194.167 120.5,175.833 138.5,157.5C 139.167,157.5 139.5,157.167 139.5,156.5C 141.586,154.977 143.252,155.31 144.5,157.5 Z"/></g>
<g><path style="opacity:0.024" fill="#2d2d2d" d="M 18.5,157.5 C 19.3446,158.671 20.0113,160.005 20.5,161.5C 13.5,168.167 6.5,174.833 -0.5,181.5C -0.5,179.833 -0.5,178.167 -0.5,176.5C 6.16667,170.5 12.5,164.167 18.5,157.5 Z"/></g>
<g><path style="opacity:0.024" fill="#2d2d2d" d="M 116.5,159.5 C 116.833,159.5 117.167,159.5 117.5,159.5C 118.833,159.5 120.167,159.5 121.5,159.5C 106.167,175.167 90.8333,190.833 75.5,206.5C 73.9731,206.573 72.9731,205.906 72.5,204.5C 87.1667,189.5 101.833,174.5 116.5,159.5 Z"/></g>
<g><path style="opacity:0.024" fill="#2d2d2e" d="M 217.5,159.5 C 217.167,160.833 216.833,162.167 216.5,163.5C 215.263,164.965 214.263,166.632 213.5,168.5C 212.833,168.5 212.5,168.833 212.5,169.5C 197.833,183.5 183.5,197.833 169.5,212.5C 168.833,212.5 168.5,212.833 168.5,213.5C 165.622,215.105 162.622,216.439 159.5,217.5C 178.5,197.833 197.833,178.5 217.5,159.5 Z"/></g>
<g><path style="opacity:0.962" fill="#0c48d8" d="M 49.5,72.5 C 43.8386,80.8239 39.5052,89.8239 36.5,99.5C 35.4336,101.701 34.767,104.035 34.5,106.5C 32.9783,112.047 32.3116,117.714 32.5,123.5C 31.7093,125.691 31.7093,127.691 32.5,129.5C 32.2307,133.931 32.564,138.265 33.5,142.5C 33.2322,144.099 33.5655,145.432 34.5,146.5C 34.8779,150.678 35.8779,154.678 37.5,158.5C 37.8333,159.833 38.1667,161.167 38.5,162.5C 40.1667,165.833 41.8333,169.167 43.5,172.5C 43.9321,173.71 44.5987,174.71 45.5,175.5C 47.2651,178.709 49.2651,181.709 51.5,184.5C 52.5116,185.872 53.5116,187.205 54.5,188.5C 56.5,191.167 58.8333,193.5 61.5,195.5C 61.8333,196.5 62.5,197.167 63.5,197.5C 65.9485,200.556 68.9485,202.889 72.5,204.5C 72.9731,205.906 73.9731,206.573 75.5,206.5C 77.9464,209.231 80.9464,211.231 84.5,212.5C 85.391,213.11 86.391,213.443 87.5,213.5C 89.2726,214.892 91.2726,216.059 93.5,217C 94.305,218.113 94.9717,219.279 95.5,220.5C 95.5,222.167 95.5,223.833 95.5,225.5C 95.1667,229.167 93.1667,231.167 89.5,231.5C 87.8333,231.5 86.1667,231.5 84.5,231.5C 81.5,230.167 78.5,228.833 75.5,227.5C 74.4863,226.326 73.153,225.66 71.5,225.5C 68.7089,223.265 65.7089,221.265 62.5,219.5C 61.7095,218.599 60.7095,217.932 59.5,217.5C 56.8587,215.196 54.192,212.862 51.5,210.5C 50.8333,209.167 49.8333,208.167 48.5,207.5C 45.9387,205.36 43.6054,203.027 41.5,200.5C 40.4884,199.128 39.4884,197.795 38.5,196.5C 36.8532,193.527 34.8532,190.86 32.5,188.5C 32.573,186.973 31.9063,185.973 30.5,185.5C 29.2262,182.24 27.5595,179.24 25.5,176.5C 25.5674,175.041 25.2341,173.708 24.5,172.5C 22.7745,168.991 21.4411,165.325 20.5,161.5C 20.0113,160.005 19.3446,158.671 18.5,157.5C 17.9619,153.476 17.2952,149.476 16.5,145.5C 16.5674,144.041 16.2341,142.708 15.5,141.5C 15.5,136.5 15.5,131.5 15.5,126.5C 15.5,124.833 15.5,123.167 15.5,121.5C 15.4372,115.731 16.1039,110.064 17.5,104.5C 17.4326,103.041 17.7659,101.708 18.5,100.5C 19.1174,100.611 19.6174,100.944 20,101.5C 29.7761,91.5554 39.6094,81.8887 49.5,72.5 Z"/></g>
<g><path style="opacity:0.024" fill="#2d2d2d" d="M 255.5,161.5 C 255.5,163.167 255.5,164.833 255.5,166.5C 225.5,195.833 195.833,225.5 166.5,255.5C 164.833,255.5 163.167,255.5 161.5,255.5C 192.5,223.833 223.833,192.5 255.5,161.5 Z"/></g>
<g><path style="opacity:0.024" fill="#2d2d2d" d="M 151.5,164.5 C 152.833,165.167 153.833,166.167 154.5,167.5C 134.833,186.833 115.167,206.167 95.5,225.5C 95.5,223.833 95.5,222.167 95.5,220.5C 114.5,202.167 133.167,183.5 151.5,164.5 Z"/></g>
<g><path style="opacity:0.024" fill="#2d2d2d" d="M 24.5,172.5 C 25.2341,173.708 25.5674,175.041 25.5,176.5C 16.8333,184.833 8.16667,193.167 -0.5,201.5C -0.5,199.833 -0.5,198.167 -0.5,196.5C 7.83333,188.5 16.1667,180.5 24.5,172.5 Z"/></g>
<g><path style="opacity:0.024" fill="#2d2d2d" d="M 255.5,181.5 C 255.5,183.167 255.5,184.833 255.5,186.5C 232.167,209.167 209.167,232.167 186.5,255.5C 184.833,255.5 183.167,255.5 181.5,255.5C 205.833,230.5 230.5,205.833 255.5,181.5 Z"/></g>
<g><path style="opacity:0.024" fill="#2d2d2d" d="M 30.5,185.5 C 31.9063,185.973 32.573,186.973 32.5,188.5C 21.8333,199.833 10.8333,210.833 -0.5,221.5C -0.5,219.833 -0.5,218.167 -0.5,216.5C 10.1667,206.5 20.5,196.167 30.5,185.5 Z"/></g>
<g><path style="opacity:0.024" fill="#2d2d2d" d="M 38.5,196.5 C 39.4884,197.795 40.4884,199.128 41.5,200.5C 27.5,214.167 13.5,227.833 -0.5,241.5C -0.5,239.833 -0.5,238.167 -0.5,236.5C 13.2195,223.782 26.2195,210.448 38.5,196.5 Z"/></g>
<g><path style="opacity:0.024" fill="#2d2d2d" d="M 255.5,201.5 C 255.5,203.167 255.5,204.833 255.5,206.5C 238.833,222.5 222.5,238.833 206.5,255.5C 204.833,255.5 203.167,255.5 201.5,255.5C 219.167,237.167 237.167,219.167 255.5,201.5 Z"/></g>
<g><path style="opacity:0.024" fill="#2d2d2e" d="M 48.5,207.5 C 49.8333,208.167 50.8333,209.167 51.5,210.5C 36.1667,225.167 21.1667,240.167 6.5,255.5C 4.83333,255.5 3.16667,255.5 1.5,255.5C 17.1667,239.5 32.8333,223.5 48.5,207.5 Z"/></g>
<g><path style="opacity:0.024" fill="#2d2d2d" d="M 59.5,217.5 C 60.7095,217.932 61.7095,218.599 62.5,219.5C 50.1667,231.167 38.1667,243.167 26.5,255.5C 24.8333,255.5 23.1667,255.5 21.5,255.5C 33.8333,242.5 46.5,229.833 59.5,217.5 Z"/></g>
<g><path style="opacity:0.024" fill="#2d2d2d" d="M 255.5,221.5 C 255.5,223.167 255.5,224.833 255.5,226.5C 245.5,235.833 235.833,245.5 226.5,255.5C 224.833,255.5 223.167,255.5 221.5,255.5C 232.5,243.833 243.833,232.5 255.5,221.5 Z"/></g>
<g><path style="opacity:0.024" fill="#2d2d2d" d="M 71.5,225.5 C 73.153,225.66 74.4863,226.326 75.5,227.5C 65.2199,236.112 55.5532,245.445 46.5,255.5C 44.8333,255.5 43.1667,255.5 41.5,255.5C 51.1667,245.167 61.1667,235.167 71.5,225.5 Z"/></g>
<g><path style="opacity:0.024" fill="#2d2d2d" d="M 84.5,231.5 C 86.1667,231.5 87.8333,231.5 89.5,231.5C 81.8333,239.5 74.1667,247.5 66.5,255.5C 64.8333,255.5 63.1667,255.5 61.5,255.5C 69.1667,247.5 76.8333,239.5 84.5,231.5 Z"/></g>
<g><path style="opacity:0.024" fill="#2d2d2e" d="M 168.5,232.5 C 161.167,240.167 153.833,247.833 146.5,255.5C 144.833,255.5 143.167,255.5 141.5,255.5C 147.833,248.833 154.167,242.167 160.5,235.5C 163.007,234.108 165.673,233.108 168.5,232.5 Z"/></g>
<g><path style="opacity:0.024" fill="#2d2d2d" d="M 120.5,236.5 C 120.833,237.5 121.5,238.167 122.5,238.5C 117.167,244.167 111.833,249.833 106.5,255.5C 104.833,255.5 103.167,255.5 101.5,255.5C 107.5,248.833 113.833,242.5 120.5,236.5 Z"/></g>
<g><path style="opacity:0.024" fill="#2d2d2d" d="M 136.5,239.5 C 138.167,239.5 139.833,239.5 141.5,239.5C 136.5,244.833 131.5,250.167 126.5,255.5C 124.833,255.5 123.167,255.5 121.5,255.5C 126.5,250.167 131.5,244.833 136.5,239.5 Z"/></g>
<g><path style="opacity:0.024" fill="#2d2d2d" d="M 255.5,241.5 C 255.5,243.167 255.5,244.833 255.5,246.5C 252.167,249.167 249.167,252.167 246.5,255.5C 244.833,255.5 243.167,255.5 241.5,255.5C 245.833,250.5 250.5,245.833 255.5,241.5 Z"/></g>
</svg>
